<?xml version="1.0" encoding="utf-8" standalone="no"?>
<!DOCTYPE svg PUBLIC "-//W3C//DTD SVG 1.1//EN"
  "http://www.w3.org/Graphics/SVG/1.1/DTD/svg11.dtd">
<!-- Created with matplotlib (https://matplotlib.org/) -->
<svg height="711.274375pt" version="1.1" viewBox="0 0 1718.66247 711.274375" width="1718.66247pt" xmlns="http://www.w3.org/2000/svg" xmlns:xlink="http://www.w3.org/1999/xlink">
 <defs>
  <style type="text/css">
*{stroke-linecap:butt;stroke-linejoin:round;}
  </style>
 </defs>
 <g id="figure_1">
  <g id="patch_1">
   <path d="M 0 711.274375 
L 1718.66247 711.274375 
L 1718.66247 0 
L 0 0 
z
" style="fill:none;"/>
  </g>
  <g id="axes_1">
   <g id="patch_2">
    <path d="M 46.965625 673.718125 
L 1694.227108 673.718125 
L 1694.227108 22.318125 
L 46.965625 22.318125 
z
" style="fill:#ffffff;"/>
   </g>
   <g id="PathCollection_1">
    <defs>
     <path d="M 0 3 
C 0.795609 3 1.55874 2.683901 2.12132 2.12132 
C 2.683901 1.55874 3 0.795609 3 0 
C 3 -0.795609 2.683901 -1.55874 2.12132 -2.12132 
C 1.55874 -2.683901 0.795609 -3 0 -3 
C -0.795609 -3 -1.55874 -2.683901 -2.12132 -2.12132 
C -2.683901 -1.55874 -3 -0.795609 -3 0 
C -3 0.795609 -2.683901 1.55874 -2.12132 2.12132 
C -1.55874 2.683901 -0.795609 3 0 3 
z
" id="ma087328f0c" style="stroke:#800080;"/>
    </defs>
    <g clip-path="url(#p44a39098fc)">
     <use style="fill:#800080;stroke:#800080;" x="121.841147" xlink:href="#ma087328f0c" y="643.413064"/>
     <use style="fill:#800080;stroke:#800080;" x="137.604415" xlink:href="#ma087328f0c" y="643.413064"/>
     <use style="fill:#800080;stroke:#800080;" x="153.367683" xlink:href="#ma087328f0c" y="643.413064"/>
     <use style="fill:#800080;stroke:#800080;" x="169.13095" xlink:href="#ma087328f0c" y="643.413064"/>
     <use style="fill:#800080;stroke:#800080;" x="184.894218" xlink:href="#ma087328f0c" y="643.413064"/>
     <use style="fill:#800080;stroke:#800080;" x="200.657486" xlink:href="#ma087328f0c" y="643.413064"/>
     <use style="fill:#800080;stroke:#800080;" x="216.420754" xlink:href="#ma087328f0c" y="643.413064"/>
     <use style="fill:#800080;stroke:#800080;" x="232.184021" xlink:href="#ma087328f0c" y="643.413064"/>
     <use style="fill:#800080;stroke:#800080;" x="247.947289" xlink:href="#ma087328f0c" y="643.413064"/>
     <use style="fill:#800080;stroke:#800080;" x="263.710557" xlink:href="#ma087328f0c" y="643.413064"/>
     <use style="fill:#800080;stroke:#800080;" x="279.473825" xlink:href="#ma087328f0c" y="643.413064"/>
     <use style="fill:#800080;stroke:#800080;" x="295.237093" xlink:href="#ma087328f0c" y="643.413064"/>
     <use style="fill:#800080;stroke:#800080;" x="311.00036" xlink:href="#ma087328f0c" y="643.413064"/>
     <use style="fill:#800080;stroke:#800080;" x="326.763628" xlink:href="#ma087328f0c" y="643.413064"/>
     <use style="fill:#800080;stroke:#800080;" x="342.526896" xlink:href="#ma087328f0c" y="643.413064"/>
     <use style="fill:#800080;stroke:#800080;" x="358.290164" xlink:href="#ma087328f0c" y="643.413064"/>
     <use style="fill:#800080;stroke:#800080;" x="374.053431" xlink:href="#ma087328f0c" y="643.413064"/>
     <use style="fill:#800080;stroke:#800080;" x="389.816699" xlink:href="#ma087328f0c" y="643.413064"/>
     <use style="fill:#800080;stroke:#800080;" x="405.579967" xlink:href="#ma087328f0c" y="643.413064"/>
     <use style="fill:#800080;stroke:#800080;" x="421.343235" xlink:href="#ma087328f0c" y="643.413064"/>
     <use style="fill:#800080;stroke:#800080;" x="437.106503" xlink:href="#ma087328f0c" y="643.413064"/>
     <use style="fill:#800080;stroke:#800080;" x="452.86977" xlink:href="#ma087328f0c" y="643.413064"/>
     <use style="fill:#800080;stroke:#800080;" x="468.633038" xlink:href="#ma087328f0c" y="642.330496"/>
     <use style="fill:#800080;stroke:#800080;" x="484.396306" xlink:href="#ma087328f0c" y="642.330496"/>
     <use style="fill:#800080;stroke:#800080;" x="500.159574" xlink:href="#ma087328f0c" y="642.330496"/>
     <use style="fill:#800080;stroke:#800080;" x="515.922842" xlink:href="#ma087328f0c" y="641.247928"/>
     <use style="fill:#800080;stroke:#800080;" x="531.686109" xlink:href="#ma087328f0c" y="640.16536"/>
     <use style="fill:#800080;stroke:#800080;" x="547.449377" xlink:href="#ma087328f0c" y="639.082792"/>
     <use style="fill:#800080;stroke:#800080;" x="563.212645" xlink:href="#ma087328f0c" y="639.082792"/>
     <use style="fill:#800080;stroke:#800080;" x="578.975913" xlink:href="#ma087328f0c" y="636.917656"/>
     <use style="fill:#800080;stroke:#800080;" x="594.73918" xlink:href="#ma087328f0c" y="633.669953"/>
     <use style="fill:#800080;stroke:#800080;" x="610.502448" xlink:href="#ma087328f0c" y="630.422249"/>
     <use style="fill:#800080;stroke:#800080;" x="626.265716" xlink:href="#ma087328f0c" y="627.174545"/>
     <use style="fill:#800080;stroke:#800080;" x="642.028984" xlink:href="#ma087328f0c" y="622.844273"/>
     <use style="fill:#800080;stroke:#800080;" x="657.792252" xlink:href="#ma087328f0c" y="621.761705"/>
     <use style="fill:#800080;stroke:#800080;" x="673.555519" xlink:href="#ma087328f0c" y="620.679137"/>
     <use style="fill:#800080;stroke:#800080;" x="689.318787" xlink:href="#ma087328f0c" y="619.596569"/>
     <use style="fill:#800080;stroke:#800080;" x="705.082055" xlink:href="#ma087328f0c" y="618.514001"/>
     <use style="fill:#800080;stroke:#800080;" x="720.845323" xlink:href="#ma087328f0c" y="618.514001"/>
     <use style="fill:#800080;stroke:#800080;" x="736.60859" xlink:href="#ma087328f0c" y="617.431433"/>
     <use style="fill:#800080;stroke:#800080;" x="752.371858" xlink:href="#ma087328f0c" y="616.348865"/>
     <use style="fill:#800080;stroke:#800080;" x="768.135126" xlink:href="#ma087328f0c" y="614.183729"/>
     <use style="fill:#800080;stroke:#800080;" x="783.898394" xlink:href="#ma087328f0c" y="613.101161"/>
     <use style="fill:#800080;stroke:#800080;" x="799.661662" xlink:href="#ma087328f0c" y="613.101161"/>
     <use style="fill:#800080;stroke:#800080;" x="815.424929" xlink:href="#ma087328f0c" y="612.018593"/>
     <use style="fill:#800080;stroke:#800080;" x="831.188197" xlink:href="#ma087328f0c" y="609.853457"/>
     <use style="fill:#800080;stroke:#800080;" x="846.951465" xlink:href="#ma087328f0c" y="607.688321"/>
     <use style="fill:#800080;stroke:#800080;" x="862.714733" xlink:href="#ma087328f0c" y="606.605753"/>
     <use style="fill:#800080;stroke:#800080;" x="878.478001" xlink:href="#ma087328f0c" y="606.605753"/>
     <use style="fill:#800080;stroke:#800080;" x="894.241268" xlink:href="#ma087328f0c" y="603.358049"/>
     <use style="fill:#800080;stroke:#800080;" x="910.004536" xlink:href="#ma087328f0c" y="602.275481"/>
     <use style="fill:#800080;stroke:#800080;" x="925.767804" xlink:href="#ma087328f0c" y="599.027778"/>
     <use style="fill:#800080;stroke:#800080;" x="941.531072" xlink:href="#ma087328f0c" y="597.94521"/>
     <use style="fill:#800080;stroke:#800080;" x="957.294339" xlink:href="#ma087328f0c" y="595.780074"/>
     <use style="fill:#800080;stroke:#800080;" x="973.057607" xlink:href="#ma087328f0c" y="592.53237"/>
     <use style="fill:#800080;stroke:#800080;" x="988.820875" xlink:href="#ma087328f0c" y="588.202098"/>
     <use style="fill:#800080;stroke:#800080;" x="1004.584143" xlink:href="#ma087328f0c" y="586.036962"/>
     <use style="fill:#800080;stroke:#800080;" x="1020.347411" xlink:href="#ma087328f0c" y="582.789258"/>
     <use style="fill:#800080;stroke:#800080;" x="1036.110678" xlink:href="#ma087328f0c" y="579.541554"/>
     <use style="fill:#800080;stroke:#800080;" x="1051.873946" xlink:href="#ma087328f0c" y="576.29385"/>
     <use style="fill:#800080;stroke:#800080;" x="1067.637214" xlink:href="#ma087328f0c" y="570.88101"/>
     <use style="fill:#800080;stroke:#800080;" x="1083.400482" xlink:href="#ma087328f0c" y="565.468171"/>
     <use style="fill:#800080;stroke:#800080;" x="1099.163749" xlink:href="#ma087328f0c" y="563.303035"/>
     <use style="fill:#800080;stroke:#800080;" x="1114.927017" xlink:href="#ma087328f0c" y="560.055331"/>
     <use style="fill:#800080;stroke:#800080;" x="1130.690285" xlink:href="#ma087328f0c" y="555.725059"/>
     <use style="fill:#800080;stroke:#800080;" x="1146.453553" xlink:href="#ma087328f0c" y="551.394787"/>
     <use style="fill:#800080;stroke:#800080;" x="1162.216821" xlink:href="#ma087328f0c" y="544.899379"/>
     <use style="fill:#800080;stroke:#800080;" x="1177.980088" xlink:href="#ma087328f0c" y="539.486539"/>
     <use style="fill:#800080;stroke:#800080;" x="1193.743356" xlink:href="#ma087328f0c" y="534.073699"/>
     <use style="fill:#800080;stroke:#800080;" x="1209.506624" xlink:href="#ma087328f0c" y="526.495724"/>
     <use style="fill:#800080;stroke:#800080;" x="1225.269892" xlink:href="#ma087328f0c" y="518.917748"/>
     <use style="fill:#800080;stroke:#800080;" x="1241.03316" xlink:href="#ma087328f0c" y="510.257204"/>
     <use style="fill:#800080;stroke:#800080;" x="1256.796427" xlink:href="#ma087328f0c" y="503.761796"/>
     <use style="fill:#800080;stroke:#800080;" x="1272.559695" xlink:href="#ma087328f0c" y="499.431524"/>
     <use style="fill:#800080;stroke:#800080;" x="1288.322963" xlink:href="#ma087328f0c" y="491.853549"/>
     <use style="fill:#800080;stroke:#800080;" x="1304.086231" xlink:href="#ma087328f0c" y="479.945301"/>
     <use style="fill:#800080;stroke:#800080;" x="1319.849498" xlink:href="#ma087328f0c" y="470.202189"/>
     <use style="fill:#800080;stroke:#800080;" x="1335.612766" xlink:href="#ma087328f0c" y="458.293942"/>
     <use style="fill:#800080;stroke:#800080;" x="1351.376034" xlink:href="#ma087328f0c" y="447.468262"/>
     <use style="fill:#800080;stroke:#800080;" x="1367.139302" xlink:href="#ma087328f0c" y="434.477446"/>
     <use style="fill:#800080;stroke:#800080;" x="1382.90257" xlink:href="#ma087328f0c" y="420.404063"/>
     <use style="fill:#800080;stroke:#800080;" x="1398.665837" xlink:href="#ma087328f0c" y="408.495815"/>
     <use style="fill:#800080;stroke:#800080;" x="1414.429105" xlink:href="#ma087328f0c" y="394.422432"/>
     <use style="fill:#800080;stroke:#800080;" x="1430.192373" xlink:href="#ma087328f0c" y="378.183912"/>
     <use style="fill:#800080;stroke:#800080;" x="1445.955641" xlink:href="#ma087328f0c" y="357.615121"/>
     <use style="fill:#800080;stroke:#800080;" x="1461.718908" xlink:href="#ma087328f0c" y="340.294033"/>
     <use style="fill:#800080;stroke:#800080;" x="1477.482176" xlink:href="#ma087328f0c" y="326.220649"/>
     <use style="fill:#800080;stroke:#800080;" x="1493.245444" xlink:href="#ma087328f0c" y="311.064698"/>
     <use style="fill:#800080;stroke:#800080;" x="1509.008712" xlink:href="#ma087328f0c" y="290.495907"/>
     <use style="fill:#800080;stroke:#800080;" x="1524.77198" xlink:href="#ma087328f0c" y="272.092251"/>
     <use style="fill:#800080;stroke:#800080;" x="1540.535247" xlink:href="#ma087328f0c" y="249.358324"/>
     <use style="fill:#800080;stroke:#800080;" x="1556.298515" xlink:href="#ma087328f0c" y="226.624396"/>
     <use style="fill:#800080;stroke:#800080;" x="1572.061783" xlink:href="#ma087328f0c" y="207.138173"/>
     <use style="fill:#800080;stroke:#800080;" x="1587.825051" xlink:href="#ma087328f0c" y="195.229925"/>
     <use style="fill:#800080;stroke:#800080;" x="1603.588319" xlink:href="#ma087328f0c" y="164.918022"/>
     <use style="fill:#800080;stroke:#800080;" x="1619.351586" xlink:href="#ma087328f0c" y="137.853823"/>
    </g>
   </g>
   <g id="matplotlib.axis_1">
    <g id="xtick_1">
     <g id="line2d_1">
      <path clip-path="url(#p44a39098fc)" d="M 232.184021 673.718125 
L 232.184021 22.318125 
" style="fill:none;stroke:#b0b0b0;stroke-linecap:square;stroke-width:0.8;"/>
     </g>
     <g id="line2d_2">
      <defs>
       <path d="M 0 0 
L 0 3.5 
" id="m6f66ebdd13" style="stroke:#000000;stroke-width:0.8;"/>
      </defs>
      <g>
       <use style="stroke:#000000;stroke-width:0.8;" x="232.184021" xlink:href="#m6f66ebdd13" y="673.718125"/>
      </g>
     </g>
     <g id="text_1">
      <!-- 2020-03-01 -->
      <defs>
       <path d="M 19.1875 8.296875 
L 53.609375 8.296875 
L 53.609375 0 
L 7.328125 0 
L 7.328125 8.296875 
Q 12.9375 14.109375 22.625 23.890625 
Q 32.328125 33.6875 34.8125 36.53125 
Q 39.546875 41.84375 41.421875 45.53125 
Q 43.3125 49.21875 43.3125 52.78125 
Q 43.3125 58.59375 39.234375 62.25 
Q 35.15625 65.921875 28.609375 65.921875 
Q 23.96875 65.921875 18.8125 64.3125 
Q 13.671875 62.703125 7.8125 59.421875 
L 7.8125 69.390625 
Q 13.765625 71.78125 18.9375 73 
Q 24.125 74.21875 28.421875 74.21875 
Q 39.75 74.21875 46.484375 68.546875 
Q 53.21875 62.890625 53.21875 53.421875 
Q 53.21875 48.921875 51.53125 44.890625 
Q 49.859375 40.875 45.40625 35.40625 
Q 44.1875 33.984375 37.640625 27.21875 
Q 31.109375 20.453125 19.1875 8.296875 
z
" id="DejaVuSans-50"/>
       <path d="M 31.78125 66.40625 
Q 24.171875 66.40625 20.328125 58.90625 
Q 16.5 51.421875 16.5 36.375 
Q 16.5 21.390625 20.328125 13.890625 
Q 24.171875 6.390625 31.78125 6.390625 
Q 39.453125 6.390625 43.28125 13.890625 
Q 47.125 21.390625 47.125 36.375 
Q 47.125 51.421875 43.28125 58.90625 
Q 39.453125 66.40625 31.78125 66.40625 
z
M 31.78125 74.21875 
Q 44.046875 74.21875 50.515625 64.515625 
Q 56.984375 54.828125 56.984375 36.375 
Q 56.984375 17.96875 50.515625 8.265625 
Q 44.046875 -1.421875 31.78125 -1.421875 
Q 19.53125 -1.421875 13.0625 8.265625 
Q 6.59375 17.96875 6.59375 36.375 
Q 6.59375 54.828125 13.0625 64.515625 
Q 19.53125 74.21875 31.78125 74.21875 
z
" id="DejaVuSans-48"/>
       <path d="M 4.890625 31.390625 
L 31.203125 31.390625 
L 31.203125 23.390625 
L 4.890625 23.390625 
z
" id="DejaVuSans-45"/>
       <path d="M 40.578125 39.3125 
Q 47.65625 37.796875 51.625 33 
Q 55.609375 28.21875 55.609375 21.1875 
Q 55.609375 10.40625 48.1875 4.484375 
Q 40.765625 -1.421875 27.09375 -1.421875 
Q 22.515625 -1.421875 17.65625 -0.515625 
Q 12.796875 0.390625 7.625 2.203125 
L 7.625 11.71875 
Q 11.71875 9.328125 16.59375 8.109375 
Q 21.484375 6.890625 26.8125 6.890625 
Q 36.078125 6.890625 40.9375 10.546875 
Q 45.796875 14.203125 45.796875 21.1875 
Q 45.796875 27.640625 41.28125 31.265625 
Q 36.765625 34.90625 28.71875 34.90625 
L 20.21875 34.90625 
L 20.21875 43.015625 
L 29.109375 43.015625 
Q 36.375 43.015625 40.234375 45.921875 
Q 44.09375 48.828125 44.09375 54.296875 
Q 44.09375 59.90625 40.109375 62.90625 
Q 36.140625 65.921875 28.71875 65.921875 
Q 24.65625 65.921875 20.015625 65.03125 
Q 15.375 64.15625 9.8125 62.3125 
L 9.8125 71.09375 
Q 15.4375 72.65625 20.34375 73.4375 
Q 25.25 74.21875 29.59375 74.21875 
Q 40.828125 74.21875 47.359375 69.109375 
Q 53.90625 64.015625 53.90625 55.328125 
Q 53.90625 49.265625 50.4375 45.09375 
Q 46.96875 40.921875 40.578125 39.3125 
z
" id="DejaVuSans-51"/>
       <path d="M 12.40625 8.296875 
L 28.515625 8.296875 
L 28.515625 63.921875 
L 10.984375 60.40625 
L 10.984375 69.390625 
L 28.421875 72.90625 
L 38.28125 72.90625 
L 38.28125 8.296875 
L 54.390625 8.296875 
L 54.390625 0 
L 12.40625 0 
z
" id="DejaVuSans-49"/>
      </defs>
      <g transform="translate(203.126209 688.316562)scale(0.1 -0.1)">
       <use xlink:href="#DejaVuSans-50"/>
       <use x="63.623047" xlink:href="#DejaVuSans-48"/>
       <use x="127.246094" xlink:href="#DejaVuSans-50"/>
       <use x="190.869141" xlink:href="#DejaVuSans-48"/>
       <use x="254.492188" xlink:href="#DejaVuSans-45"/>
       <use x="290.576172" xlink:href="#DejaVuSans-48"/>
       <use x="354.199219" xlink:href="#DejaVuSans-51"/>
       <use x="417.822266" xlink:href="#DejaVuSans-45"/>
       <use x="453.90625" xlink:href="#DejaVuSans-48"/>
       <use x="517.529297" xlink:href="#DejaVuSans-49"/>
      </g>
     </g>
    </g>
    <g id="xtick_2">
     <g id="line2d_3">
      <path clip-path="url(#p44a39098fc)" d="M 452.86977 673.718125 
L 452.86977 22.318125 
" style="fill:none;stroke:#b0b0b0;stroke-linecap:square;stroke-width:0.8;"/>
     </g>
     <g id="line2d_4">
      <g>
       <use style="stroke:#000000;stroke-width:0.8;" x="452.86977" xlink:href="#m6f66ebdd13" y="673.718125"/>
      </g>
     </g>
     <g id="text_2">
      <!-- 2020-03-15 -->
      <defs>
       <path d="M 10.796875 72.90625 
L 49.515625 72.90625 
L 49.515625 64.59375 
L 19.828125 64.59375 
L 19.828125 46.734375 
Q 21.96875 47.46875 24.109375 47.828125 
Q 26.265625 48.1875 28.421875 48.1875 
Q 40.625 48.1875 47.75 41.5 
Q 54.890625 34.8125 54.890625 23.390625 
Q 54.890625 11.625 47.5625 5.09375 
Q 40.234375 -1.421875 26.90625 -1.421875 
Q 22.3125 -1.421875 17.546875 -0.640625 
Q 12.796875 0.140625 7.71875 1.703125 
L 7.71875 11.625 
Q 12.109375 9.234375 16.796875 8.0625 
Q 21.484375 6.890625 26.703125 6.890625 
Q 35.15625 6.890625 40.078125 11.328125 
Q 45.015625 15.765625 45.015625 23.390625 
Q 45.015625 31 40.078125 35.4375 
Q 35.15625 39.890625 26.703125 39.890625 
Q 22.75 39.890625 18.8125 39.015625 
Q 14.890625 38.140625 10.796875 36.28125 
z
" id="DejaVuSans-53"/>
      </defs>
      <g transform="translate(423.811958 688.316562)scale(0.1 -0.1)">
       <use xlink:href="#DejaVuSans-50"/>
       <use x="63.623047" xlink:href="#DejaVuSans-48"/>
       <use x="127.246094" xlink:href="#DejaVuSans-50"/>
       <use x="190.869141" xlink:href="#DejaVuSans-48"/>
       <use x="254.492188" xlink:href="#DejaVuSans-45"/>
       <use x="290.576172" xlink:href="#DejaVuSans-48"/>
       <use x="354.199219" xlink:href="#DejaVuSans-51"/>
       <use x="417.822266" xlink:href="#DejaVuSans-45"/>
       <use x="453.90625" xlink:href="#DejaVuSans-49"/>
       <use x="517.529297" xlink:href="#DejaVuSans-53"/>
      </g>
     </g>
    </g>
    <g id="xtick_3">
     <g id="line2d_5">
      <path clip-path="url(#p44a39098fc)" d="M 720.845323 673.718125 
L 720.845323 22.318125 
" style="fill:none;stroke:#b0b0b0;stroke-linecap:square;stroke-width:0.8;"/>
     </g>
     <g id="line2d_6">
      <g>
       <use style="stroke:#000000;stroke-width:0.8;" x="720.845323" xlink:href="#m6f66ebdd13" y="673.718125"/>
      </g>
     </g>
     <g id="text_3">
      <!-- 2020-04-01 -->
      <defs>
       <path d="M 37.796875 64.3125 
L 12.890625 25.390625 
L 37.796875 25.390625 
z
M 35.203125 72.90625 
L 47.609375 72.90625 
L 47.609375 25.390625 
L 58.015625 25.390625 
L 58.015625 17.1875 
L 47.609375 17.1875 
L 47.609375 0 
L 37.796875 0 
L 37.796875 17.1875 
L 4.890625 17.1875 
L 4.890625 26.703125 
z
" id="DejaVuSans-52"/>
      </defs>
      <g transform="translate(691.78751 688.316562)scale(0.1 -0.1)">
       <use xlink:href="#DejaVuSans-50"/>
       <use x="63.623047" xlink:href="#DejaVuSans-48"/>
       <use x="127.246094" xlink:href="#DejaVuSans-50"/>
       <use x="190.869141" xlink:href="#DejaVuSans-48"/>
       <use x="254.492188" xlink:href="#DejaVuSans-45"/>
       <use x="290.576172" xlink:href="#DejaVuSans-48"/>
       <use x="354.199219" xlink:href="#DejaVuSans-52"/>
       <use x="417.822266" xlink:href="#DejaVuSans-45"/>
       <use x="453.90625" xlink:href="#DejaVuSans-48"/>
       <use x="517.529297" xlink:href="#DejaVuSans-49"/>
      </g>
     </g>
    </g>
    <g id="xtick_4">
     <g id="line2d_7">
      <path clip-path="url(#p44a39098fc)" d="M 941.531072 673.718125 
L 941.531072 22.318125 
" style="fill:none;stroke:#b0b0b0;stroke-linecap:square;stroke-width:0.8;"/>
     </g>
     <g id="line2d_8">
      <g>
       <use style="stroke:#000000;stroke-width:0.8;" x="941.531072" xlink:href="#m6f66ebdd13" y="673.718125"/>
      </g>
     </g>
     <g id="text_4">
      <!-- 2020-04-15 -->
      <g transform="translate(912.473259 688.316562)scale(0.1 -0.1)">
       <use xlink:href="#DejaVuSans-50"/>
       <use x="63.623047" xlink:href="#DejaVuSans-48"/>
       <use x="127.246094" xlink:href="#DejaVuSans-50"/>
       <use x="190.869141" xlink:href="#DejaVuSans-48"/>
       <use x="254.492188" xlink:href="#DejaVuSans-45"/>
       <use x="290.576172" xlink:href="#DejaVuSans-48"/>
       <use x="354.199219" xlink:href="#DejaVuSans-52"/>
       <use x="417.822266" xlink:href="#DejaVuSans-45"/>
       <use x="453.90625" xlink:href="#DejaVuSans-49"/>
       <use x="517.529297" xlink:href="#DejaVuSans-53"/>
      </g>
     </g>
    </g>
    <g id="xtick_5">
     <g id="line2d_9">
      <path clip-path="url(#p44a39098fc)" d="M 1193.743356 673.718125 
L 1193.743356 22.318125 
" style="fill:none;stroke:#b0b0b0;stroke-linecap:square;stroke-width:0.8;"/>
     </g>
     <g id="line2d_10">
      <g>
       <use style="stroke:#000000;stroke-width:0.8;" x="1193.743356" xlink:href="#m6f66ebdd13" y="673.718125"/>
      </g>
     </g>
     <g id="text_5">
      <!-- 2020-05-01 -->
      <g transform="translate(1164.685544 688.316562)scale(0.1 -0.1)">
       <use xlink:href="#DejaVuSans-50"/>
       <use x="63.623047" xlink:href="#DejaVuSans-48"/>
       <use x="127.246094" xlink:href="#DejaVuSans-50"/>
       <use x="190.869141" xlink:href="#DejaVuSans-48"/>
       <use x="254.492188" xlink:href="#DejaVuSans-45"/>
       <use x="290.576172" xlink:href="#DejaVuSans-48"/>
       <use x="354.199219" xlink:href="#DejaVuSans-53"/>
       <use x="417.822266" xlink:href="#DejaVuSans-45"/>
       <use x="453.90625" xlink:href="#DejaVuSans-48"/>
       <use x="517.529297" xlink:href="#DejaVuSans-49"/>
      </g>
     </g>
    </g>
    <g id="xtick_6">
     <g id="line2d_11">
      <path clip-path="url(#p44a39098fc)" d="M 1414.429105 673.718125 
L 1414.429105 22.318125 
" style="fill:none;stroke:#b0b0b0;stroke-linecap:square;stroke-width:0.8;"/>
     </g>
     <g id="line2d_12">
      <g>
       <use style="stroke:#000000;stroke-width:0.8;" x="1414.429105" xlink:href="#m6f66ebdd13" y="673.718125"/>
      </g>
     </g>
     <g id="text_6">
      <!-- 2020-05-15 -->
      <g transform="translate(1385.371293 688.316562)scale(0.1 -0.1)">
       <use xlink:href="#DejaVuSans-50"/>
       <use x="63.623047" xlink:href="#DejaVuSans-48"/>
       <use x="127.246094" xlink:href="#DejaVuSans-50"/>
       <use x="190.869141" xlink:href="#DejaVuSans-48"/>
       <use x="254.492188" xlink:href="#DejaVuSans-45"/>
       <use x="290.576172" xlink:href="#DejaVuSans-48"/>
       <use x="354.199219" xlink:href="#DejaVuSans-53"/>
       <use x="417.822266" xlink:href="#DejaVuSans-45"/>
       <use x="453.90625" xlink:href="#DejaVuSans-49"/>
       <use x="517.529297" xlink:href="#DejaVuSans-53"/>
      </g>
     </g>
    </g>
    <g id="xtick_7">
     <g id="line2d_13">
      <path clip-path="url(#p44a39098fc)" d="M 1682.404657 673.718125 
L 1682.404657 22.318125 
" style="fill:none;stroke:#b0b0b0;stroke-linecap:square;stroke-width:0.8;"/>
     </g>
     <g id="line2d_14">
      <g>
       <use style="stroke:#000000;stroke-width:0.8;" x="1682.404657" xlink:href="#m6f66ebdd13" y="673.718125"/>
      </g>
     </g>
     <g id="text_7">
      <!-- 2020-06-01 -->
      <defs>
       <path d="M 33.015625 40.375 
Q 26.375 40.375 22.484375 35.828125 
Q 18.609375 31.296875 18.609375 23.390625 
Q 18.609375 15.53125 22.484375 10.953125 
Q 26.375 6.390625 33.015625 6.390625 
Q 39.65625 6.390625 43.53125 10.953125 
Q 47.40625 15.53125 47.40625 23.390625 
Q 47.40625 31.296875 43.53125 35.828125 
Q 39.65625 40.375 33.015625 40.375 
z
M 52.59375 71.296875 
L 52.59375 62.3125 
Q 48.875 64.0625 45.09375 64.984375 
Q 41.3125 65.921875 37.59375 65.921875 
Q 27.828125 65.921875 22.671875 59.328125 
Q 17.53125 52.734375 16.796875 39.40625 
Q 19.671875 43.65625 24.015625 45.921875 
Q 28.375 48.1875 33.59375 48.1875 
Q 44.578125 48.1875 50.953125 41.515625 
Q 57.328125 34.859375 57.328125 23.390625 
Q 57.328125 12.15625 50.6875 5.359375 
Q 44.046875 -1.421875 33.015625 -1.421875 
Q 20.359375 -1.421875 13.671875 8.265625 
Q 6.984375 17.96875 6.984375 36.375 
Q 6.984375 53.65625 15.1875 63.9375 
Q 23.390625 74.21875 37.203125 74.21875 
Q 40.921875 74.21875 44.703125 73.484375 
Q 48.484375 72.75 52.59375 71.296875 
z
" id="DejaVuSans-54"/>
      </defs>
      <g transform="translate(1653.346845 688.316562)scale(0.1 -0.1)">
       <use xlink:href="#DejaVuSans-50"/>
       <use x="63.623047" xlink:href="#DejaVuSans-48"/>
       <use x="127.246094" xlink:href="#DejaVuSans-50"/>
       <use x="190.869141" xlink:href="#DejaVuSans-48"/>
       <use x="254.492188" xlink:href="#DejaVuSans-45"/>
       <use x="290.576172" xlink:href="#DejaVuSans-48"/>
       <use x="354.199219" xlink:href="#DejaVuSans-54"/>
       <use x="417.822266" xlink:href="#DejaVuSans-45"/>
       <use x="453.90625" xlink:href="#DejaVuSans-48"/>
       <use x="517.529297" xlink:href="#DejaVuSans-49"/>
      </g>
     </g>
    </g>
    <g id="text_8">
     <!-- Date -->
     <defs>
      <path d="M 19.671875 64.796875 
L 19.671875 8.109375 
L 31.59375 8.109375 
Q 46.6875 8.109375 53.6875 14.9375 
Q 60.6875 21.78125 60.6875 36.53125 
Q 60.6875 51.171875 53.6875 57.984375 
Q 46.6875 64.796875 31.59375 64.796875 
z
M 9.8125 72.90625 
L 30.078125 72.90625 
Q 51.265625 72.90625 61.171875 64.09375 
Q 71.09375 55.28125 71.09375 36.53125 
Q 71.09375 17.671875 61.125 8.828125 
Q 51.171875 0 30.078125 0 
L 9.8125 0 
z
" id="DejaVuSans-68"/>
      <path d="M 34.28125 27.484375 
Q 23.390625 27.484375 19.1875 25 
Q 14.984375 22.515625 14.984375 16.5 
Q 14.984375 11.71875 18.140625 8.90625 
Q 21.296875 6.109375 26.703125 6.109375 
Q 34.1875 6.109375 38.703125 11.40625 
Q 43.21875 16.703125 43.21875 25.484375 
L 43.21875 27.484375 
z
M 52.203125 31.203125 
L 52.203125 0 
L 43.21875 0 
L 43.21875 8.296875 
Q 40.140625 3.328125 35.546875 0.953125 
Q 30.953125 -1.421875 24.3125 -1.421875 
Q 15.921875 -1.421875 10.953125 3.296875 
Q 6 8.015625 6 15.921875 
Q 6 25.140625 12.171875 29.828125 
Q 18.359375 34.515625 30.609375 34.515625 
L 43.21875 34.515625 
L 43.21875 35.40625 
Q 43.21875 41.609375 39.140625 45 
Q 35.0625 48.390625 27.6875 48.390625 
Q 23 48.390625 18.546875 47.265625 
Q 14.109375 46.140625 10.015625 43.890625 
L 10.015625 52.203125 
Q 14.9375 54.109375 19.578125 55.046875 
Q 24.21875 56 28.609375 56 
Q 40.484375 56 46.34375 49.84375 
Q 52.203125 43.703125 52.203125 31.203125 
z
" id="DejaVuSans-97"/>
      <path d="M 18.3125 70.21875 
L 18.3125 54.6875 
L 36.8125 54.6875 
L 36.8125 47.703125 
L 18.3125 47.703125 
L 18.3125 18.015625 
Q 18.3125 11.328125 20.140625 9.421875 
Q 21.96875 7.515625 27.59375 7.515625 
L 36.8125 7.515625 
L 36.8125 0 
L 27.59375 0 
Q 17.1875 0 13.234375 3.875 
Q 9.28125 7.765625 9.28125 18.015625 
L 9.28125 47.703125 
L 2.6875 47.703125 
L 2.6875 54.6875 
L 9.28125 54.6875 
L 9.28125 70.21875 
z
" id="DejaVuSans-116"/>
      <path d="M 56.203125 29.59375 
L 56.203125 25.203125 
L 14.890625 25.203125 
Q 15.484375 15.921875 20.484375 11.0625 
Q 25.484375 6.203125 34.421875 6.203125 
Q 39.59375 6.203125 44.453125 7.46875 
Q 49.3125 8.734375 54.109375 11.28125 
L 54.109375 2.78125 
Q 49.265625 0.734375 44.1875 -0.34375 
Q 39.109375 -1.421875 33.890625 -1.421875 
Q 20.796875 -1.421875 13.15625 6.1875 
Q 5.515625 13.8125 5.515625 26.8125 
Q 5.515625 40.234375 12.765625 48.109375 
Q 20.015625 56 32.328125 56 
Q 43.359375 56 49.78125 48.890625 
Q 56.203125 41.796875 56.203125 29.59375 
z
M 47.21875 32.234375 
Q 47.125 39.59375 43.09375 43.984375 
Q 39.0625 48.390625 32.421875 48.390625 
Q 24.90625 48.390625 20.390625 44.140625 
Q 15.875 39.890625 15.1875 32.171875 
z
" id="DejaVuSans-101"/>
     </defs>
     <g transform="translate(858.645585 701.994687)scale(0.1 -0.1)">
      <use xlink:href="#DejaVuSans-68"/>
      <use x="77.001953" xlink:href="#DejaVuSans-97"/>
      <use x="138.28125" xlink:href="#DejaVuSans-116"/>
      <use x="177.490234" xlink:href="#DejaVuSans-101"/>
     </g>
    </g>
   </g>
   <g id="matplotlib.axis_2">
    <g id="ytick_1">
     <g id="line2d_15">
      <path clip-path="url(#p44a39098fc)" d="M 46.965625 643.413064 
L 1694.227108 643.413064 
" style="fill:none;stroke:#b0b0b0;stroke-linecap:square;stroke-width:0.8;"/>
     </g>
     <g id="line2d_16">
      <defs>
       <path d="M 0 0 
L -3.5 0 
" id="m2eeac653e6" style="stroke:#000000;stroke-width:0.8;"/>
      </defs>
      <g>
       <use style="stroke:#000000;stroke-width:0.8;" x="46.965625" xlink:href="#m2eeac653e6" y="643.413064"/>
      </g>
     </g>
     <g id="text_9">
      <!-- 0 -->
      <g transform="translate(33.603125 647.212283)scale(0.1 -0.1)">
       <use xlink:href="#DejaVuSans-48"/>
      </g>
     </g>
    </g>
    <g id="ytick_2">
     <g id="line2d_17">
      <path clip-path="url(#p44a39098fc)" d="M 46.965625 535.156267 
L 1694.227108 535.156267 
" style="fill:none;stroke:#b0b0b0;stroke-linecap:square;stroke-width:0.8;"/>
     </g>
     <g id="line2d_18">
      <g>
       <use style="stroke:#000000;stroke-width:0.8;" x="46.965625" xlink:href="#m2eeac653e6" y="535.156267"/>
      </g>
     </g>
     <g id="text_10">
      <!-- 100 -->
      <g transform="translate(20.878125 538.955486)scale(0.1 -0.1)">
       <use xlink:href="#DejaVuSans-49"/>
       <use x="63.623047" xlink:href="#DejaVuSans-48"/>
       <use x="127.246094" xlink:href="#DejaVuSans-48"/>
      </g>
     </g>
    </g>
    <g id="ytick_3">
     <g id="line2d_19">
      <path clip-path="url(#p44a39098fc)" d="M 46.965625 426.899471 
L 1694.227108 426.899471 
" style="fill:none;stroke:#b0b0b0;stroke-linecap:square;stroke-width:0.8;"/>
     </g>
     <g id="line2d_20">
      <g>
       <use style="stroke:#000000;stroke-width:0.8;" x="46.965625" xlink:href="#m2eeac653e6" y="426.899471"/>
      </g>
     </g>
     <g id="text_11">
      <!-- 200 -->
      <g transform="translate(20.878125 430.698689)scale(0.1 -0.1)">
       <use xlink:href="#DejaVuSans-50"/>
       <use x="63.623047" xlink:href="#DejaVuSans-48"/>
       <use x="127.246094" xlink:href="#DejaVuSans-48"/>
      </g>
     </g>
    </g>
    <g id="ytick_4">
     <g id="line2d_21">
      <path clip-path="url(#p44a39098fc)" d="M 46.965625 318.642674 
L 1694.227108 318.642674 
" style="fill:none;stroke:#b0b0b0;stroke-linecap:square;stroke-width:0.8;"/>
     </g>
     <g id="line2d_22">
      <g>
       <use style="stroke:#000000;stroke-width:0.8;" x="46.965625" xlink:href="#m2eeac653e6" y="318.642674"/>
      </g>
     </g>
     <g id="text_12">
      <!-- 300 -->
      <g transform="translate(20.878125 322.441892)scale(0.1 -0.1)">
       <use xlink:href="#DejaVuSans-51"/>
       <use x="63.623047" xlink:href="#DejaVuSans-48"/>
       <use x="127.246094" xlink:href="#DejaVuSans-48"/>
      </g>
     </g>
    </g>
    <g id="ytick_5">
     <g id="line2d_23">
      <path clip-path="url(#p44a39098fc)" d="M 46.965625 210.385877 
L 1694.227108 210.385877 
" style="fill:none;stroke:#b0b0b0;stroke-linecap:square;stroke-width:0.8;"/>
     </g>
     <g id="line2d_24">
      <g>
       <use style="stroke:#000000;stroke-width:0.8;" x="46.965625" xlink:href="#m2eeac653e6" y="210.385877"/>
      </g>
     </g>
     <g id="text_13">
      <!-- 400 -->
      <g transform="translate(20.878125 214.185096)scale(0.1 -0.1)">
       <use xlink:href="#DejaVuSans-52"/>
       <use x="63.623047" xlink:href="#DejaVuSans-48"/>
       <use x="127.246094" xlink:href="#DejaVuSans-48"/>
      </g>
     </g>
    </g>
    <g id="ytick_6">
     <g id="line2d_25">
      <path clip-path="url(#p44a39098fc)" d="M 46.965625 102.12908 
L 1694.227108 102.12908 
" style="fill:none;stroke:#b0b0b0;stroke-linecap:square;stroke-width:0.8;"/>
     </g>
     <g id="line2d_26">
      <g>
       <use style="stroke:#000000;stroke-width:0.8;" x="46.965625" xlink:href="#m2eeac653e6" y="102.12908"/>
      </g>
     </g>
     <g id="text_14">
      <!-- 500 -->
      <g transform="translate(20.878125 105.928299)scale(0.1 -0.1)">
       <use xlink:href="#DejaVuSans-53"/>
       <use x="63.623047" xlink:href="#DejaVuSans-48"/>
       <use x="127.246094" xlink:href="#DejaVuSans-48"/>
      </g>
     </g>
    </g>
    <g id="text_15">
     <!-- Number of CoV-19 Cases per Million -->
     <defs>
      <path d="M 9.8125 72.90625 
L 23.09375 72.90625 
L 55.421875 11.921875 
L 55.421875 72.90625 
L 64.984375 72.90625 
L 64.984375 0 
L 51.703125 0 
L 19.390625 60.984375 
L 19.390625 0 
L 9.8125 0 
z
" id="DejaVuSans-78"/>
      <path d="M 8.5 21.578125 
L 8.5 54.6875 
L 17.484375 54.6875 
L 17.484375 21.921875 
Q 17.484375 14.15625 20.5 10.265625 
Q 23.53125 6.390625 29.59375 6.390625 
Q 36.859375 6.390625 41.078125 11.03125 
Q 45.3125 15.671875 45.3125 23.6875 
L 45.3125 54.6875 
L 54.296875 54.6875 
L 54.296875 0 
L 45.3125 0 
L 45.3125 8.40625 
Q 42.046875 3.421875 37.71875 1 
Q 33.40625 -1.421875 27.6875 -1.421875 
Q 18.265625 -1.421875 13.375 4.4375 
Q 8.5 10.296875 8.5 21.578125 
z
M 31.109375 56 
z
" id="DejaVuSans-117"/>
      <path d="M 52 44.1875 
Q 55.375 50.25 60.0625 53.125 
Q 64.75 56 71.09375 56 
Q 79.640625 56 84.28125 50.015625 
Q 88.921875 44.046875 88.921875 33.015625 
L 88.921875 0 
L 79.890625 0 
L 79.890625 32.71875 
Q 79.890625 40.578125 77.09375 44.375 
Q 74.3125 48.1875 68.609375 48.1875 
Q 61.625 48.1875 57.5625 43.546875 
Q 53.515625 38.921875 53.515625 30.90625 
L 53.515625 0 
L 44.484375 0 
L 44.484375 32.71875 
Q 44.484375 40.625 41.703125 44.40625 
Q 38.921875 48.1875 33.109375 48.1875 
Q 26.21875 48.1875 22.15625 43.53125 
Q 18.109375 38.875 18.109375 30.90625 
L 18.109375 0 
L 9.078125 0 
L 9.078125 54.6875 
L 18.109375 54.6875 
L 18.109375 46.1875 
Q 21.1875 51.21875 25.484375 53.609375 
Q 29.78125 56 35.6875 56 
Q 41.65625 56 45.828125 52.96875 
Q 50 49.953125 52 44.1875 
z
" id="DejaVuSans-109"/>
      <path d="M 48.6875 27.296875 
Q 48.6875 37.203125 44.609375 42.84375 
Q 40.53125 48.484375 33.40625 48.484375 
Q 26.265625 48.484375 22.1875 42.84375 
Q 18.109375 37.203125 18.109375 27.296875 
Q 18.109375 17.390625 22.1875 11.75 
Q 26.265625 6.109375 33.40625 6.109375 
Q 40.53125 6.109375 44.609375 11.75 
Q 48.6875 17.390625 48.6875 27.296875 
z
M 18.109375 46.390625 
Q 20.953125 51.265625 25.265625 53.625 
Q 29.59375 56 35.59375 56 
Q 45.5625 56 51.78125 48.09375 
Q 58.015625 40.1875 58.015625 27.296875 
Q 58.015625 14.40625 51.78125 6.484375 
Q 45.5625 -1.421875 35.59375 -1.421875 
Q 29.59375 -1.421875 25.265625 0.953125 
Q 20.953125 3.328125 18.109375 8.203125 
L 18.109375 0 
L 9.078125 0 
L 9.078125 75.984375 
L 18.109375 75.984375 
z
" id="DejaVuSans-98"/>
      <path d="M 41.109375 46.296875 
Q 39.59375 47.171875 37.8125 47.578125 
Q 36.03125 48 33.890625 48 
Q 26.265625 48 22.1875 43.046875 
Q 18.109375 38.09375 18.109375 28.8125 
L 18.109375 0 
L 9.078125 0 
L 9.078125 54.6875 
L 18.109375 54.6875 
L 18.109375 46.1875 
Q 20.953125 51.171875 25.484375 53.578125 
Q 30.03125 56 36.53125 56 
Q 37.453125 56 38.578125 55.875 
Q 39.703125 55.765625 41.0625 55.515625 
z
" id="DejaVuSans-114"/>
      <path id="DejaVuSans-32"/>
      <path d="M 30.609375 48.390625 
Q 23.390625 48.390625 19.1875 42.75 
Q 14.984375 37.109375 14.984375 27.296875 
Q 14.984375 17.484375 19.15625 11.84375 
Q 23.34375 6.203125 30.609375 6.203125 
Q 37.796875 6.203125 41.984375 11.859375 
Q 46.1875 17.53125 46.1875 27.296875 
Q 46.1875 37.015625 41.984375 42.703125 
Q 37.796875 48.390625 30.609375 48.390625 
z
M 30.609375 56 
Q 42.328125 56 49.015625 48.375 
Q 55.71875 40.765625 55.71875 27.296875 
Q 55.71875 13.875 49.015625 6.21875 
Q 42.328125 -1.421875 30.609375 -1.421875 
Q 18.84375 -1.421875 12.171875 6.21875 
Q 5.515625 13.875 5.515625 27.296875 
Q 5.515625 40.765625 12.171875 48.375 
Q 18.84375 56 30.609375 56 
z
" id="DejaVuSans-111"/>
      <path d="M 37.109375 75.984375 
L 37.109375 68.5 
L 28.515625 68.5 
Q 23.6875 68.5 21.796875 66.546875 
Q 19.921875 64.59375 19.921875 59.515625 
L 19.921875 54.6875 
L 34.71875 54.6875 
L 34.71875 47.703125 
L 19.921875 47.703125 
L 19.921875 0 
L 10.890625 0 
L 10.890625 47.703125 
L 2.296875 47.703125 
L 2.296875 54.6875 
L 10.890625 54.6875 
L 10.890625 58.5 
Q 10.890625 67.625 15.140625 71.796875 
Q 19.390625 75.984375 28.609375 75.984375 
z
" id="DejaVuSans-102"/>
      <path d="M 64.40625 67.28125 
L 64.40625 56.890625 
Q 59.421875 61.53125 53.78125 63.8125 
Q 48.140625 66.109375 41.796875 66.109375 
Q 29.296875 66.109375 22.65625 58.46875 
Q 16.015625 50.828125 16.015625 36.375 
Q 16.015625 21.96875 22.65625 14.328125 
Q 29.296875 6.6875 41.796875 6.6875 
Q 48.140625 6.6875 53.78125 8.984375 
Q 59.421875 11.28125 64.40625 15.921875 
L 64.40625 5.609375 
Q 59.234375 2.09375 53.4375 0.328125 
Q 47.65625 -1.421875 41.21875 -1.421875 
Q 24.65625 -1.421875 15.125 8.703125 
Q 5.609375 18.84375 5.609375 36.375 
Q 5.609375 53.953125 15.125 64.078125 
Q 24.65625 74.21875 41.21875 74.21875 
Q 47.75 74.21875 53.53125 72.484375 
Q 59.328125 70.75 64.40625 67.28125 
z
" id="DejaVuSans-67"/>
      <path d="M 28.609375 0 
L 0.78125 72.90625 
L 11.078125 72.90625 
L 34.1875 11.53125 
L 57.328125 72.90625 
L 67.578125 72.90625 
L 39.796875 0 
z
" id="DejaVuSans-86"/>
      <path d="M 10.984375 1.515625 
L 10.984375 10.5 
Q 14.703125 8.734375 18.5 7.8125 
Q 22.3125 6.890625 25.984375 6.890625 
Q 35.75 6.890625 40.890625 13.453125 
Q 46.046875 20.015625 46.78125 33.40625 
Q 43.953125 29.203125 39.59375 26.953125 
Q 35.25 24.703125 29.984375 24.703125 
Q 19.046875 24.703125 12.671875 31.3125 
Q 6.296875 37.9375 6.296875 49.421875 
Q 6.296875 60.640625 12.9375 67.421875 
Q 19.578125 74.21875 30.609375 74.21875 
Q 43.265625 74.21875 49.921875 64.515625 
Q 56.59375 54.828125 56.59375 36.375 
Q 56.59375 19.140625 48.40625 8.859375 
Q 40.234375 -1.421875 26.421875 -1.421875 
Q 22.703125 -1.421875 18.890625 -0.6875 
Q 15.09375 0.046875 10.984375 1.515625 
z
M 30.609375 32.421875 
Q 37.25 32.421875 41.125 36.953125 
Q 45.015625 41.5 45.015625 49.421875 
Q 45.015625 57.28125 41.125 61.84375 
Q 37.25 66.40625 30.609375 66.40625 
Q 23.96875 66.40625 20.09375 61.84375 
Q 16.21875 57.28125 16.21875 49.421875 
Q 16.21875 41.5 20.09375 36.953125 
Q 23.96875 32.421875 30.609375 32.421875 
z
" id="DejaVuSans-57"/>
      <path d="M 44.28125 53.078125 
L 44.28125 44.578125 
Q 40.484375 46.53125 36.375 47.5 
Q 32.28125 48.484375 27.875 48.484375 
Q 21.1875 48.484375 17.84375 46.4375 
Q 14.5 44.390625 14.5 40.28125 
Q 14.5 37.15625 16.890625 35.375 
Q 19.28125 33.59375 26.515625 31.984375 
L 29.59375 31.296875 
Q 39.15625 29.25 43.1875 25.515625 
Q 47.21875 21.78125 47.21875 15.09375 
Q 47.21875 7.46875 41.1875 3.015625 
Q 35.15625 -1.421875 24.609375 -1.421875 
Q 20.21875 -1.421875 15.453125 -0.5625 
Q 10.6875 0.296875 5.421875 2 
L 5.421875 11.28125 
Q 10.40625 8.6875 15.234375 7.390625 
Q 20.0625 6.109375 24.8125 6.109375 
Q 31.15625 6.109375 34.5625 8.28125 
Q 37.984375 10.453125 37.984375 14.40625 
Q 37.984375 18.0625 35.515625 20.015625 
Q 33.0625 21.96875 24.703125 23.78125 
L 21.578125 24.515625 
Q 13.234375 26.265625 9.515625 29.90625 
Q 5.8125 33.546875 5.8125 39.890625 
Q 5.8125 47.609375 11.28125 51.796875 
Q 16.75 56 26.8125 56 
Q 31.78125 56 36.171875 55.265625 
Q 40.578125 54.546875 44.28125 53.078125 
z
" id="DejaVuSans-115"/>
      <path d="M 18.109375 8.203125 
L 18.109375 -20.796875 
L 9.078125 -20.796875 
L 9.078125 54.6875 
L 18.109375 54.6875 
L 18.109375 46.390625 
Q 20.953125 51.265625 25.265625 53.625 
Q 29.59375 56 35.59375 56 
Q 45.5625 56 51.78125 48.09375 
Q 58.015625 40.1875 58.015625 27.296875 
Q 58.015625 14.40625 51.78125 6.484375 
Q 45.5625 -1.421875 35.59375 -1.421875 
Q 29.59375 -1.421875 25.265625 0.953125 
Q 20.953125 3.328125 18.109375 8.203125 
z
M 48.6875 27.296875 
Q 48.6875 37.203125 44.609375 42.84375 
Q 40.53125 48.484375 33.40625 48.484375 
Q 26.265625 48.484375 22.1875 42.84375 
Q 18.109375 37.203125 18.109375 27.296875 
Q 18.109375 17.390625 22.1875 11.75 
Q 26.265625 6.109375 33.40625 6.109375 
Q 40.53125 6.109375 44.609375 11.75 
Q 48.6875 17.390625 48.6875 27.296875 
z
" id="DejaVuSans-112"/>
      <path d="M 9.8125 72.90625 
L 24.515625 72.90625 
L 43.109375 23.296875 
L 61.8125 72.90625 
L 76.515625 72.90625 
L 76.515625 0 
L 66.890625 0 
L 66.890625 64.015625 
L 48.09375 14.015625 
L 38.1875 14.015625 
L 19.390625 64.015625 
L 19.390625 0 
L 9.8125 0 
z
" id="DejaVuSans-77"/>
      <path d="M 9.421875 54.6875 
L 18.40625 54.6875 
L 18.40625 0 
L 9.421875 0 
z
M 9.421875 75.984375 
L 18.40625 75.984375 
L 18.40625 64.59375 
L 9.421875 64.59375 
z
" id="DejaVuSans-105"/>
      <path d="M 9.421875 75.984375 
L 18.40625 75.984375 
L 18.40625 0 
L 9.421875 0 
z
" id="DejaVuSans-108"/>
      <path d="M 54.890625 33.015625 
L 54.890625 0 
L 45.90625 0 
L 45.90625 32.71875 
Q 45.90625 40.484375 42.875 44.328125 
Q 39.84375 48.1875 33.796875 48.1875 
Q 26.515625 48.1875 22.3125 43.546875 
Q 18.109375 38.921875 18.109375 30.90625 
L 18.109375 0 
L 9.078125 0 
L 9.078125 54.6875 
L 18.109375 54.6875 
L 18.109375 46.1875 
Q 21.34375 51.125 25.703125 53.5625 
Q 30.078125 56 35.796875 56 
Q 45.21875 56 50.046875 50.171875 
Q 54.890625 44.34375 54.890625 33.015625 
z
" id="DejaVuSans-110"/>
     </defs>
     <g transform="translate(14.798438 437.95875)rotate(-90)scale(0.1 -0.1)">
      <use xlink:href="#DejaVuSans-78"/>
      <use x="74.804688" xlink:href="#DejaVuSans-117"/>
      <use x="138.183594" xlink:href="#DejaVuSans-109"/>
      <use x="235.595703" xlink:href="#DejaVuSans-98"/>
      <use x="299.072266" xlink:href="#DejaVuSans-101"/>
      <use x="360.595703" xlink:href="#DejaVuSans-114"/>
      <use x="401.708984" xlink:href="#DejaVuSans-32"/>
      <use x="433.496094" xlink:href="#DejaVuSans-111"/>
      <use x="494.677734" xlink:href="#DejaVuSans-102"/>
      <use x="529.882812" xlink:href="#DejaVuSans-32"/>
      <use x="561.669922" xlink:href="#DejaVuSans-67"/>
      <use x="631.494141" xlink:href="#DejaVuSans-111"/>
      <use x="692.675781" xlink:href="#DejaVuSans-86"/>
      <use x="755.208984" xlink:href="#DejaVuSans-45"/>
      <use x="791.292969" xlink:href="#DejaVuSans-49"/>
      <use x="854.916016" xlink:href="#DejaVuSans-57"/>
      <use x="918.539062" xlink:href="#DejaVuSans-32"/>
      <use x="950.326172" xlink:href="#DejaVuSans-67"/>
      <use x="1020.150391" xlink:href="#DejaVuSans-97"/>
      <use x="1081.429688" xlink:href="#DejaVuSans-115"/>
      <use x="1133.529297" xlink:href="#DejaVuSans-101"/>
      <use x="1195.052734" xlink:href="#DejaVuSans-115"/>
      <use x="1247.152344" xlink:href="#DejaVuSans-32"/>
      <use x="1278.939453" xlink:href="#DejaVuSans-112"/>
      <use x="1342.416016" xlink:href="#DejaVuSans-101"/>
      <use x="1403.939453" xlink:href="#DejaVuSans-114"/>
      <use x="1445.052734" xlink:href="#DejaVuSans-32"/>
      <use x="1476.839844" xlink:href="#DejaVuSans-77"/>
      <use x="1563.119141" xlink:href="#DejaVuSans-105"/>
      <use x="1590.902344" xlink:href="#DejaVuSans-108"/>
      <use x="1618.685547" xlink:href="#DejaVuSans-108"/>
      <use x="1646.46875" xlink:href="#DejaVuSans-105"/>
      <use x="1674.251953" xlink:href="#DejaVuSans-111"/>
      <use x="1735.433594" xlink:href="#DejaVuSans-110"/>
     </g>
    </g>
   </g>
   <g id="line2d_27">
    <path clip-path="url(#p44a39098fc)" d="M 121.841147 644.049131 
L 137.604415 644.049131 
L 153.367683 644.049131 
L 169.13095 644.049131 
L 184.894218 644.049131 
L 200.657486 644.049131 
L 216.420754 644.049131 
L 232.184021 643.416035 
L 247.947289 643.741496 
L 263.710557 643.94628 
L 279.473825 643.585658 
L 295.237093 643.744946 
L 311.00036 644.017959 
L 326.763628 643.981461 
L 342.526896 644.040406 
L 358.290164 643.946377 
L 374.053431 643.993144 
L 389.816699 644.036943 
L 405.579967 643.935418 
L 421.343235 644.109034 
L 437.106503 643.942474 
L 452.86977 643.572276 
L 468.633038 643.672994 
L 484.396306 643.635487 
L 500.159574 643.471434 
L 515.922842 643.484907 
L 531.686109 643.607926 
L 547.449377 643.463203 
L 563.212645 643.086531 
L 578.975913 642.767028 
L 594.73918 642.689104 
L 610.502448 642.271445 
L 626.265716 642.103597 
L 642.028984 641.935953 
L 657.792252 641.104671 
L 673.555519 640.493851 
L 689.318787 641.324262 
L 705.082055 640.681656 
L 720.845323 640.979937 
L 736.60859 639.346079 
L 752.371858 630.503547 
L 768.135126 628.636197 
L 783.898394 622.846003 
L 799.661662 625.966055 
L 815.424929 625.443271 
L 831.188197 625.467049 
L 846.951465 621.966405 
L 862.714733 616.869503 
L 878.478001 614.939644 
L 894.241268 614.415218 
L 910.004536 609.907405 
L 925.767804 610.949484 
L 941.531072 606.599681 
L 957.294339 600.688534 
L 973.057607 592.679904 
L 988.820875 589.436867 
L 1004.584143 588.016841 
L 1020.347411 582.539037 
L 1036.110678 584.328455 
L 1051.873946 580.650401 
L 1067.637214 567.804727 
L 1083.400482 561.819569 
L 1099.163749 555.539688 
L 1114.927017 544.503725 
L 1130.690285 539.235449 
L 1146.453553 540.334488 
L 1162.216821 533.367496 
L 1177.980088 518.39222 
L 1193.743356 511.80743 
L 1209.506624 501.580772 
L 1225.269892 490.756921 
L 1241.03316 481.625074 
L 1256.796427 473.610275 
L 1272.559695 466.528939 
L 1288.322963 465.996811 
L 1304.086231 453.675832 
L 1319.849498 439.138471 
L 1335.612766 429.097187 
L 1351.376034 424.585911 
L 1367.139302 404.154836 
L 1382.90257 394.260906 
L 1398.665837 385.398372 
L 1414.429105 365.599623 
L 1430.192373 347.201623 
L 1445.955641 330.54107 
L 1461.718908 323.082186 
L 1477.482176 292.656931 
L 1493.245444 268.978143 
L 1509.008712 260.819231 
L 1524.77198 233.398951 
L 1540.535247 194.539737 
L 1556.298515 164.519541 
L 1572.061783 149.927403 
L 1587.825051 109.541911 
L 1603.588319 74.51292 
L 1619.351586 51.927216 
" style="fill:none;stroke:#6495ed;stroke-linecap:square;stroke-width:1.5;"/>
   </g>
   <g id="patch_3">
    <path d="M 46.965625 673.718125 
L 46.965625 22.318125 
" style="fill:none;stroke:#000000;stroke-linecap:square;stroke-linejoin:miter;stroke-width:0.8;"/>
   </g>
   <g id="patch_4">
    <path d="M 1694.227108 673.718125 
L 1694.227108 22.318125 
" style="fill:none;stroke:#000000;stroke-linecap:square;stroke-linejoin:miter;stroke-width:0.8;"/>
   </g>
   <g id="patch_5">
    <path d="M 46.965625 673.718125 
L 1694.227108 673.718125 
" style="fill:none;stroke:#000000;stroke-linecap:square;stroke-linejoin:miter;stroke-width:0.8;"/>
   </g>
   <g id="patch_6">
    <path d="M 46.965625 22.318125 
L 1694.227108 22.318125 
" style="fill:none;stroke:#000000;stroke-linecap:square;stroke-linejoin:miter;stroke-width:0.8;"/>
   </g>
   <g id="text_16">
    <!-- Evolution of CoV-19 Cases per Million : Neural network - Multi-layer Perceptron -->
    <defs>
     <path d="M 9.8125 72.90625 
L 55.90625 72.90625 
L 55.90625 64.59375 
L 19.671875 64.59375 
L 19.671875 43.015625 
L 54.390625 43.015625 
L 54.390625 34.71875 
L 19.671875 34.71875 
L 19.671875 8.296875 
L 56.78125 8.296875 
L 56.78125 0 
L 9.8125 0 
z
" id="DejaVuSans-69"/>
     <path d="M 2.984375 54.6875 
L 12.5 54.6875 
L 29.59375 8.796875 
L 46.6875 54.6875 
L 56.203125 54.6875 
L 35.6875 0 
L 23.484375 0 
z
" id="DejaVuSans-118"/>
     <path d="M 11.71875 12.40625 
L 22.015625 12.40625 
L 22.015625 0 
L 11.71875 0 
z
M 11.71875 51.703125 
L 22.015625 51.703125 
L 22.015625 39.3125 
L 11.71875 39.3125 
z
" id="DejaVuSans-58"/>
     <path d="M 4.203125 54.6875 
L 13.1875 54.6875 
L 24.421875 12.015625 
L 35.59375 54.6875 
L 46.1875 54.6875 
L 57.421875 12.015625 
L 68.609375 54.6875 
L 77.59375 54.6875 
L 63.28125 0 
L 52.6875 0 
L 40.921875 44.828125 
L 29.109375 0 
L 18.5 0 
z
" id="DejaVuSans-119"/>
     <path d="M 9.078125 75.984375 
L 18.109375 75.984375 
L 18.109375 31.109375 
L 44.921875 54.6875 
L 56.390625 54.6875 
L 27.390625 29.109375 
L 57.625 0 
L 45.90625 0 
L 18.109375 26.703125 
L 18.109375 0 
L 9.078125 0 
z
" id="DejaVuSans-107"/>
     <path d="M 32.171875 -5.078125 
Q 28.375 -14.84375 24.75 -17.8125 
Q 21.140625 -20.796875 15.09375 -20.796875 
L 7.90625 -20.796875 
L 7.90625 -13.28125 
L 13.1875 -13.28125 
Q 16.890625 -13.28125 18.9375 -11.515625 
Q 21 -9.765625 23.484375 -3.21875 
L 25.09375 0.875 
L 2.984375 54.6875 
L 12.5 54.6875 
L 29.59375 11.921875 
L 46.6875 54.6875 
L 56.203125 54.6875 
z
" id="DejaVuSans-121"/>
     <path d="M 19.671875 64.796875 
L 19.671875 37.40625 
L 32.078125 37.40625 
Q 38.96875 37.40625 42.71875 40.96875 
Q 46.484375 44.53125 46.484375 51.125 
Q 46.484375 57.671875 42.71875 61.234375 
Q 38.96875 64.796875 32.078125 64.796875 
z
M 9.8125 72.90625 
L 32.078125 72.90625 
Q 44.34375 72.90625 50.609375 67.359375 
Q 56.890625 61.8125 56.890625 51.125 
Q 56.890625 40.328125 50.609375 34.8125 
Q 44.34375 29.296875 32.078125 29.296875 
L 19.671875 29.296875 
L 19.671875 0 
L 9.8125 0 
z
" id="DejaVuSans-80"/>
     <path d="M 48.78125 52.59375 
L 48.78125 44.1875 
Q 44.96875 46.296875 41.140625 47.34375 
Q 37.3125 48.390625 33.40625 48.390625 
Q 24.65625 48.390625 19.8125 42.84375 
Q 14.984375 37.3125 14.984375 27.296875 
Q 14.984375 17.28125 19.8125 11.734375 
Q 24.65625 6.203125 33.40625 6.203125 
Q 37.3125 6.203125 41.140625 7.25 
Q 44.96875 8.296875 48.78125 10.40625 
L 48.78125 2.09375 
Q 45.015625 0.34375 40.984375 -0.53125 
Q 36.96875 -1.421875 32.421875 -1.421875 
Q 20.0625 -1.421875 12.78125 6.34375 
Q 5.515625 14.109375 5.515625 27.296875 
Q 5.515625 40.671875 12.859375 48.328125 
Q 20.21875 56 33.015625 56 
Q 37.15625 56 41.109375 55.140625 
Q 45.0625 54.296875 48.78125 52.59375 
z
" id="DejaVuSans-99"/>
    </defs>
    <g transform="translate(634.743867 16.318125)scale(0.12 -0.12)">
     <use xlink:href="#DejaVuSans-69"/>
     <use x="63.183594" xlink:href="#DejaVuSans-118"/>
     <use x="122.363281" xlink:href="#DejaVuSans-111"/>
     <use x="183.544922" xlink:href="#DejaVuSans-108"/>
     <use x="211.328125" xlink:href="#DejaVuSans-117"/>
     <use x="274.707031" xlink:href="#DejaVuSans-116"/>
     <use x="313.916016" xlink:href="#DejaVuSans-105"/>
     <use x="341.699219" xlink:href="#DejaVuSans-111"/>
     <use x="402.880859" xlink:href="#DejaVuSans-110"/>
     <use x="466.259766" xlink:href="#DejaVuSans-32"/>
     <use x="498.046875" xlink:href="#DejaVuSans-111"/>
     <use x="559.228516" xlink:href="#DejaVuSans-102"/>
     <use x="594.433594" xlink:href="#DejaVuSans-32"/>
     <use x="626.220703" xlink:href="#DejaVuSans-67"/>
     <use x="696.044922" xlink:href="#DejaVuSans-111"/>
     <use x="757.226562" xlink:href="#DejaVuSans-86"/>
     <use x="819.759766" xlink:href="#DejaVuSans-45"/>
     <use x="855.84375" xlink:href="#DejaVuSans-49"/>
     <use x="919.466797" xlink:href="#DejaVuSans-57"/>
     <use x="983.089844" xlink:href="#DejaVuSans-32"/>
     <use x="1014.876953" xlink:href="#DejaVuSans-67"/>
     <use x="1084.701172" xlink:href="#DejaVuSans-97"/>
     <use x="1145.980469" xlink:href="#DejaVuSans-115"/>
     <use x="1198.080078" xlink:href="#DejaVuSans-101"/>
     <use x="1259.603516" xlink:href="#DejaVuSans-115"/>
     <use x="1311.703125" xlink:href="#DejaVuSans-32"/>
     <use x="1343.490234" xlink:href="#DejaVuSans-112"/>
     <use x="1406.966797" xlink:href="#DejaVuSans-101"/>
     <use x="1468.490234" xlink:href="#DejaVuSans-114"/>
     <use x="1509.603516" xlink:href="#DejaVuSans-32"/>
     <use x="1541.390625" xlink:href="#DejaVuSans-77"/>
     <use x="1627.669922" xlink:href="#DejaVuSans-105"/>
     <use x="1655.453125" xlink:href="#DejaVuSans-108"/>
     <use x="1683.236328" xlink:href="#DejaVuSans-108"/>
     <use x="1711.019531" xlink:href="#DejaVuSans-105"/>
     <use x="1738.802734" xlink:href="#DejaVuSans-111"/>
     <use x="1799.984375" xlink:href="#DejaVuSans-110"/>
     <use x="1863.363281" xlink:href="#DejaVuSans-32"/>
     <use x="1895.150391" xlink:href="#DejaVuSans-58"/>
     <use x="1928.841797" xlink:href="#DejaVuSans-32"/>
     <use x="1960.628906" xlink:href="#DejaVuSans-78"/>
     <use x="2035.433594" xlink:href="#DejaVuSans-101"/>
     <use x="2096.957031" xlink:href="#DejaVuSans-117"/>
     <use x="2160.335938" xlink:href="#DejaVuSans-114"/>
     <use x="2201.449219" xlink:href="#DejaVuSans-97"/>
     <use x="2262.728516" xlink:href="#DejaVuSans-108"/>
     <use x="2290.511719" xlink:href="#DejaVuSans-32"/>
     <use x="2322.298828" xlink:href="#DejaVuSans-110"/>
     <use x="2385.677734" xlink:href="#DejaVuSans-101"/>
     <use x="2447.201172" xlink:href="#DejaVuSans-116"/>
     <use x="2486.410156" xlink:href="#DejaVuSans-119"/>
     <use x="2568.197266" xlink:href="#DejaVuSans-111"/>
     <use x="2629.378906" xlink:href="#DejaVuSans-114"/>
     <use x="2670.492188" xlink:href="#DejaVuSans-107"/>
     <use x="2728.402344" xlink:href="#DejaVuSans-32"/>
     <use x="2760.189453" xlink:href="#DejaVuSans-45"/>
     <use x="2796.273438" xlink:href="#DejaVuSans-32"/>
     <use x="2828.060547" xlink:href="#DejaVuSans-77"/>
     <use x="2914.339844" xlink:href="#DejaVuSans-117"/>
     <use x="2977.71875" xlink:href="#DejaVuSans-108"/>
     <use x="3005.501953" xlink:href="#DejaVuSans-116"/>
     <use x="3044.710938" xlink:href="#DejaVuSans-105"/>
     <use x="3072.494141" xlink:href="#DejaVuSans-45"/>
     <use x="3108.578125" xlink:href="#DejaVuSans-108"/>
     <use x="3136.361328" xlink:href="#DejaVuSans-97"/>
     <use x="3197.640625" xlink:href="#DejaVuSans-121"/>
     <use x="3256.820312" xlink:href="#DejaVuSans-101"/>
     <use x="3318.34375" xlink:href="#DejaVuSans-114"/>
     <use x="3359.457031" xlink:href="#DejaVuSans-32"/>
     <use x="3391.244141" xlink:href="#DejaVuSans-80"/>
     <use x="3447.921875" xlink:href="#DejaVuSans-101"/>
     <use x="3509.445312" xlink:href="#DejaVuSans-114"/>
     <use x="3548.308594" xlink:href="#DejaVuSans-99"/>
     <use x="3603.289062" xlink:href="#DejaVuSans-101"/>
     <use x="3664.8125" xlink:href="#DejaVuSans-112"/>
     <use x="3728.289062" xlink:href="#DejaVuSans-116"/>
     <use x="3767.498047" xlink:href="#DejaVuSans-114"/>
     <use x="3806.361328" xlink:href="#DejaVuSans-111"/>
     <use x="3867.542969" xlink:href="#DejaVuSans-110"/>
    </g>
   </g>
   <g id="legend_1">
    <g id="patch_7">
     <path d="M 53.965625 59.674375 
L 201.2375 59.674375 
Q 203.2375 59.674375 203.2375 57.674375 
L 203.2375 29.318125 
Q 203.2375 27.318125 201.2375 27.318125 
L 53.965625 27.318125 
Q 51.965625 27.318125 51.965625 29.318125 
L 51.965625 57.674375 
Q 51.965625 59.674375 53.965625 59.674375 
z
" style="fill:#ffffff;opacity:0.8;stroke:#cccccc;stroke-linejoin:miter;"/>
    </g>
    <g id="line2d_28">
     <path d="M 55.965625 35.416562 
L 75.965625 35.416562 
" style="fill:none;stroke:#6495ed;stroke-linecap:square;stroke-width:1.5;"/>
    </g>
    <g id="line2d_29"/>
    <g id="text_17">
     <!-- Perceptron's prediction -->
     <defs>
      <path d="M 17.921875 72.90625 
L 17.921875 45.796875 
L 9.625 45.796875 
L 9.625 72.90625 
z
" id="DejaVuSans-39"/>
      <path d="M 45.40625 46.390625 
L 45.40625 75.984375 
L 54.390625 75.984375 
L 54.390625 0 
L 45.40625 0 
L 45.40625 8.203125 
Q 42.578125 3.328125 38.25 0.953125 
Q 33.9375 -1.421875 27.875 -1.421875 
Q 17.96875 -1.421875 11.734375 6.484375 
Q 5.515625 14.40625 5.515625 27.296875 
Q 5.515625 40.1875 11.734375 48.09375 
Q 17.96875 56 27.875 56 
Q 33.9375 56 38.25 53.625 
Q 42.578125 51.265625 45.40625 46.390625 
z
M 14.796875 27.296875 
Q 14.796875 17.390625 18.875 11.75 
Q 22.953125 6.109375 30.078125 6.109375 
Q 37.203125 6.109375 41.296875 11.75 
Q 45.40625 17.390625 45.40625 27.296875 
Q 45.40625 37.203125 41.296875 42.84375 
Q 37.203125 48.484375 30.078125 48.484375 
Q 22.953125 48.484375 18.875 42.84375 
Q 14.796875 37.203125 14.796875 27.296875 
z
" id="DejaVuSans-100"/>
     </defs>
     <g transform="translate(83.965625 38.916562)scale(0.1 -0.1)">
      <use xlink:href="#DejaVuSans-80"/>
      <use x="56.677734" xlink:href="#DejaVuSans-101"/>
      <use x="118.201172" xlink:href="#DejaVuSans-114"/>
      <use x="157.064453" xlink:href="#DejaVuSans-99"/>
      <use x="212.044922" xlink:href="#DejaVuSans-101"/>
      <use x="273.568359" xlink:href="#DejaVuSans-112"/>
      <use x="337.044922" xlink:href="#DejaVuSans-116"/>
      <use x="376.253906" xlink:href="#DejaVuSans-114"/>
      <use x="415.117188" xlink:href="#DejaVuSans-111"/>
      <use x="476.298828" xlink:href="#DejaVuSans-110"/>
      <use x="539.677734" xlink:href="#DejaVuSans-39"/>
      <use x="567.167969" xlink:href="#DejaVuSans-115"/>
      <use x="619.267578" xlink:href="#DejaVuSans-32"/>
      <use x="651.054688" xlink:href="#DejaVuSans-112"/>
      <use x="714.53125" xlink:href="#DejaVuSans-114"/>
      <use x="753.394531" xlink:href="#DejaVuSans-101"/>
      <use x="814.917969" xlink:href="#DejaVuSans-100"/>
      <use x="878.394531" xlink:href="#DejaVuSans-105"/>
      <use x="906.177734" xlink:href="#DejaVuSans-99"/>
      <use x="961.158203" xlink:href="#DejaVuSans-116"/>
      <use x="1000.367188" xlink:href="#DejaVuSans-105"/>
      <use x="1028.150391" xlink:href="#DejaVuSans-111"/>
      <use x="1089.332031" xlink:href="#DejaVuSans-110"/>
     </g>
    </g>
    <g id="PathCollection_2">
     <g>
      <use style="fill:#800080;stroke:#800080;" x="65.965625" xlink:href="#ma087328f0c" y="50.969687"/>
     </g>
    </g>
    <g id="text_18">
     <!-- Labeled Data -->
     <defs>
      <path d="M 9.8125 72.90625 
L 19.671875 72.90625 
L 19.671875 8.296875 
L 55.171875 8.296875 
L 55.171875 0 
L 9.8125 0 
z
" id="DejaVuSans-76"/>
     </defs>
     <g transform="translate(83.965625 53.594687)scale(0.1 -0.1)">
      <use xlink:href="#DejaVuSans-76"/>
      <use x="55.712891" xlink:href="#DejaVuSans-97"/>
      <use x="116.992188" xlink:href="#DejaVuSans-98"/>
      <use x="180.46875" xlink:href="#DejaVuSans-101"/>
      <use x="241.992188" xlink:href="#DejaVuSans-108"/>
      <use x="269.775391" xlink:href="#DejaVuSans-101"/>
      <use x="331.298828" xlink:href="#DejaVuSans-100"/>
      <use x="394.775391" xlink:href="#DejaVuSans-32"/>
      <use x="426.5625" xlink:href="#DejaVuSans-68"/>
      <use x="503.564453" xlink:href="#DejaVuSans-97"/>
      <use x="564.84375" xlink:href="#DejaVuSans-116"/>
      <use x="604.052734" xlink:href="#DejaVuSans-97"/>
     </g>
    </g>
   </g>
  </g>
 </g>
 <defs>
  <clipPath id="p44a39098fc">
   <rect height="651.4" width="1647.261483" x="46.965625" y="22.318125"/>
  </clipPath>
 </defs>
</svg>
