<?xml version="1.0" encoding="utf-8" standalone="no"?>
<!DOCTYPE svg PUBLIC "-//W3C//DTD SVG 1.1//EN"
  "http://www.w3.org/Graphics/SVG/1.1/DTD/svg11.dtd">
<!-- Created with matplotlib (https://matplotlib.org/) -->
<svg height="711.274375pt" version="1.1" viewBox="0 0 1715.616154 711.274375" width="1715.616154pt" xmlns="http://www.w3.org/2000/svg" xmlns:xlink="http://www.w3.org/1999/xlink">
 <defs>
  <style type="text/css">
*{stroke-linecap:butt;stroke-linejoin:round;}
  </style>
 </defs>
 <g id="figure_1">
  <g id="patch_1">
   <path d="M -0 711.274375 
L 1715.616154 711.274375 
L 1715.616154 0 
L -0 0 
z
" style="fill:none;"/>
  </g>
  <g id="axes_1">
   <g id="patch_2">
    <path d="M 53.328125 673.718125 
L 1707.555398 673.718125 
L 1707.555398 22.318125 
L 53.328125 22.318125 
z
" style="fill:#ffffff;"/>
   </g>
   <g id="PathCollection_1">
    <defs>
     <path d="M 0 3 
C 0.795609 3 1.55874 2.683901 2.12132 2.12132 
C 2.683901 1.55874 3 0.795609 3 0 
C 3 -0.795609 2.683901 -1.55874 2.12132 -2.12132 
C 1.55874 -2.683901 0.795609 -3 0 -3 
C -0.795609 -3 -1.55874 -2.683901 -2.12132 -2.12132 
C -2.683901 -1.55874 -3 -0.795609 -3 0 
C -3 0.795609 -2.683901 1.55874 -2.12132 2.12132 
C -1.55874 2.683901 -0.795609 3 0 3 
z
" id="m942d7f2753" style="stroke:#ff8c00;"/>
    </defs>
    <g clip-path="url(#pfdaa97fd63)">
     <use style="fill:#ff8c00;stroke:#ff8c00;" x="128.520274" xlink:href="#m942d7f2753" y="644.109034"/>
     <use style="fill:#ff8c00;stroke:#ff8c00;" x="144.185305" xlink:href="#m942d7f2753" y="644.109034"/>
     <use style="fill:#ff8c00;stroke:#ff8c00;" x="159.850336" xlink:href="#m942d7f2753" y="644.109034"/>
     <use style="fill:#ff8c00;stroke:#ff8c00;" x="175.515367" xlink:href="#m942d7f2753" y="644.109034"/>
     <use style="fill:#ff8c00;stroke:#ff8c00;" x="191.180398" xlink:href="#m942d7f2753" y="644.109034"/>
     <use style="fill:#ff8c00;stroke:#ff8c00;" x="206.845429" xlink:href="#m942d7f2753" y="644.109034"/>
     <use style="fill:#ff8c00;stroke:#ff8c00;" x="222.51046" xlink:href="#m942d7f2753" y="644.109034"/>
     <use style="fill:#ff8c00;stroke:#ff8c00;" x="238.175491" xlink:href="#m942d7f2753" y="644.109034"/>
     <use style="fill:#ff8c00;stroke:#ff8c00;" x="253.840522" xlink:href="#m942d7f2753" y="644.109034"/>
     <use style="fill:#ff8c00;stroke:#ff8c00;" x="269.505553" xlink:href="#m942d7f2753" y="644.109034"/>
     <use style="fill:#ff8c00;stroke:#ff8c00;" x="285.170584" xlink:href="#m942d7f2753" y="644.109034"/>
     <use style="fill:#ff8c00;stroke:#ff8c00;" x="300.835615" xlink:href="#m942d7f2753" y="644.109034"/>
     <use style="fill:#ff8c00;stroke:#ff8c00;" x="316.500646" xlink:href="#m942d7f2753" y="644.109034"/>
     <use style="fill:#ff8c00;stroke:#ff8c00;" x="332.165677" xlink:href="#m942d7f2753" y="643.996851"/>
     <use style="fill:#ff8c00;stroke:#ff8c00;" x="347.830708" xlink:href="#m942d7f2753" y="643.996851"/>
     <use style="fill:#ff8c00;stroke:#ff8c00;" x="363.495739" xlink:href="#m942d7f2753" y="643.996851"/>
     <use style="fill:#ff8c00;stroke:#ff8c00;" x="379.16077" xlink:href="#m942d7f2753" y="643.884668"/>
     <use style="fill:#ff8c00;stroke:#ff8c00;" x="394.825801" xlink:href="#m942d7f2753" y="643.772485"/>
     <use style="fill:#ff8c00;stroke:#ff8c00;" x="410.490832" xlink:href="#m942d7f2753" y="643.660302"/>
     <use style="fill:#ff8c00;stroke:#ff8c00;" x="426.155863" xlink:href="#m942d7f2753" y="643.435936"/>
     <use style="fill:#ff8c00;stroke:#ff8c00;" x="441.820894" xlink:href="#m942d7f2753" y="643.21157"/>
     <use style="fill:#ff8c00;stroke:#ff8c00;" x="457.485925" xlink:href="#m942d7f2753" y="642.987203"/>
     <use style="fill:#ff8c00;stroke:#ff8c00;" x="473.150956" xlink:href="#m942d7f2753" y="642.650654"/>
     <use style="fill:#ff8c00;stroke:#ff8c00;" x="488.815987" xlink:href="#m942d7f2753" y="642.201922"/>
     <use style="fill:#ff8c00;stroke:#ff8c00;" x="504.481018" xlink:href="#m942d7f2753" y="641.41664"/>
     <use style="fill:#ff8c00;stroke:#ff8c00;" x="520.146049" xlink:href="#m942d7f2753" y="640.070444"/>
     <use style="fill:#ff8c00;stroke:#ff8c00;" x="535.81108" xlink:href="#m942d7f2753" y="638.275514"/>
     <use style="fill:#ff8c00;stroke:#ff8c00;" x="551.476111" xlink:href="#m942d7f2753" y="636.031853"/>
     <use style="fill:#ff8c00;stroke:#ff8c00;" x="567.141142" xlink:href="#m942d7f2753" y="633.115093"/>
     <use style="fill:#ff8c00;stroke:#ff8c00;" x="582.806173" xlink:href="#m942d7f2753" y="629.637418"/>
     <use style="fill:#ff8c00;stroke:#ff8c00;" x="598.471204" xlink:href="#m942d7f2753" y="626.159743"/>
     <use style="fill:#ff8c00;stroke:#ff8c00;" x="614.136235" xlink:href="#m942d7f2753" y="622.008969"/>
     <use style="fill:#ff8c00;stroke:#ff8c00;" x="629.801265" xlink:href="#m942d7f2753" y="616.175449"/>
     <use style="fill:#ff8c00;stroke:#ff8c00;" x="645.466296" xlink:href="#m942d7f2753" y="609.781014"/>
     <use style="fill:#ff8c00;stroke:#ff8c00;" x="661.131327" xlink:href="#m942d7f2753" y="602.825664"/>
     <use style="fill:#ff8c00;stroke:#ff8c00;" x="676.796358" xlink:href="#m942d7f2753" y="596.319046"/>
     <use style="fill:#ff8c00;stroke:#ff8c00;" x="692.461389" xlink:href="#m942d7f2753" y="589.363695"/>
     <use style="fill:#ff8c00;stroke:#ff8c00;" x="708.12642" xlink:href="#m942d7f2753" y="580.725599"/>
     <use style="fill:#ff8c00;stroke:#ff8c00;" x="723.791451" xlink:href="#m942d7f2753" y="571.63877"/>
     <use style="fill:#ff8c00;stroke:#ff8c00;" x="739.456482" xlink:href="#m942d7f2753" y="561.76666"/>
     <use style="fill:#ff8c00;stroke:#ff8c00;" x="755.121513" xlink:href="#m942d7f2753" y="550.660536"/>
     <use style="fill:#ff8c00;stroke:#ff8c00;" x="770.786544" xlink:href="#m942d7f2753" y="539.217863"/>
     <use style="fill:#ff8c00;stroke:#ff8c00;" x="786.451575" xlink:href="#m942d7f2753" y="530.467583"/>
     <use style="fill:#ff8c00;stroke:#ff8c00;" x="802.116606" xlink:href="#m942d7f2753" y="520.48329"/>
     <use style="fill:#ff8c00;stroke:#ff8c00;" x="817.781637" xlink:href="#m942d7f2753" y="510.050264"/>
     <use style="fill:#ff8c00;stroke:#ff8c00;" x="833.446668" xlink:href="#m942d7f2753" y="499.056323"/>
     <use style="fill:#ff8c00;stroke:#ff8c00;" x="849.111699" xlink:href="#m942d7f2753" y="487.389284"/>
     <use style="fill:#ff8c00;stroke:#ff8c00;" x="864.77673" xlink:href="#m942d7f2753" y="475.946611"/>
     <use style="fill:#ff8c00;stroke:#ff8c00;" x="880.441761" xlink:href="#m942d7f2753" y="465.064853"/>
     <use style="fill:#ff8c00;stroke:#ff8c00;" x="896.106792" xlink:href="#m942d7f2753" y="455.417109"/>
     <use style="fill:#ff8c00;stroke:#ff8c00;" x="911.771823" xlink:href="#m942d7f2753" y="447.003378"/>
     <use style="fill:#ff8c00;stroke:#ff8c00;" x="927.436854" xlink:href="#m942d7f2753" y="438.140916"/>
     <use style="fill:#ff8c00;stroke:#ff8c00;" x="943.101885" xlink:href="#m942d7f2753" y="428.156622"/>
     <use style="fill:#ff8c00;stroke:#ff8c00;" x="958.766916" xlink:href="#m942d7f2753" y="417.162682"/>
     <use style="fill:#ff8c00;stroke:#ff8c00;" x="974.431947" xlink:href="#m942d7f2753" y="406.729656"/>
     <use style="fill:#ff8c00;stroke:#ff8c00;" x="990.096978" xlink:href="#m942d7f2753" y="397.081912"/>
     <use style="fill:#ff8c00;stroke:#ff8c00;" x="1005.762009" xlink:href="#m942d7f2753" y="388.219449"/>
     <use style="fill:#ff8c00;stroke:#ff8c00;" x="1021.42704" xlink:href="#m942d7f2753" y="379.693536"/>
     <use style="fill:#ff8c00;stroke:#ff8c00;" x="1037.092071" xlink:href="#m942d7f2753" y="371.055439"/>
     <use style="fill:#ff8c00;stroke:#ff8c00;" x="1052.757102" xlink:href="#m942d7f2753" y="361.071146"/>
     <use style="fill:#ff8c00;stroke:#ff8c00;" x="1068.422133" xlink:href="#m942d7f2753" y="350.077205"/>
     <use style="fill:#ff8c00;stroke:#ff8c00;" x="1084.087164" xlink:href="#m942d7f2753" y="337.737067"/>
     <use style="fill:#ff8c00;stroke:#ff8c00;" x="1099.752195" xlink:href="#m942d7f2753" y="325.845662"/>
     <use style="fill:#ff8c00;stroke:#ff8c00;" x="1115.417226" xlink:href="#m942d7f2753" y="316.64665"/>
     <use style="fill:#ff8c00;stroke:#ff8c00;" x="1131.082257" xlink:href="#m942d7f2753" y="309.130384"/>
     <use style="fill:#ff8c00;stroke:#ff8c00;" x="1146.747288" xlink:href="#m942d7f2753" y="300.828837"/>
     <use style="fill:#ff8c00;stroke:#ff8c00;" x="1162.412319" xlink:href="#m942d7f2753" y="291.966374"/>
     <use style="fill:#ff8c00;stroke:#ff8c00;" x="1178.07735" xlink:href="#m942d7f2753" y="281.869898"/>
     <use style="fill:#ff8c00;stroke:#ff8c00;" x="1193.742381" xlink:href="#m942d7f2753" y="270.651591"/>
     <use style="fill:#ff8c00;stroke:#ff8c00;" x="1209.407412" xlink:href="#m942d7f2753" y="260.218565"/>
     <use style="fill:#ff8c00;stroke:#ff8c00;" x="1225.072443" xlink:href="#m942d7f2753" y="251.580469"/>
     <use style="fill:#ff8c00;stroke:#ff8c00;" x="1240.737474" xlink:href="#m942d7f2753" y="244.288569"/>
     <use style="fill:#ff8c00;stroke:#ff8c00;" x="1256.402505" xlink:href="#m942d7f2753" y="236.66012"/>
     <use style="fill:#ff8c00;stroke:#ff8c00;" x="1272.067536" xlink:href="#m942d7f2753" y="228.24639"/>
     <use style="fill:#ff8c00;stroke:#ff8c00;" x="1287.732567" xlink:href="#m942d7f2753" y="218.823012"/>
     <use style="fill:#ff8c00;stroke:#ff8c00;" x="1303.397598" xlink:href="#m942d7f2753" y="209.624"/>
     <use style="fill:#ff8c00;stroke:#ff8c00;" x="1319.062629" xlink:href="#m942d7f2753" y="200.873721"/>
     <use style="fill:#ff8c00;stroke:#ff8c00;" x="1334.72766" xlink:href="#m942d7f2753" y="193.806187"/>
     <use style="fill:#ff8c00;stroke:#ff8c00;" x="1350.392691" xlink:href="#m942d7f2753" y="187.748301"/>
     <use style="fill:#ff8c00;stroke:#ff8c00;" x="1366.057722" xlink:href="#m942d7f2753" y="180.456402"/>
     <use style="fill:#ff8c00;stroke:#ff8c00;" x="1381.722753" xlink:href="#m942d7f2753" y="173.501051"/>
     <use style="fill:#ff8c00;stroke:#ff8c00;" x="1397.387784" xlink:href="#m942d7f2753" y="164.30204"/>
     <use style="fill:#ff8c00;stroke:#ff8c00;" x="1413.052815" xlink:href="#m942d7f2753" y="155.663943"/>
     <use style="fill:#ff8c00;stroke:#ff8c00;" x="1428.717846" xlink:href="#m942d7f2753" y="147.362396"/>
     <use style="fill:#ff8c00;stroke:#ff8c00;" x="1444.382877" xlink:href="#m942d7f2753" y="140.631412"/>
     <use style="fill:#ff8c00;stroke:#ff8c00;" x="1460.047908" xlink:href="#m942d7f2753" y="133.339512"/>
     <use style="fill:#ff8c00;stroke:#ff8c00;" x="1475.712939" xlink:href="#m942d7f2753" y="126.720711"/>
     <use style="fill:#ff8c00;stroke:#ff8c00;" x="1491.37797" xlink:href="#m942d7f2753" y="119.092262"/>
     <use style="fill:#ff8c00;stroke:#ff8c00;" x="1507.043001" xlink:href="#m942d7f2753" y="110.566349"/>
     <use style="fill:#ff8c00;stroke:#ff8c00;" x="1522.708032" xlink:href="#m942d7f2753" y="102.376984"/>
     <use style="fill:#ff8c00;stroke:#ff8c00;" x="1538.373063" xlink:href="#m942d7f2753" y="94.636352"/>
     <use style="fill:#ff8c00;stroke:#ff8c00;" x="1554.038094" xlink:href="#m942d7f2753" y="87.681002"/>
     <use style="fill:#ff8c00;stroke:#ff8c00;" x="1569.703125" xlink:href="#m942d7f2753" y="81.39875"/>
     <use style="fill:#ff8c00;stroke:#ff8c00;" x="1585.368156" xlink:href="#m942d7f2753" y="75.677413"/>
     <use style="fill:#ff8c00;stroke:#ff8c00;" x="1601.033187" xlink:href="#m942d7f2753" y="69.282978"/>
     <use style="fill:#ff8c00;stroke:#ff8c00;" x="1616.698218" xlink:href="#m942d7f2753" y="61.430163"/>
     <use style="fill:#ff8c00;stroke:#ff8c00;" x="1632.363249" xlink:href="#m942d7f2753" y="53.352982"/>
    </g>
   </g>
   <g id="matplotlib.axis_1">
    <g id="xtick_1">
     <g id="line2d_1">
      <path clip-path="url(#pfdaa97fd63)" d="M 238.175491 673.718125 
L 238.175491 22.318125 
" style="fill:none;stroke:#b0b0b0;stroke-linecap:square;stroke-width:0.8;"/>
     </g>
     <g id="line2d_2">
      <defs>
       <path d="M 0 0 
L 0 3.5 
" id="mffecccfd38" style="stroke:#000000;stroke-width:0.8;"/>
      </defs>
      <g>
       <use style="stroke:#000000;stroke-width:0.8;" x="238.175491" xlink:href="#mffecccfd38" y="673.718125"/>
      </g>
     </g>
     <g id="text_1">
      <!-- 2020-03-01 -->
      <defs>
       <path d="M 19.1875 8.296875 
L 53.609375 8.296875 
L 53.609375 0 
L 7.328125 0 
L 7.328125 8.296875 
Q 12.9375 14.109375 22.625 23.890625 
Q 32.328125 33.6875 34.8125 36.53125 
Q 39.546875 41.84375 41.421875 45.53125 
Q 43.3125 49.21875 43.3125 52.78125 
Q 43.3125 58.59375 39.234375 62.25 
Q 35.15625 65.921875 28.609375 65.921875 
Q 23.96875 65.921875 18.8125 64.3125 
Q 13.671875 62.703125 7.8125 59.421875 
L 7.8125 69.390625 
Q 13.765625 71.78125 18.9375 73 
Q 24.125 74.21875 28.421875 74.21875 
Q 39.75 74.21875 46.484375 68.546875 
Q 53.21875 62.890625 53.21875 53.421875 
Q 53.21875 48.921875 51.53125 44.890625 
Q 49.859375 40.875 45.40625 35.40625 
Q 44.1875 33.984375 37.640625 27.21875 
Q 31.109375 20.453125 19.1875 8.296875 
z
" id="DejaVuSans-50"/>
       <path d="M 31.78125 66.40625 
Q 24.171875 66.40625 20.328125 58.90625 
Q 16.5 51.421875 16.5 36.375 
Q 16.5 21.390625 20.328125 13.890625 
Q 24.171875 6.390625 31.78125 6.390625 
Q 39.453125 6.390625 43.28125 13.890625 
Q 47.125 21.390625 47.125 36.375 
Q 47.125 51.421875 43.28125 58.90625 
Q 39.453125 66.40625 31.78125 66.40625 
z
M 31.78125 74.21875 
Q 44.046875 74.21875 50.515625 64.515625 
Q 56.984375 54.828125 56.984375 36.375 
Q 56.984375 17.96875 50.515625 8.265625 
Q 44.046875 -1.421875 31.78125 -1.421875 
Q 19.53125 -1.421875 13.0625 8.265625 
Q 6.59375 17.96875 6.59375 36.375 
Q 6.59375 54.828125 13.0625 64.515625 
Q 19.53125 74.21875 31.78125 74.21875 
z
" id="DejaVuSans-48"/>
       <path d="M 4.890625 31.390625 
L 31.203125 31.390625 
L 31.203125 23.390625 
L 4.890625 23.390625 
z
" id="DejaVuSans-45"/>
       <path d="M 40.578125 39.3125 
Q 47.65625 37.796875 51.625 33 
Q 55.609375 28.21875 55.609375 21.1875 
Q 55.609375 10.40625 48.1875 4.484375 
Q 40.765625 -1.421875 27.09375 -1.421875 
Q 22.515625 -1.421875 17.65625 -0.515625 
Q 12.796875 0.390625 7.625 2.203125 
L 7.625 11.71875 
Q 11.71875 9.328125 16.59375 8.109375 
Q 21.484375 6.890625 26.8125 6.890625 
Q 36.078125 6.890625 40.9375 10.546875 
Q 45.796875 14.203125 45.796875 21.1875 
Q 45.796875 27.640625 41.28125 31.265625 
Q 36.765625 34.90625 28.71875 34.90625 
L 20.21875 34.90625 
L 20.21875 43.015625 
L 29.109375 43.015625 
Q 36.375 43.015625 40.234375 45.921875 
Q 44.09375 48.828125 44.09375 54.296875 
Q 44.09375 59.90625 40.109375 62.90625 
Q 36.140625 65.921875 28.71875 65.921875 
Q 24.65625 65.921875 20.015625 65.03125 
Q 15.375 64.15625 9.8125 62.3125 
L 9.8125 71.09375 
Q 15.4375 72.65625 20.34375 73.4375 
Q 25.25 74.21875 29.59375 74.21875 
Q 40.828125 74.21875 47.359375 69.109375 
Q 53.90625 64.015625 53.90625 55.328125 
Q 53.90625 49.265625 50.4375 45.09375 
Q 46.96875 40.921875 40.578125 39.3125 
z
" id="DejaVuSans-51"/>
       <path d="M 12.40625 8.296875 
L 28.515625 8.296875 
L 28.515625 63.921875 
L 10.984375 60.40625 
L 10.984375 69.390625 
L 28.421875 72.90625 
L 38.28125 72.90625 
L 38.28125 8.296875 
L 54.390625 8.296875 
L 54.390625 0 
L 12.40625 0 
z
" id="DejaVuSans-49"/>
      </defs>
      <g transform="translate(209.117678 688.316562)scale(0.1 -0.1)">
       <use xlink:href="#DejaVuSans-50"/>
       <use x="63.623047" xlink:href="#DejaVuSans-48"/>
       <use x="127.246094" xlink:href="#DejaVuSans-50"/>
       <use x="190.869141" xlink:href="#DejaVuSans-48"/>
       <use x="254.492188" xlink:href="#DejaVuSans-45"/>
       <use x="290.576172" xlink:href="#DejaVuSans-48"/>
       <use x="354.199219" xlink:href="#DejaVuSans-51"/>
       <use x="417.822266" xlink:href="#DejaVuSans-45"/>
       <use x="453.90625" xlink:href="#DejaVuSans-48"/>
       <use x="517.529297" xlink:href="#DejaVuSans-49"/>
      </g>
     </g>
    </g>
    <g id="xtick_2">
     <g id="line2d_3">
      <path clip-path="url(#pfdaa97fd63)" d="M 457.485925 673.718125 
L 457.485925 22.318125 
" style="fill:none;stroke:#b0b0b0;stroke-linecap:square;stroke-width:0.8;"/>
     </g>
     <g id="line2d_4">
      <g>
       <use style="stroke:#000000;stroke-width:0.8;" x="457.485925" xlink:href="#mffecccfd38" y="673.718125"/>
      </g>
     </g>
     <g id="text_2">
      <!-- 2020-03-15 -->
      <defs>
       <path d="M 10.796875 72.90625 
L 49.515625 72.90625 
L 49.515625 64.59375 
L 19.828125 64.59375 
L 19.828125 46.734375 
Q 21.96875 47.46875 24.109375 47.828125 
Q 26.265625 48.1875 28.421875 48.1875 
Q 40.625 48.1875 47.75 41.5 
Q 54.890625 34.8125 54.890625 23.390625 
Q 54.890625 11.625 47.5625 5.09375 
Q 40.234375 -1.421875 26.90625 -1.421875 
Q 22.3125 -1.421875 17.546875 -0.640625 
Q 12.796875 0.140625 7.71875 1.703125 
L 7.71875 11.625 
Q 12.109375 9.234375 16.796875 8.0625 
Q 21.484375 6.890625 26.703125 6.890625 
Q 35.15625 6.890625 40.078125 11.328125 
Q 45.015625 15.765625 45.015625 23.390625 
Q 45.015625 31 40.078125 35.4375 
Q 35.15625 39.890625 26.703125 39.890625 
Q 22.75 39.890625 18.8125 39.015625 
Q 14.890625 38.140625 10.796875 36.28125 
z
" id="DejaVuSans-53"/>
      </defs>
      <g transform="translate(428.428112 688.316562)scale(0.1 -0.1)">
       <use xlink:href="#DejaVuSans-50"/>
       <use x="63.623047" xlink:href="#DejaVuSans-48"/>
       <use x="127.246094" xlink:href="#DejaVuSans-50"/>
       <use x="190.869141" xlink:href="#DejaVuSans-48"/>
       <use x="254.492188" xlink:href="#DejaVuSans-45"/>
       <use x="290.576172" xlink:href="#DejaVuSans-48"/>
       <use x="354.199219" xlink:href="#DejaVuSans-51"/>
       <use x="417.822266" xlink:href="#DejaVuSans-45"/>
       <use x="453.90625" xlink:href="#DejaVuSans-49"/>
       <use x="517.529297" xlink:href="#DejaVuSans-53"/>
      </g>
     </g>
    </g>
    <g id="xtick_3">
     <g id="line2d_5">
      <path clip-path="url(#pfdaa97fd63)" d="M 723.791451 673.718125 
L 723.791451 22.318125 
" style="fill:none;stroke:#b0b0b0;stroke-linecap:square;stroke-width:0.8;"/>
     </g>
     <g id="line2d_6">
      <g>
       <use style="stroke:#000000;stroke-width:0.8;" x="723.791451" xlink:href="#mffecccfd38" y="673.718125"/>
      </g>
     </g>
     <g id="text_3">
      <!-- 2020-04-01 -->
      <defs>
       <path d="M 37.796875 64.3125 
L 12.890625 25.390625 
L 37.796875 25.390625 
z
M 35.203125 72.90625 
L 47.609375 72.90625 
L 47.609375 25.390625 
L 58.015625 25.390625 
L 58.015625 17.1875 
L 47.609375 17.1875 
L 47.609375 0 
L 37.796875 0 
L 37.796875 17.1875 
L 4.890625 17.1875 
L 4.890625 26.703125 
z
" id="DejaVuSans-52"/>
      </defs>
      <g transform="translate(694.733639 688.316562)scale(0.1 -0.1)">
       <use xlink:href="#DejaVuSans-50"/>
       <use x="63.623047" xlink:href="#DejaVuSans-48"/>
       <use x="127.246094" xlink:href="#DejaVuSans-50"/>
       <use x="190.869141" xlink:href="#DejaVuSans-48"/>
       <use x="254.492188" xlink:href="#DejaVuSans-45"/>
       <use x="290.576172" xlink:href="#DejaVuSans-48"/>
       <use x="354.199219" xlink:href="#DejaVuSans-52"/>
       <use x="417.822266" xlink:href="#DejaVuSans-45"/>
       <use x="453.90625" xlink:href="#DejaVuSans-48"/>
       <use x="517.529297" xlink:href="#DejaVuSans-49"/>
      </g>
     </g>
    </g>
    <g id="xtick_4">
     <g id="line2d_7">
      <path clip-path="url(#pfdaa97fd63)" d="M 943.101885 673.718125 
L 943.101885 22.318125 
" style="fill:none;stroke:#b0b0b0;stroke-linecap:square;stroke-width:0.8;"/>
     </g>
     <g id="line2d_8">
      <g>
       <use style="stroke:#000000;stroke-width:0.8;" x="943.101885" xlink:href="#mffecccfd38" y="673.718125"/>
      </g>
     </g>
     <g id="text_4">
      <!-- 2020-04-15 -->
      <g transform="translate(914.044073 688.316562)scale(0.1 -0.1)">
       <use xlink:href="#DejaVuSans-50"/>
       <use x="63.623047" xlink:href="#DejaVuSans-48"/>
       <use x="127.246094" xlink:href="#DejaVuSans-50"/>
       <use x="190.869141" xlink:href="#DejaVuSans-48"/>
       <use x="254.492188" xlink:href="#DejaVuSans-45"/>
       <use x="290.576172" xlink:href="#DejaVuSans-48"/>
       <use x="354.199219" xlink:href="#DejaVuSans-52"/>
       <use x="417.822266" xlink:href="#DejaVuSans-45"/>
       <use x="453.90625" xlink:href="#DejaVuSans-49"/>
       <use x="517.529297" xlink:href="#DejaVuSans-53"/>
      </g>
     </g>
    </g>
    <g id="xtick_5">
     <g id="line2d_9">
      <path clip-path="url(#pfdaa97fd63)" d="M 1193.742381 673.718125 
L 1193.742381 22.318125 
" style="fill:none;stroke:#b0b0b0;stroke-linecap:square;stroke-width:0.8;"/>
     </g>
     <g id="line2d_10">
      <g>
       <use style="stroke:#000000;stroke-width:0.8;" x="1193.742381" xlink:href="#mffecccfd38" y="673.718125"/>
      </g>
     </g>
     <g id="text_5">
      <!-- 2020-05-01 -->
      <g transform="translate(1164.684569 688.316562)scale(0.1 -0.1)">
       <use xlink:href="#DejaVuSans-50"/>
       <use x="63.623047" xlink:href="#DejaVuSans-48"/>
       <use x="127.246094" xlink:href="#DejaVuSans-50"/>
       <use x="190.869141" xlink:href="#DejaVuSans-48"/>
       <use x="254.492188" xlink:href="#DejaVuSans-45"/>
       <use x="290.576172" xlink:href="#DejaVuSans-48"/>
       <use x="354.199219" xlink:href="#DejaVuSans-53"/>
       <use x="417.822266" xlink:href="#DejaVuSans-45"/>
       <use x="453.90625" xlink:href="#DejaVuSans-48"/>
       <use x="517.529297" xlink:href="#DejaVuSans-49"/>
      </g>
     </g>
    </g>
    <g id="xtick_6">
     <g id="line2d_11">
      <path clip-path="url(#pfdaa97fd63)" d="M 1413.052815 673.718125 
L 1413.052815 22.318125 
" style="fill:none;stroke:#b0b0b0;stroke-linecap:square;stroke-width:0.8;"/>
     </g>
     <g id="line2d_12">
      <g>
       <use style="stroke:#000000;stroke-width:0.8;" x="1413.052815" xlink:href="#mffecccfd38" y="673.718125"/>
      </g>
     </g>
     <g id="text_6">
      <!-- 2020-05-15 -->
      <g transform="translate(1383.995003 688.316562)scale(0.1 -0.1)">
       <use xlink:href="#DejaVuSans-50"/>
       <use x="63.623047" xlink:href="#DejaVuSans-48"/>
       <use x="127.246094" xlink:href="#DejaVuSans-50"/>
       <use x="190.869141" xlink:href="#DejaVuSans-48"/>
       <use x="254.492188" xlink:href="#DejaVuSans-45"/>
       <use x="290.576172" xlink:href="#DejaVuSans-48"/>
       <use x="354.199219" xlink:href="#DejaVuSans-53"/>
       <use x="417.822266" xlink:href="#DejaVuSans-45"/>
       <use x="453.90625" xlink:href="#DejaVuSans-49"/>
       <use x="517.529297" xlink:href="#DejaVuSans-53"/>
      </g>
     </g>
    </g>
    <g id="xtick_7">
     <g id="line2d_13">
      <path clip-path="url(#pfdaa97fd63)" d="M 1679.358342 673.718125 
L 1679.358342 22.318125 
" style="fill:none;stroke:#b0b0b0;stroke-linecap:square;stroke-width:0.8;"/>
     </g>
     <g id="line2d_14">
      <g>
       <use style="stroke:#000000;stroke-width:0.8;" x="1679.358342" xlink:href="#mffecccfd38" y="673.718125"/>
      </g>
     </g>
     <g id="text_7">
      <!-- 2020-06-01 -->
      <defs>
       <path d="M 33.015625 40.375 
Q 26.375 40.375 22.484375 35.828125 
Q 18.609375 31.296875 18.609375 23.390625 
Q 18.609375 15.53125 22.484375 10.953125 
Q 26.375 6.390625 33.015625 6.390625 
Q 39.65625 6.390625 43.53125 10.953125 
Q 47.40625 15.53125 47.40625 23.390625 
Q 47.40625 31.296875 43.53125 35.828125 
Q 39.65625 40.375 33.015625 40.375 
z
M 52.59375 71.296875 
L 52.59375 62.3125 
Q 48.875 64.0625 45.09375 64.984375 
Q 41.3125 65.921875 37.59375 65.921875 
Q 27.828125 65.921875 22.671875 59.328125 
Q 17.53125 52.734375 16.796875 39.40625 
Q 19.671875 43.65625 24.015625 45.921875 
Q 28.375 48.1875 33.59375 48.1875 
Q 44.578125 48.1875 50.953125 41.515625 
Q 57.328125 34.859375 57.328125 23.390625 
Q 57.328125 12.15625 50.6875 5.359375 
Q 44.046875 -1.421875 33.015625 -1.421875 
Q 20.359375 -1.421875 13.671875 8.265625 
Q 6.984375 17.96875 6.984375 36.375 
Q 6.984375 53.65625 15.1875 63.9375 
Q 23.390625 74.21875 37.203125 74.21875 
Q 40.921875 74.21875 44.703125 73.484375 
Q 48.484375 72.75 52.59375 71.296875 
z
" id="DejaVuSans-54"/>
      </defs>
      <g transform="translate(1650.300529 688.316562)scale(0.1 -0.1)">
       <use xlink:href="#DejaVuSans-50"/>
       <use x="63.623047" xlink:href="#DejaVuSans-48"/>
       <use x="127.246094" xlink:href="#DejaVuSans-50"/>
       <use x="190.869141" xlink:href="#DejaVuSans-48"/>
       <use x="254.492188" xlink:href="#DejaVuSans-45"/>
       <use x="290.576172" xlink:href="#DejaVuSans-48"/>
       <use x="354.199219" xlink:href="#DejaVuSans-54"/>
       <use x="417.822266" xlink:href="#DejaVuSans-45"/>
       <use x="453.90625" xlink:href="#DejaVuSans-48"/>
       <use x="517.529297" xlink:href="#DejaVuSans-49"/>
      </g>
     </g>
    </g>
    <g id="text_8">
     <!-- Date -->
     <defs>
      <path d="M 19.671875 64.796875 
L 19.671875 8.109375 
L 31.59375 8.109375 
Q 46.6875 8.109375 53.6875 14.9375 
Q 60.6875 21.78125 60.6875 36.53125 
Q 60.6875 51.171875 53.6875 57.984375 
Q 46.6875 64.796875 31.59375 64.796875 
z
M 9.8125 72.90625 
L 30.078125 72.90625 
Q 51.265625 72.90625 61.171875 64.09375 
Q 71.09375 55.28125 71.09375 36.53125 
Q 71.09375 17.671875 61.125 8.828125 
Q 51.171875 0 30.078125 0 
L 9.8125 0 
z
" id="DejaVuSans-68"/>
      <path d="M 34.28125 27.484375 
Q 23.390625 27.484375 19.1875 25 
Q 14.984375 22.515625 14.984375 16.5 
Q 14.984375 11.71875 18.140625 8.90625 
Q 21.296875 6.109375 26.703125 6.109375 
Q 34.1875 6.109375 38.703125 11.40625 
Q 43.21875 16.703125 43.21875 25.484375 
L 43.21875 27.484375 
z
M 52.203125 31.203125 
L 52.203125 0 
L 43.21875 0 
L 43.21875 8.296875 
Q 40.140625 3.328125 35.546875 0.953125 
Q 30.953125 -1.421875 24.3125 -1.421875 
Q 15.921875 -1.421875 10.953125 3.296875 
Q 6 8.015625 6 15.921875 
Q 6 25.140625 12.171875 29.828125 
Q 18.359375 34.515625 30.609375 34.515625 
L 43.21875 34.515625 
L 43.21875 35.40625 
Q 43.21875 41.609375 39.140625 45 
Q 35.0625 48.390625 27.6875 48.390625 
Q 23 48.390625 18.546875 47.265625 
Q 14.109375 46.140625 10.015625 43.890625 
L 10.015625 52.203125 
Q 14.9375 54.109375 19.578125 55.046875 
Q 24.21875 56 28.609375 56 
Q 40.484375 56 46.34375 49.84375 
Q 52.203125 43.703125 52.203125 31.203125 
z
" id="DejaVuSans-97"/>
      <path d="M 18.3125 70.21875 
L 18.3125 54.6875 
L 36.8125 54.6875 
L 36.8125 47.703125 
L 18.3125 47.703125 
L 18.3125 18.015625 
Q 18.3125 11.328125 20.140625 9.421875 
Q 21.96875 7.515625 27.59375 7.515625 
L 36.8125 7.515625 
L 36.8125 0 
L 27.59375 0 
Q 17.1875 0 13.234375 3.875 
Q 9.28125 7.765625 9.28125 18.015625 
L 9.28125 47.703125 
L 2.6875 47.703125 
L 2.6875 54.6875 
L 9.28125 54.6875 
L 9.28125 70.21875 
z
" id="DejaVuSans-116"/>
      <path d="M 56.203125 29.59375 
L 56.203125 25.203125 
L 14.890625 25.203125 
Q 15.484375 15.921875 20.484375 11.0625 
Q 25.484375 6.203125 34.421875 6.203125 
Q 39.59375 6.203125 44.453125 7.46875 
Q 49.3125 8.734375 54.109375 11.28125 
L 54.109375 2.78125 
Q 49.265625 0.734375 44.1875 -0.34375 
Q 39.109375 -1.421875 33.890625 -1.421875 
Q 20.796875 -1.421875 13.15625 6.1875 
Q 5.515625 13.8125 5.515625 26.8125 
Q 5.515625 40.234375 12.765625 48.109375 
Q 20.015625 56 32.328125 56 
Q 43.359375 56 49.78125 48.890625 
Q 56.203125 41.796875 56.203125 29.59375 
z
M 47.21875 32.234375 
Q 47.125 39.59375 43.09375 43.984375 
Q 39.0625 48.390625 32.421875 48.390625 
Q 24.90625 48.390625 20.390625 44.140625 
Q 15.875 39.890625 15.1875 32.171875 
z
" id="DejaVuSans-101"/>
     </defs>
     <g transform="translate(868.49098 701.994687)scale(0.1 -0.1)">
      <use xlink:href="#DejaVuSans-68"/>
      <use x="77.001953" xlink:href="#DejaVuSans-97"/>
      <use x="138.28125" xlink:href="#DejaVuSans-116"/>
      <use x="177.490234" xlink:href="#DejaVuSans-101"/>
     </g>
    </g>
   </g>
   <g id="matplotlib.axis_2">
    <g id="ytick_1">
     <g id="line2d_15">
      <path clip-path="url(#pfdaa97fd63)" d="M 53.328125 644.109034 
L 1707.555398 644.109034 
" style="fill:none;stroke:#b0b0b0;stroke-linecap:square;stroke-width:0.8;"/>
     </g>
     <g id="line2d_16">
      <defs>
       <path d="M 0 0 
L -3.5 0 
" id="m004427ef32" style="stroke:#000000;stroke-width:0.8;"/>
      </defs>
      <g>
       <use style="stroke:#000000;stroke-width:0.8;" x="53.328125" xlink:href="#m004427ef32" y="644.109034"/>
      </g>
     </g>
     <g id="text_9">
      <!-- 0 -->
      <g transform="translate(39.965625 647.908253)scale(0.1 -0.1)">
       <use xlink:href="#DejaVuSans-48"/>
      </g>
     </g>
    </g>
    <g id="ytick_2">
     <g id="line2d_17">
      <path clip-path="url(#pfdaa97fd63)" d="M 53.328125 531.925963 
L 1707.555398 531.925963 
" style="fill:none;stroke:#b0b0b0;stroke-linecap:square;stroke-width:0.8;"/>
     </g>
     <g id="line2d_18">
      <g>
       <use style="stroke:#000000;stroke-width:0.8;" x="53.328125" xlink:href="#m004427ef32" y="531.925963"/>
      </g>
     </g>
     <g id="text_10">
      <!-- 1000 -->
      <g transform="translate(20.878125 535.725182)scale(0.1 -0.1)">
       <use xlink:href="#DejaVuSans-49"/>
       <use x="63.623047" xlink:href="#DejaVuSans-48"/>
       <use x="127.246094" xlink:href="#DejaVuSans-48"/>
       <use x="190.869141" xlink:href="#DejaVuSans-48"/>
      </g>
     </g>
    </g>
    <g id="ytick_3">
     <g id="line2d_19">
      <path clip-path="url(#pfdaa97fd63)" d="M 53.328125 419.742892 
L 1707.555398 419.742892 
" style="fill:none;stroke:#b0b0b0;stroke-linecap:square;stroke-width:0.8;"/>
     </g>
     <g id="line2d_20">
      <g>
       <use style="stroke:#000000;stroke-width:0.8;" x="53.328125" xlink:href="#m004427ef32" y="419.742892"/>
      </g>
     </g>
     <g id="text_11">
      <!-- 2000 -->
      <g transform="translate(20.878125 423.542111)scale(0.1 -0.1)">
       <use xlink:href="#DejaVuSans-50"/>
       <use x="63.623047" xlink:href="#DejaVuSans-48"/>
       <use x="127.246094" xlink:href="#DejaVuSans-48"/>
       <use x="190.869141" xlink:href="#DejaVuSans-48"/>
      </g>
     </g>
    </g>
    <g id="ytick_4">
     <g id="line2d_21">
      <path clip-path="url(#pfdaa97fd63)" d="M 53.328125 307.559821 
L 1707.555398 307.559821 
" style="fill:none;stroke:#b0b0b0;stroke-linecap:square;stroke-width:0.8;"/>
     </g>
     <g id="line2d_22">
      <g>
       <use style="stroke:#000000;stroke-width:0.8;" x="53.328125" xlink:href="#m004427ef32" y="307.559821"/>
      </g>
     </g>
     <g id="text_12">
      <!-- 3000 -->
      <g transform="translate(20.878125 311.35904)scale(0.1 -0.1)">
       <use xlink:href="#DejaVuSans-51"/>
       <use x="63.623047" xlink:href="#DejaVuSans-48"/>
       <use x="127.246094" xlink:href="#DejaVuSans-48"/>
       <use x="190.869141" xlink:href="#DejaVuSans-48"/>
      </g>
     </g>
    </g>
    <g id="ytick_5">
     <g id="line2d_23">
      <path clip-path="url(#pfdaa97fd63)" d="M 53.328125 195.37675 
L 1707.555398 195.37675 
" style="fill:none;stroke:#b0b0b0;stroke-linecap:square;stroke-width:0.8;"/>
     </g>
     <g id="line2d_24">
      <g>
       <use style="stroke:#000000;stroke-width:0.8;" x="53.328125" xlink:href="#m004427ef32" y="195.37675"/>
      </g>
     </g>
     <g id="text_13">
      <!-- 4000 -->
      <g transform="translate(20.878125 199.175969)scale(0.1 -0.1)">
       <use xlink:href="#DejaVuSans-52"/>
       <use x="63.623047" xlink:href="#DejaVuSans-48"/>
       <use x="127.246094" xlink:href="#DejaVuSans-48"/>
       <use x="190.869141" xlink:href="#DejaVuSans-48"/>
      </g>
     </g>
    </g>
    <g id="ytick_6">
     <g id="line2d_25">
      <path clip-path="url(#pfdaa97fd63)" d="M 53.328125 83.193679 
L 1707.555398 83.193679 
" style="fill:none;stroke:#b0b0b0;stroke-linecap:square;stroke-width:0.8;"/>
     </g>
     <g id="line2d_26">
      <g>
       <use style="stroke:#000000;stroke-width:0.8;" x="53.328125" xlink:href="#m004427ef32" y="83.193679"/>
      </g>
     </g>
     <g id="text_14">
      <!-- 5000 -->
      <g transform="translate(20.878125 86.992898)scale(0.1 -0.1)">
       <use xlink:href="#DejaVuSans-53"/>
       <use x="63.623047" xlink:href="#DejaVuSans-48"/>
       <use x="127.246094" xlink:href="#DejaVuSans-48"/>
       <use x="190.869141" xlink:href="#DejaVuSans-48"/>
      </g>
     </g>
    </g>
    <g id="text_15">
     <!-- Number of CoV-19 Cases per Million -->
     <defs>
      <path d="M 9.8125 72.90625 
L 23.09375 72.90625 
L 55.421875 11.921875 
L 55.421875 72.90625 
L 64.984375 72.90625 
L 64.984375 0 
L 51.703125 0 
L 19.390625 60.984375 
L 19.390625 0 
L 9.8125 0 
z
" id="DejaVuSans-78"/>
      <path d="M 8.5 21.578125 
L 8.5 54.6875 
L 17.484375 54.6875 
L 17.484375 21.921875 
Q 17.484375 14.15625 20.5 10.265625 
Q 23.53125 6.390625 29.59375 6.390625 
Q 36.859375 6.390625 41.078125 11.03125 
Q 45.3125 15.671875 45.3125 23.6875 
L 45.3125 54.6875 
L 54.296875 54.6875 
L 54.296875 0 
L 45.3125 0 
L 45.3125 8.40625 
Q 42.046875 3.421875 37.71875 1 
Q 33.40625 -1.421875 27.6875 -1.421875 
Q 18.265625 -1.421875 13.375 4.4375 
Q 8.5 10.296875 8.5 21.578125 
z
M 31.109375 56 
z
" id="DejaVuSans-117"/>
      <path d="M 52 44.1875 
Q 55.375 50.25 60.0625 53.125 
Q 64.75 56 71.09375 56 
Q 79.640625 56 84.28125 50.015625 
Q 88.921875 44.046875 88.921875 33.015625 
L 88.921875 0 
L 79.890625 0 
L 79.890625 32.71875 
Q 79.890625 40.578125 77.09375 44.375 
Q 74.3125 48.1875 68.609375 48.1875 
Q 61.625 48.1875 57.5625 43.546875 
Q 53.515625 38.921875 53.515625 30.90625 
L 53.515625 0 
L 44.484375 0 
L 44.484375 32.71875 
Q 44.484375 40.625 41.703125 44.40625 
Q 38.921875 48.1875 33.109375 48.1875 
Q 26.21875 48.1875 22.15625 43.53125 
Q 18.109375 38.875 18.109375 30.90625 
L 18.109375 0 
L 9.078125 0 
L 9.078125 54.6875 
L 18.109375 54.6875 
L 18.109375 46.1875 
Q 21.1875 51.21875 25.484375 53.609375 
Q 29.78125 56 35.6875 56 
Q 41.65625 56 45.828125 52.96875 
Q 50 49.953125 52 44.1875 
z
" id="DejaVuSans-109"/>
      <path d="M 48.6875 27.296875 
Q 48.6875 37.203125 44.609375 42.84375 
Q 40.53125 48.484375 33.40625 48.484375 
Q 26.265625 48.484375 22.1875 42.84375 
Q 18.109375 37.203125 18.109375 27.296875 
Q 18.109375 17.390625 22.1875 11.75 
Q 26.265625 6.109375 33.40625 6.109375 
Q 40.53125 6.109375 44.609375 11.75 
Q 48.6875 17.390625 48.6875 27.296875 
z
M 18.109375 46.390625 
Q 20.953125 51.265625 25.265625 53.625 
Q 29.59375 56 35.59375 56 
Q 45.5625 56 51.78125 48.09375 
Q 58.015625 40.1875 58.015625 27.296875 
Q 58.015625 14.40625 51.78125 6.484375 
Q 45.5625 -1.421875 35.59375 -1.421875 
Q 29.59375 -1.421875 25.265625 0.953125 
Q 20.953125 3.328125 18.109375 8.203125 
L 18.109375 0 
L 9.078125 0 
L 9.078125 75.984375 
L 18.109375 75.984375 
z
" id="DejaVuSans-98"/>
      <path d="M 41.109375 46.296875 
Q 39.59375 47.171875 37.8125 47.578125 
Q 36.03125 48 33.890625 48 
Q 26.265625 48 22.1875 43.046875 
Q 18.109375 38.09375 18.109375 28.8125 
L 18.109375 0 
L 9.078125 0 
L 9.078125 54.6875 
L 18.109375 54.6875 
L 18.109375 46.1875 
Q 20.953125 51.171875 25.484375 53.578125 
Q 30.03125 56 36.53125 56 
Q 37.453125 56 38.578125 55.875 
Q 39.703125 55.765625 41.0625 55.515625 
z
" id="DejaVuSans-114"/>
      <path id="DejaVuSans-32"/>
      <path d="M 30.609375 48.390625 
Q 23.390625 48.390625 19.1875 42.75 
Q 14.984375 37.109375 14.984375 27.296875 
Q 14.984375 17.484375 19.15625 11.84375 
Q 23.34375 6.203125 30.609375 6.203125 
Q 37.796875 6.203125 41.984375 11.859375 
Q 46.1875 17.53125 46.1875 27.296875 
Q 46.1875 37.015625 41.984375 42.703125 
Q 37.796875 48.390625 30.609375 48.390625 
z
M 30.609375 56 
Q 42.328125 56 49.015625 48.375 
Q 55.71875 40.765625 55.71875 27.296875 
Q 55.71875 13.875 49.015625 6.21875 
Q 42.328125 -1.421875 30.609375 -1.421875 
Q 18.84375 -1.421875 12.171875 6.21875 
Q 5.515625 13.875 5.515625 27.296875 
Q 5.515625 40.765625 12.171875 48.375 
Q 18.84375 56 30.609375 56 
z
" id="DejaVuSans-111"/>
      <path d="M 37.109375 75.984375 
L 37.109375 68.5 
L 28.515625 68.5 
Q 23.6875 68.5 21.796875 66.546875 
Q 19.921875 64.59375 19.921875 59.515625 
L 19.921875 54.6875 
L 34.71875 54.6875 
L 34.71875 47.703125 
L 19.921875 47.703125 
L 19.921875 0 
L 10.890625 0 
L 10.890625 47.703125 
L 2.296875 47.703125 
L 2.296875 54.6875 
L 10.890625 54.6875 
L 10.890625 58.5 
Q 10.890625 67.625 15.140625 71.796875 
Q 19.390625 75.984375 28.609375 75.984375 
z
" id="DejaVuSans-102"/>
      <path d="M 64.40625 67.28125 
L 64.40625 56.890625 
Q 59.421875 61.53125 53.78125 63.8125 
Q 48.140625 66.109375 41.796875 66.109375 
Q 29.296875 66.109375 22.65625 58.46875 
Q 16.015625 50.828125 16.015625 36.375 
Q 16.015625 21.96875 22.65625 14.328125 
Q 29.296875 6.6875 41.796875 6.6875 
Q 48.140625 6.6875 53.78125 8.984375 
Q 59.421875 11.28125 64.40625 15.921875 
L 64.40625 5.609375 
Q 59.234375 2.09375 53.4375 0.328125 
Q 47.65625 -1.421875 41.21875 -1.421875 
Q 24.65625 -1.421875 15.125 8.703125 
Q 5.609375 18.84375 5.609375 36.375 
Q 5.609375 53.953125 15.125 64.078125 
Q 24.65625 74.21875 41.21875 74.21875 
Q 47.75 74.21875 53.53125 72.484375 
Q 59.328125 70.75 64.40625 67.28125 
z
" id="DejaVuSans-67"/>
      <path d="M 28.609375 0 
L 0.78125 72.90625 
L 11.078125 72.90625 
L 34.1875 11.53125 
L 57.328125 72.90625 
L 67.578125 72.90625 
L 39.796875 0 
z
" id="DejaVuSans-86"/>
      <path d="M 10.984375 1.515625 
L 10.984375 10.5 
Q 14.703125 8.734375 18.5 7.8125 
Q 22.3125 6.890625 25.984375 6.890625 
Q 35.75 6.890625 40.890625 13.453125 
Q 46.046875 20.015625 46.78125 33.40625 
Q 43.953125 29.203125 39.59375 26.953125 
Q 35.25 24.703125 29.984375 24.703125 
Q 19.046875 24.703125 12.671875 31.3125 
Q 6.296875 37.9375 6.296875 49.421875 
Q 6.296875 60.640625 12.9375 67.421875 
Q 19.578125 74.21875 30.609375 74.21875 
Q 43.265625 74.21875 49.921875 64.515625 
Q 56.59375 54.828125 56.59375 36.375 
Q 56.59375 19.140625 48.40625 8.859375 
Q 40.234375 -1.421875 26.421875 -1.421875 
Q 22.703125 -1.421875 18.890625 -0.6875 
Q 15.09375 0.046875 10.984375 1.515625 
z
M 30.609375 32.421875 
Q 37.25 32.421875 41.125 36.953125 
Q 45.015625 41.5 45.015625 49.421875 
Q 45.015625 57.28125 41.125 61.84375 
Q 37.25 66.40625 30.609375 66.40625 
Q 23.96875 66.40625 20.09375 61.84375 
Q 16.21875 57.28125 16.21875 49.421875 
Q 16.21875 41.5 20.09375 36.953125 
Q 23.96875 32.421875 30.609375 32.421875 
z
" id="DejaVuSans-57"/>
      <path d="M 44.28125 53.078125 
L 44.28125 44.578125 
Q 40.484375 46.53125 36.375 47.5 
Q 32.28125 48.484375 27.875 48.484375 
Q 21.1875 48.484375 17.84375 46.4375 
Q 14.5 44.390625 14.5 40.28125 
Q 14.5 37.15625 16.890625 35.375 
Q 19.28125 33.59375 26.515625 31.984375 
L 29.59375 31.296875 
Q 39.15625 29.25 43.1875 25.515625 
Q 47.21875 21.78125 47.21875 15.09375 
Q 47.21875 7.46875 41.1875 3.015625 
Q 35.15625 -1.421875 24.609375 -1.421875 
Q 20.21875 -1.421875 15.453125 -0.5625 
Q 10.6875 0.296875 5.421875 2 
L 5.421875 11.28125 
Q 10.40625 8.6875 15.234375 7.390625 
Q 20.0625 6.109375 24.8125 6.109375 
Q 31.15625 6.109375 34.5625 8.28125 
Q 37.984375 10.453125 37.984375 14.40625 
Q 37.984375 18.0625 35.515625 20.015625 
Q 33.0625 21.96875 24.703125 23.78125 
L 21.578125 24.515625 
Q 13.234375 26.265625 9.515625 29.90625 
Q 5.8125 33.546875 5.8125 39.890625 
Q 5.8125 47.609375 11.28125 51.796875 
Q 16.75 56 26.8125 56 
Q 31.78125 56 36.171875 55.265625 
Q 40.578125 54.546875 44.28125 53.078125 
z
" id="DejaVuSans-115"/>
      <path d="M 18.109375 8.203125 
L 18.109375 -20.796875 
L 9.078125 -20.796875 
L 9.078125 54.6875 
L 18.109375 54.6875 
L 18.109375 46.390625 
Q 20.953125 51.265625 25.265625 53.625 
Q 29.59375 56 35.59375 56 
Q 45.5625 56 51.78125 48.09375 
Q 58.015625 40.1875 58.015625 27.296875 
Q 58.015625 14.40625 51.78125 6.484375 
Q 45.5625 -1.421875 35.59375 -1.421875 
Q 29.59375 -1.421875 25.265625 0.953125 
Q 20.953125 3.328125 18.109375 8.203125 
z
M 48.6875 27.296875 
Q 48.6875 37.203125 44.609375 42.84375 
Q 40.53125 48.484375 33.40625 48.484375 
Q 26.265625 48.484375 22.1875 42.84375 
Q 18.109375 37.203125 18.109375 27.296875 
Q 18.109375 17.390625 22.1875 11.75 
Q 26.265625 6.109375 33.40625 6.109375 
Q 40.53125 6.109375 44.609375 11.75 
Q 48.6875 17.390625 48.6875 27.296875 
z
" id="DejaVuSans-112"/>
      <path d="M 9.8125 72.90625 
L 24.515625 72.90625 
L 43.109375 23.296875 
L 61.8125 72.90625 
L 76.515625 72.90625 
L 76.515625 0 
L 66.890625 0 
L 66.890625 64.015625 
L 48.09375 14.015625 
L 38.1875 14.015625 
L 19.390625 64.015625 
L 19.390625 0 
L 9.8125 0 
z
" id="DejaVuSans-77"/>
      <path d="M 9.421875 54.6875 
L 18.40625 54.6875 
L 18.40625 0 
L 9.421875 0 
z
M 9.421875 75.984375 
L 18.40625 75.984375 
L 18.40625 64.59375 
L 9.421875 64.59375 
z
" id="DejaVuSans-105"/>
      <path d="M 9.421875 75.984375 
L 18.40625 75.984375 
L 18.40625 0 
L 9.421875 0 
z
" id="DejaVuSans-108"/>
      <path d="M 54.890625 33.015625 
L 54.890625 0 
L 45.90625 0 
L 45.90625 32.71875 
Q 45.90625 40.484375 42.875 44.328125 
Q 39.84375 48.1875 33.796875 48.1875 
Q 26.515625 48.1875 22.3125 43.546875 
Q 18.109375 38.921875 18.109375 30.90625 
L 18.109375 0 
L 9.078125 0 
L 9.078125 54.6875 
L 18.109375 54.6875 
L 18.109375 46.1875 
Q 21.34375 51.125 25.703125 53.5625 
Q 30.078125 56 35.796875 56 
Q 45.21875 56 50.046875 50.171875 
Q 54.890625 44.34375 54.890625 33.015625 
z
" id="DejaVuSans-110"/>
     </defs>
     <g transform="translate(14.798438 437.95875)rotate(-90)scale(0.1 -0.1)">
      <use xlink:href="#DejaVuSans-78"/>
      <use x="74.804688" xlink:href="#DejaVuSans-117"/>
      <use x="138.183594" xlink:href="#DejaVuSans-109"/>
      <use x="235.595703" xlink:href="#DejaVuSans-98"/>
      <use x="299.072266" xlink:href="#DejaVuSans-101"/>
      <use x="360.595703" xlink:href="#DejaVuSans-114"/>
      <use x="401.708984" xlink:href="#DejaVuSans-32"/>
      <use x="433.496094" xlink:href="#DejaVuSans-111"/>
      <use x="494.677734" xlink:href="#DejaVuSans-102"/>
      <use x="529.882812" xlink:href="#DejaVuSans-32"/>
      <use x="561.669922" xlink:href="#DejaVuSans-67"/>
      <use x="631.494141" xlink:href="#DejaVuSans-111"/>
      <use x="692.675781" xlink:href="#DejaVuSans-86"/>
      <use x="755.208984" xlink:href="#DejaVuSans-45"/>
      <use x="791.292969" xlink:href="#DejaVuSans-49"/>
      <use x="854.916016" xlink:href="#DejaVuSans-57"/>
      <use x="918.539062" xlink:href="#DejaVuSans-32"/>
      <use x="950.326172" xlink:href="#DejaVuSans-67"/>
      <use x="1020.150391" xlink:href="#DejaVuSans-97"/>
      <use x="1081.429688" xlink:href="#DejaVuSans-115"/>
      <use x="1133.529297" xlink:href="#DejaVuSans-101"/>
      <use x="1195.052734" xlink:href="#DejaVuSans-115"/>
      <use x="1247.152344" xlink:href="#DejaVuSans-32"/>
      <use x="1278.939453" xlink:href="#DejaVuSans-112"/>
      <use x="1342.416016" xlink:href="#DejaVuSans-101"/>
      <use x="1403.939453" xlink:href="#DejaVuSans-114"/>
      <use x="1445.052734" xlink:href="#DejaVuSans-32"/>
      <use x="1476.839844" xlink:href="#DejaVuSans-77"/>
      <use x="1563.119141" xlink:href="#DejaVuSans-105"/>
      <use x="1590.902344" xlink:href="#DejaVuSans-108"/>
      <use x="1618.685547" xlink:href="#DejaVuSans-108"/>
      <use x="1646.46875" xlink:href="#DejaVuSans-105"/>
      <use x="1674.251953" xlink:href="#DejaVuSans-111"/>
      <use x="1735.433594" xlink:href="#DejaVuSans-110"/>
     </g>
    </g>
   </g>
   <g id="line2d_27">
    <path clip-path="url(#pfdaa97fd63)" d="M 128.520274 643.542735 
L 144.185305 643.542735 
L 159.850336 643.542735 
L 175.515367 643.542735 
L 191.180398 643.542735 
L 206.845429 643.542735 
L 222.51046 643.542735 
L 238.175491 643.823931 
L 253.840522 643.805426 
L 269.505553 643.834156 
L 285.170584 643.90182 
L 300.835615 643.901218 
L 316.500646 643.902271 
L 332.165677 643.899746 
L 347.830708 643.892582 
L 363.495739 643.895533 
L 379.16077 643.872651 
L 394.825801 643.885328 
L 410.490832 643.86557 
L 426.155863 643.867538 
L 441.820894 643.824965 
L 457.485925 643.663017 
L 473.150956 643.570497 
L 488.815987 643.556568 
L 504.481018 642.948952 
L 520.146049 639.000058 
L 535.81108 636.887173 
L 551.476111 633.914998 
L 567.141142 632.076642 
L 582.806173 627.94747 
L 598.471204 622.841944 
L 614.136235 620.426654 
L 629.801265 615.729395 
L 645.466296 611.866142 
L 661.131327 605.60595 
L 676.796358 598.756572 
L 692.461389 594.711233 
L 708.12642 582.335616 
L 723.791451 571.216608 
L 739.456482 562.167854 
L 755.121513 548.778682 
L 770.786544 540.826528 
L 786.451575 530.277393 
L 802.116606 522.429372 
L 817.781637 511.920182 
L 833.446668 498.791486 
L 849.111699 487.810727 
L 864.77673 473.956596 
L 880.441761 464.643927 
L 896.106792 457.757173 
L 911.771823 447.59537 
L 927.436854 436.896136 
L 943.101885 426.216366 
L 958.766916 415.353643 
L 974.431947 405.552805 
L 990.096978 401.244762 
L 1005.762009 386.704864 
L 1021.42704 380.918593 
L 1037.092071 373.525002 
L 1052.757102 358.390557 
L 1068.422133 351.197357 
L 1084.087164 340.158845 
L 1099.752195 333.260882 
L 1115.417226 323.112059 
L 1131.082257 315.874636 
L 1146.747288 308.036041 
L 1162.412319 296.069264 
L 1178.07735 284.56434 
L 1193.742381 270.379281 
L 1209.407412 259.317065 
L 1225.072443 248.720839 
L 1240.737474 246.011631 
L 1256.402505 237.790273 
L 1272.067536 228.760352 
L 1287.732567 219.154888 
L 1303.397598 205.473204 
L 1319.062629 200.529532 
L 1334.72766 192.196005 
L 1350.392691 186.28867 
L 1366.057722 178.927901 
L 1381.722753 169.27386 
L 1397.387784 161.476228 
L 1413.052815 152.068473 
L 1428.717846 145.385187 
L 1444.382877 138.867355 
L 1460.047908 134.960109 
L 1475.712939 126.135746 
L 1491.37797 119.118925 
L 1507.043001 110.568666 
L 1522.708032 100.861152 
L 1538.373063 96.39994 
L 1554.038094 90.414897 
L 1569.703125 81.40403 
L 1585.368156 75.026655 
L 1601.033187 68.061935 
L 1616.698218 60.96254 
L 1632.363249 51.927216 
" style="fill:none;stroke:#6495ed;stroke-linecap:square;stroke-width:1.5;"/>
   </g>
   <g id="patch_3">
    <path d="M 53.328125 673.718125 
L 53.328125 22.318125 
" style="fill:none;stroke:#000000;stroke-linecap:square;stroke-linejoin:miter;stroke-width:0.8;"/>
   </g>
   <g id="patch_4">
    <path d="M 1707.555398 673.718125 
L 1707.555398 22.318125 
" style="fill:none;stroke:#000000;stroke-linecap:square;stroke-linejoin:miter;stroke-width:0.8;"/>
   </g>
   <g id="patch_5">
    <path d="M 53.328125 673.718125 
L 1707.555398 673.718125 
" style="fill:none;stroke:#000000;stroke-linecap:square;stroke-linejoin:miter;stroke-width:0.8;"/>
   </g>
   <g id="patch_6">
    <path d="M 53.328125 22.318125 
L 1707.555398 22.318125 
" style="fill:none;stroke:#000000;stroke-linecap:square;stroke-linejoin:miter;stroke-width:0.8;"/>
   </g>
   <g id="text_16">
    <!-- Evolution of CoV-19 Cases per Million : Neural network - Multi-layer Perceptron -->
    <defs>
     <path d="M 9.8125 72.90625 
L 55.90625 72.90625 
L 55.90625 64.59375 
L 19.671875 64.59375 
L 19.671875 43.015625 
L 54.390625 43.015625 
L 54.390625 34.71875 
L 19.671875 34.71875 
L 19.671875 8.296875 
L 56.78125 8.296875 
L 56.78125 0 
L 9.8125 0 
z
" id="DejaVuSans-69"/>
     <path d="M 2.984375 54.6875 
L 12.5 54.6875 
L 29.59375 8.796875 
L 46.6875 54.6875 
L 56.203125 54.6875 
L 35.6875 0 
L 23.484375 0 
z
" id="DejaVuSans-118"/>
     <path d="M 11.71875 12.40625 
L 22.015625 12.40625 
L 22.015625 0 
L 11.71875 0 
z
M 11.71875 51.703125 
L 22.015625 51.703125 
L 22.015625 39.3125 
L 11.71875 39.3125 
z
" id="DejaVuSans-58"/>
     <path d="M 4.203125 54.6875 
L 13.1875 54.6875 
L 24.421875 12.015625 
L 35.59375 54.6875 
L 46.1875 54.6875 
L 57.421875 12.015625 
L 68.609375 54.6875 
L 77.59375 54.6875 
L 63.28125 0 
L 52.6875 0 
L 40.921875 44.828125 
L 29.109375 0 
L 18.5 0 
z
" id="DejaVuSans-119"/>
     <path d="M 9.078125 75.984375 
L 18.109375 75.984375 
L 18.109375 31.109375 
L 44.921875 54.6875 
L 56.390625 54.6875 
L 27.390625 29.109375 
L 57.625 0 
L 45.90625 0 
L 18.109375 26.703125 
L 18.109375 0 
L 9.078125 0 
z
" id="DejaVuSans-107"/>
     <path d="M 32.171875 -5.078125 
Q 28.375 -14.84375 24.75 -17.8125 
Q 21.140625 -20.796875 15.09375 -20.796875 
L 7.90625 -20.796875 
L 7.90625 -13.28125 
L 13.1875 -13.28125 
Q 16.890625 -13.28125 18.9375 -11.515625 
Q 21 -9.765625 23.484375 -3.21875 
L 25.09375 0.875 
L 2.984375 54.6875 
L 12.5 54.6875 
L 29.59375 11.921875 
L 46.6875 54.6875 
L 56.203125 54.6875 
z
" id="DejaVuSans-121"/>
     <path d="M 19.671875 64.796875 
L 19.671875 37.40625 
L 32.078125 37.40625 
Q 38.96875 37.40625 42.71875 40.96875 
Q 46.484375 44.53125 46.484375 51.125 
Q 46.484375 57.671875 42.71875 61.234375 
Q 38.96875 64.796875 32.078125 64.796875 
z
M 9.8125 72.90625 
L 32.078125 72.90625 
Q 44.34375 72.90625 50.609375 67.359375 
Q 56.890625 61.8125 56.890625 51.125 
Q 56.890625 40.328125 50.609375 34.8125 
Q 44.34375 29.296875 32.078125 29.296875 
L 19.671875 29.296875 
L 19.671875 0 
L 9.8125 0 
z
" id="DejaVuSans-80"/>
     <path d="M 48.78125 52.59375 
L 48.78125 44.1875 
Q 44.96875 46.296875 41.140625 47.34375 
Q 37.3125 48.390625 33.40625 48.390625 
Q 24.65625 48.390625 19.8125 42.84375 
Q 14.984375 37.3125 14.984375 27.296875 
Q 14.984375 17.28125 19.8125 11.734375 
Q 24.65625 6.203125 33.40625 6.203125 
Q 37.3125 6.203125 41.140625 7.25 
Q 44.96875 8.296875 48.78125 10.40625 
L 48.78125 2.09375 
Q 45.015625 0.34375 40.984375 -0.53125 
Q 36.96875 -1.421875 32.421875 -1.421875 
Q 20.0625 -1.421875 12.78125 6.34375 
Q 5.515625 14.109375 5.515625 27.296875 
Q 5.515625 40.671875 12.859375 48.328125 
Q 20.21875 56 33.015625 56 
Q 37.15625 56 41.109375 55.140625 
Q 45.0625 54.296875 48.78125 52.59375 
z
" id="DejaVuSans-99"/>
    </defs>
    <g transform="translate(644.589261 16.318125)scale(0.12 -0.12)">
     <use xlink:href="#DejaVuSans-69"/>
     <use x="63.183594" xlink:href="#DejaVuSans-118"/>
     <use x="122.363281" xlink:href="#DejaVuSans-111"/>
     <use x="183.544922" xlink:href="#DejaVuSans-108"/>
     <use x="211.328125" xlink:href="#DejaVuSans-117"/>
     <use x="274.707031" xlink:href="#DejaVuSans-116"/>
     <use x="313.916016" xlink:href="#DejaVuSans-105"/>
     <use x="341.699219" xlink:href="#DejaVuSans-111"/>
     <use x="402.880859" xlink:href="#DejaVuSans-110"/>
     <use x="466.259766" xlink:href="#DejaVuSans-32"/>
     <use x="498.046875" xlink:href="#DejaVuSans-111"/>
     <use x="559.228516" xlink:href="#DejaVuSans-102"/>
     <use x="594.433594" xlink:href="#DejaVuSans-32"/>
     <use x="626.220703" xlink:href="#DejaVuSans-67"/>
     <use x="696.044922" xlink:href="#DejaVuSans-111"/>
     <use x="757.226562" xlink:href="#DejaVuSans-86"/>
     <use x="819.759766" xlink:href="#DejaVuSans-45"/>
     <use x="855.84375" xlink:href="#DejaVuSans-49"/>
     <use x="919.466797" xlink:href="#DejaVuSans-57"/>
     <use x="983.089844" xlink:href="#DejaVuSans-32"/>
     <use x="1014.876953" xlink:href="#DejaVuSans-67"/>
     <use x="1084.701172" xlink:href="#DejaVuSans-97"/>
     <use x="1145.980469" xlink:href="#DejaVuSans-115"/>
     <use x="1198.080078" xlink:href="#DejaVuSans-101"/>
     <use x="1259.603516" xlink:href="#DejaVuSans-115"/>
     <use x="1311.703125" xlink:href="#DejaVuSans-32"/>
     <use x="1343.490234" xlink:href="#DejaVuSans-112"/>
     <use x="1406.966797" xlink:href="#DejaVuSans-101"/>
     <use x="1468.490234" xlink:href="#DejaVuSans-114"/>
     <use x="1509.603516" xlink:href="#DejaVuSans-32"/>
     <use x="1541.390625" xlink:href="#DejaVuSans-77"/>
     <use x="1627.669922" xlink:href="#DejaVuSans-105"/>
     <use x="1655.453125" xlink:href="#DejaVuSans-108"/>
     <use x="1683.236328" xlink:href="#DejaVuSans-108"/>
     <use x="1711.019531" xlink:href="#DejaVuSans-105"/>
     <use x="1738.802734" xlink:href="#DejaVuSans-111"/>
     <use x="1799.984375" xlink:href="#DejaVuSans-110"/>
     <use x="1863.363281" xlink:href="#DejaVuSans-32"/>
     <use x="1895.150391" xlink:href="#DejaVuSans-58"/>
     <use x="1928.841797" xlink:href="#DejaVuSans-32"/>
     <use x="1960.628906" xlink:href="#DejaVuSans-78"/>
     <use x="2035.433594" xlink:href="#DejaVuSans-101"/>
     <use x="2096.957031" xlink:href="#DejaVuSans-117"/>
     <use x="2160.335938" xlink:href="#DejaVuSans-114"/>
     <use x="2201.449219" xlink:href="#DejaVuSans-97"/>
     <use x="2262.728516" xlink:href="#DejaVuSans-108"/>
     <use x="2290.511719" xlink:href="#DejaVuSans-32"/>
     <use x="2322.298828" xlink:href="#DejaVuSans-110"/>
     <use x="2385.677734" xlink:href="#DejaVuSans-101"/>
     <use x="2447.201172" xlink:href="#DejaVuSans-116"/>
     <use x="2486.410156" xlink:href="#DejaVuSans-119"/>
     <use x="2568.197266" xlink:href="#DejaVuSans-111"/>
     <use x="2629.378906" xlink:href="#DejaVuSans-114"/>
     <use x="2670.492188" xlink:href="#DejaVuSans-107"/>
     <use x="2728.402344" xlink:href="#DejaVuSans-32"/>
     <use x="2760.189453" xlink:href="#DejaVuSans-45"/>
     <use x="2796.273438" xlink:href="#DejaVuSans-32"/>
     <use x="2828.060547" xlink:href="#DejaVuSans-77"/>
     <use x="2914.339844" xlink:href="#DejaVuSans-117"/>
     <use x="2977.71875" xlink:href="#DejaVuSans-108"/>
     <use x="3005.501953" xlink:href="#DejaVuSans-116"/>
     <use x="3044.710938" xlink:href="#DejaVuSans-105"/>
     <use x="3072.494141" xlink:href="#DejaVuSans-45"/>
     <use x="3108.578125" xlink:href="#DejaVuSans-108"/>
     <use x="3136.361328" xlink:href="#DejaVuSans-97"/>
     <use x="3197.640625" xlink:href="#DejaVuSans-121"/>
     <use x="3256.820312" xlink:href="#DejaVuSans-101"/>
     <use x="3318.34375" xlink:href="#DejaVuSans-114"/>
     <use x="3359.457031" xlink:href="#DejaVuSans-32"/>
     <use x="3391.244141" xlink:href="#DejaVuSans-80"/>
     <use x="3447.921875" xlink:href="#DejaVuSans-101"/>
     <use x="3509.445312" xlink:href="#DejaVuSans-114"/>
     <use x="3548.308594" xlink:href="#DejaVuSans-99"/>
     <use x="3603.289062" xlink:href="#DejaVuSans-101"/>
     <use x="3664.8125" xlink:href="#DejaVuSans-112"/>
     <use x="3728.289062" xlink:href="#DejaVuSans-116"/>
     <use x="3767.498047" xlink:href="#DejaVuSans-114"/>
     <use x="3806.361328" xlink:href="#DejaVuSans-111"/>
     <use x="3867.542969" xlink:href="#DejaVuSans-110"/>
    </g>
   </g>
   <g id="legend_1">
    <g id="patch_7">
     <path d="M 60.328125 59.674375 
L 207.6 59.674375 
Q 209.6 59.674375 209.6 57.674375 
L 209.6 29.318125 
Q 209.6 27.318125 207.6 27.318125 
L 60.328125 27.318125 
Q 58.328125 27.318125 58.328125 29.318125 
L 58.328125 57.674375 
Q 58.328125 59.674375 60.328125 59.674375 
z
" style="fill:#ffffff;opacity:0.8;stroke:#cccccc;stroke-linejoin:miter;"/>
    </g>
    <g id="line2d_28">
     <path d="M 62.328125 35.416562 
L 82.328125 35.416562 
" style="fill:none;stroke:#6495ed;stroke-linecap:square;stroke-width:1.5;"/>
    </g>
    <g id="line2d_29"/>
    <g id="text_17">
     <!-- Perceptron's prediction -->
     <defs>
      <path d="M 17.921875 72.90625 
L 17.921875 45.796875 
L 9.625 45.796875 
L 9.625 72.90625 
z
" id="DejaVuSans-39"/>
      <path d="M 45.40625 46.390625 
L 45.40625 75.984375 
L 54.390625 75.984375 
L 54.390625 0 
L 45.40625 0 
L 45.40625 8.203125 
Q 42.578125 3.328125 38.25 0.953125 
Q 33.9375 -1.421875 27.875 -1.421875 
Q 17.96875 -1.421875 11.734375 6.484375 
Q 5.515625 14.40625 5.515625 27.296875 
Q 5.515625 40.1875 11.734375 48.09375 
Q 17.96875 56 27.875 56 
Q 33.9375 56 38.25 53.625 
Q 42.578125 51.265625 45.40625 46.390625 
z
M 14.796875 27.296875 
Q 14.796875 17.390625 18.875 11.75 
Q 22.953125 6.109375 30.078125 6.109375 
Q 37.203125 6.109375 41.296875 11.75 
Q 45.40625 17.390625 45.40625 27.296875 
Q 45.40625 37.203125 41.296875 42.84375 
Q 37.203125 48.484375 30.078125 48.484375 
Q 22.953125 48.484375 18.875 42.84375 
Q 14.796875 37.203125 14.796875 27.296875 
z
" id="DejaVuSans-100"/>
     </defs>
     <g transform="translate(90.328125 38.916562)scale(0.1 -0.1)">
      <use xlink:href="#DejaVuSans-80"/>
      <use x="56.677734" xlink:href="#DejaVuSans-101"/>
      <use x="118.201172" xlink:href="#DejaVuSans-114"/>
      <use x="157.064453" xlink:href="#DejaVuSans-99"/>
      <use x="212.044922" xlink:href="#DejaVuSans-101"/>
      <use x="273.568359" xlink:href="#DejaVuSans-112"/>
      <use x="337.044922" xlink:href="#DejaVuSans-116"/>
      <use x="376.253906" xlink:href="#DejaVuSans-114"/>
      <use x="415.117188" xlink:href="#DejaVuSans-111"/>
      <use x="476.298828" xlink:href="#DejaVuSans-110"/>
      <use x="539.677734" xlink:href="#DejaVuSans-39"/>
      <use x="567.167969" xlink:href="#DejaVuSans-115"/>
      <use x="619.267578" xlink:href="#DejaVuSans-32"/>
      <use x="651.054688" xlink:href="#DejaVuSans-112"/>
      <use x="714.53125" xlink:href="#DejaVuSans-114"/>
      <use x="753.394531" xlink:href="#DejaVuSans-101"/>
      <use x="814.917969" xlink:href="#DejaVuSans-100"/>
      <use x="878.394531" xlink:href="#DejaVuSans-105"/>
      <use x="906.177734" xlink:href="#DejaVuSans-99"/>
      <use x="961.158203" xlink:href="#DejaVuSans-116"/>
      <use x="1000.367188" xlink:href="#DejaVuSans-105"/>
      <use x="1028.150391" xlink:href="#DejaVuSans-111"/>
      <use x="1089.332031" xlink:href="#DejaVuSans-110"/>
     </g>
    </g>
    <g id="PathCollection_2">
     <g>
      <use style="fill:#ff8c00;stroke:#ff8c00;" x="72.328125" xlink:href="#m942d7f2753" y="50.969687"/>
     </g>
    </g>
    <g id="text_18">
     <!-- Labeled Data -->
     <defs>
      <path d="M 9.8125 72.90625 
L 19.671875 72.90625 
L 19.671875 8.296875 
L 55.171875 8.296875 
L 55.171875 0 
L 9.8125 0 
z
" id="DejaVuSans-76"/>
     </defs>
     <g transform="translate(90.328125 53.594687)scale(0.1 -0.1)">
      <use xlink:href="#DejaVuSans-76"/>
      <use x="55.712891" xlink:href="#DejaVuSans-97"/>
      <use x="116.992188" xlink:href="#DejaVuSans-98"/>
      <use x="180.46875" xlink:href="#DejaVuSans-101"/>
      <use x="241.992188" xlink:href="#DejaVuSans-108"/>
      <use x="269.775391" xlink:href="#DejaVuSans-101"/>
      <use x="331.298828" xlink:href="#DejaVuSans-100"/>
      <use x="394.775391" xlink:href="#DejaVuSans-32"/>
      <use x="426.5625" xlink:href="#DejaVuSans-68"/>
      <use x="503.564453" xlink:href="#DejaVuSans-97"/>
      <use x="564.84375" xlink:href="#DejaVuSans-116"/>
      <use x="604.052734" xlink:href="#DejaVuSans-97"/>
     </g>
    </g>
   </g>
  </g>
 </g>
 <defs>
  <clipPath id="pfdaa97fd63">
   <rect height="651.4" width="1654.227273" x="53.328125" y="22.318125"/>
  </clipPath>
 </defs>
</svg>
