<?xml version="1.0" encoding="utf-8" standalone="no"?>
<!DOCTYPE svg PUBLIC "-//W3C//DTD SVG 1.1//EN"
  "http://www.w3.org/Graphics/SVG/1.1/DTD/svg11.dtd">
<!-- Created with matplotlib (https://matplotlib.org/) -->
<svg height="603.474375pt" version="1.1" viewBox="0 0 1399.728125 603.474375" width="1399.728125pt" xmlns="http://www.w3.org/2000/svg" xmlns:xlink="http://www.w3.org/1999/xlink">
 <defs>
  <style type="text/css">
*{stroke-linecap:butt;stroke-linejoin:round;}
  </style>
 </defs>
 <g id="figure_1">
  <g id="patch_1">
   <path d="M 0 603.474375 
L 1399.728125 603.474375 
L 1399.728125 0 
L 0 0 
z
" style="fill:none;"/>
  </g>
  <g id="axes_1">
   <g id="patch_2">
    <path d="M 53.328125 565.918125 
L 1392.528125 565.918125 
L 1392.528125 22.318125 
L 53.328125 22.318125 
z
" style="fill:#ffffff;"/>
   </g>
   <g id="PathCollection_1">
    <defs>
     <path d="M 0 3 
C 0.795609 3 1.55874 2.683901 2.12132 2.12132 
C 2.683901 1.55874 3 0.795609 3 0 
C 3 -0.795609 2.683901 -1.55874 2.12132 -2.12132 
C 1.55874 -2.683901 0.795609 -3 0 -3 
C -0.795609 -3 -1.55874 -2.683901 -2.12132 -2.12132 
C -2.683901 -1.55874 -3 -0.795609 -3 0 
C -3 0.795609 -2.683901 1.55874 -2.12132 2.12132 
C -1.55874 2.683901 -0.795609 3 0 3 
z
" id="ma7e0d7f560" style="stroke:#1f77b4;"/>
    </defs>
    <g clip-path="url(#pd696096354)">
     <use style="fill:#1f77b4;stroke:#1f77b4;" x="114.200852" xlink:href="#ma7e0d7f560" y="532.571302"/>
     <use style="fill:#1f77b4;stroke:#1f77b4;" x="127.016163" xlink:href="#ma7e0d7f560" y="532.571302"/>
     <use style="fill:#1f77b4;stroke:#1f77b4;" x="139.831474" xlink:href="#ma7e0d7f560" y="532.571302"/>
     <use style="fill:#1f77b4;stroke:#1f77b4;" x="152.646785" xlink:href="#ma7e0d7f560" y="532.571302"/>
     <use style="fill:#1f77b4;stroke:#1f77b4;" x="165.462096" xlink:href="#ma7e0d7f560" y="532.571302"/>
     <use style="fill:#1f77b4;stroke:#1f77b4;" x="178.277407" xlink:href="#ma7e0d7f560" y="532.571302"/>
     <use style="fill:#1f77b4;stroke:#1f77b4;" x="191.092718" xlink:href="#ma7e0d7f560" y="532.571302"/>
     <use style="fill:#1f77b4;stroke:#1f77b4;" x="203.908029" xlink:href="#ma7e0d7f560" y="532.571302"/>
     <use style="fill:#1f77b4;stroke:#1f77b4;" x="216.72334" xlink:href="#ma7e0d7f560" y="532.571302"/>
     <use style="fill:#1f77b4;stroke:#1f77b4;" x="229.538651" xlink:href="#ma7e0d7f560" y="532.571302"/>
     <use style="fill:#1f77b4;stroke:#1f77b4;" x="242.353962" xlink:href="#ma7e0d7f560" y="532.449459"/>
     <use style="fill:#1f77b4;stroke:#1f77b4;" x="255.169273" xlink:href="#ma7e0d7f560" y="532.449459"/>
     <use style="fill:#1f77b4;stroke:#1f77b4;" x="267.984584" xlink:href="#ma7e0d7f560" y="532.327616"/>
     <use style="fill:#1f77b4;stroke:#1f77b4;" x="280.799895" xlink:href="#ma7e0d7f560" y="532.205773"/>
     <use style="fill:#1f77b4;stroke:#1f77b4;" x="293.615206" xlink:href="#ma7e0d7f560" y="532.08393"/>
     <use style="fill:#1f77b4;stroke:#1f77b4;" x="306.430517" xlink:href="#ma7e0d7f560" y="532.08393"/>
     <use style="fill:#1f77b4;stroke:#1f77b4;" x="319.245828" xlink:href="#ma7e0d7f560" y="531.962087"/>
     <use style="fill:#1f77b4;stroke:#1f77b4;" x="332.061139" xlink:href="#ma7e0d7f560" y="531.840244"/>
     <use style="fill:#1f77b4;stroke:#1f77b4;" x="344.87645" xlink:href="#ma7e0d7f560" y="531.596558"/>
     <use style="fill:#1f77b4;stroke:#1f77b4;" x="357.691761" xlink:href="#ma7e0d7f560" y="531.231029"/>
     <use style="fill:#1f77b4;stroke:#1f77b4;" x="370.507072" xlink:href="#ma7e0d7f560" y="530.743658"/>
     <use style="fill:#1f77b4;stroke:#1f77b4;" x="383.322383" xlink:href="#ma7e0d7f560" y="530.134443"/>
     <use style="fill:#1f77b4;stroke:#1f77b4;" x="396.137694" xlink:href="#ma7e0d7f560" y="529.890757"/>
     <use style="fill:#1f77b4;stroke:#1f77b4;" x="408.953005" xlink:href="#ma7e0d7f560" y="529.1597"/>
     <use style="fill:#1f77b4;stroke:#1f77b4;" x="421.768316" xlink:href="#ma7e0d7f560" y="527.94127"/>
     <use style="fill:#1f77b4;stroke:#1f77b4;" x="434.583627" xlink:href="#ma7e0d7f560" y="526.722841"/>
     <use style="fill:#1f77b4;stroke:#1f77b4;" x="447.398938" xlink:href="#ma7e0d7f560" y="525.504412"/>
     <use style="fill:#1f77b4;stroke:#1f77b4;" x="460.214249" xlink:href="#ma7e0d7f560" y="523.554925"/>
     <use style="fill:#1f77b4;stroke:#1f77b4;" x="473.02956" xlink:href="#ma7e0d7f560" y="522.336495"/>
     <use style="fill:#1f77b4;stroke:#1f77b4;" x="485.844871" xlink:href="#ma7e0d7f560" y="520.630694"/>
     <use style="fill:#1f77b4;stroke:#1f77b4;" x="498.660182" xlink:href="#ma7e0d7f560" y="518.071993"/>
     <use style="fill:#1f77b4;stroke:#1f77b4;" x="511.475493" xlink:href="#ma7e0d7f560" y="515.391448"/>
     <use style="fill:#1f77b4;stroke:#1f77b4;" x="524.290804" xlink:href="#ma7e0d7f560" y="511.614317"/>
     <use style="fill:#1f77b4;stroke:#1f77b4;" x="537.106115" xlink:href="#ma7e0d7f560" y="506.375071"/>
     <use style="fill:#1f77b4;stroke:#1f77b4;" x="549.921426" xlink:href="#ma7e0d7f560" y="501.74504"/>
     <use style="fill:#1f77b4;stroke:#1f77b4;" x="562.736737" xlink:href="#ma7e0d7f560" y="497.236851"/>
     <use style="fill:#1f77b4;stroke:#1f77b4;" x="575.552048" xlink:href="#ma7e0d7f560" y="492.484977"/>
     <use style="fill:#1f77b4;stroke:#1f77b4;" x="588.367359" xlink:href="#ma7e0d7f560" y="486.636516"/>
     <use style="fill:#1f77b4;stroke:#1f77b4;" x="601.18267" xlink:href="#ma7e0d7f560" y="478.351197"/>
     <use style="fill:#1f77b4;stroke:#1f77b4;" x="613.997981" xlink:href="#ma7e0d7f560" y="470.18772"/>
     <use style="fill:#1f77b4;stroke:#1f77b4;" x="626.813292" xlink:href="#ma7e0d7f560" y="461.780558"/>
     <use style="fill:#1f77b4;stroke:#1f77b4;" x="639.628603" xlink:href="#ma7e0d7f560" y="454.591825"/>
     <use style="fill:#1f77b4;stroke:#1f77b4;" x="652.443914" xlink:href="#ma7e0d7f560" y="443.382275"/>
     <use style="fill:#1f77b4;stroke:#1f77b4;" x="665.259225" xlink:href="#ma7e0d7f560" y="435.828013"/>
     <use style="fill:#1f77b4;stroke:#1f77b4;" x="678.074536" xlink:href="#ma7e0d7f560" y="428.882966"/>
     <use style="fill:#1f77b4;stroke:#1f77b4;" x="690.889847" xlink:href="#ma7e0d7f560" y="418.282631"/>
     <use style="fill:#1f77b4;stroke:#1f77b4;" x="703.705158" xlink:href="#ma7e0d7f560" y="409.875469"/>
     <use style="fill:#1f77b4;stroke:#1f77b4;" x="716.520469" xlink:href="#ma7e0d7f560" y="399.518819"/>
     <use style="fill:#1f77b4;stroke:#1f77b4;" x="729.335781" xlink:href="#ma7e0d7f560" y="390.136914"/>
     <use style="fill:#1f77b4;stroke:#1f77b4;" x="742.151092" xlink:href="#ma7e0d7f560" y="380.511322"/>
     <use style="fill:#1f77b4;stroke:#1f77b4;" x="754.966403" xlink:href="#ma7e0d7f560" y="372.713374"/>
     <use style="fill:#1f77b4;stroke:#1f77b4;" x="767.781714" xlink:href="#ma7e0d7f560" y="363.209626"/>
     <use style="fill:#1f77b4;stroke:#1f77b4;" x="780.597025" xlink:href="#ma7e0d7f560" y="354.924306"/>
     <use style="fill:#1f77b4;stroke:#1f77b4;" x="793.412336" xlink:href="#ma7e0d7f560" y="346.638987"/>
     <use style="fill:#1f77b4;stroke:#1f77b4;" x="806.227647" xlink:href="#ma7e0d7f560" y="336.526023"/>
     <use style="fill:#1f77b4;stroke:#1f77b4;" x="819.042958" xlink:href="#ma7e0d7f560" y="326.534903"/>
     <use style="fill:#1f77b4;stroke:#1f77b4;" x="831.858269" xlink:href="#ma7e0d7f560" y="316.056411"/>
     <use style="fill:#1f77b4;stroke:#1f77b4;" x="844.67358" xlink:href="#ma7e0d7f560" y="307.527405"/>
     <use style="fill:#1f77b4;stroke:#1f77b4;" x="857.488891" xlink:href="#ma7e0d7f560" y="299.851301"/>
     <use style="fill:#1f77b4;stroke:#1f77b4;" x="870.304202" xlink:href="#ma7e0d7f560" y="291.809667"/>
     <use style="fill:#1f77b4;stroke:#1f77b4;" x="883.119513" xlink:href="#ma7e0d7f560" y="283.524348"/>
     <use style="fill:#1f77b4;stroke:#1f77b4;" x="895.934824" xlink:href="#ma7e0d7f560" y="273.776913"/>
     <use style="fill:#1f77b4;stroke:#1f77b4;" x="908.750135" xlink:href="#ma7e0d7f560" y="264.882379"/>
     <use style="fill:#1f77b4;stroke:#1f77b4;" x="921.565446" xlink:href="#ma7e0d7f560" y="256.840746"/>
     <use style="fill:#1f77b4;stroke:#1f77b4;" x="934.380757" xlink:href="#ma7e0d7f560" y="249.042798"/>
     <use style="fill:#1f77b4;stroke:#1f77b4;" x="947.196068" xlink:href="#ma7e0d7f560" y="241.854065"/>
     <use style="fill:#1f77b4;stroke:#1f77b4;" x="960.011379" xlink:href="#ma7e0d7f560" y="234.543489"/>
     <use style="fill:#1f77b4;stroke:#1f77b4;" x="972.82669" xlink:href="#ma7e0d7f560" y="223.699468"/>
     <use style="fill:#1f77b4;stroke:#1f77b4;" x="985.642001" xlink:href="#ma7e0d7f560" y="212.489918"/>
     <use style="fill:#1f77b4;stroke:#1f77b4;" x="998.457312" xlink:href="#ma7e0d7f560" y="203.83907"/>
     <use style="fill:#1f77b4;stroke:#1f77b4;" x="1011.272623" xlink:href="#ma7e0d7f560" y="195.919279"/>
     <use style="fill:#1f77b4;stroke:#1f77b4;" x="1024.087934" xlink:href="#ma7e0d7f560" y="188.730546"/>
     <use style="fill:#1f77b4;stroke:#1f77b4;" x="1036.903245" xlink:href="#ma7e0d7f560" y="180.810756"/>
     <use style="fill:#1f77b4;stroke:#1f77b4;" x="1049.718556" xlink:href="#ma7e0d7f560" y="169.844892"/>
     <use style="fill:#1f77b4;stroke:#1f77b4;" x="1062.533867" xlink:href="#ma7e0d7f560" y="159.610085"/>
     <use style="fill:#1f77b4;stroke:#1f77b4;" x="1075.349178" xlink:href="#ma7e0d7f560" y="151.324766"/>
     <use style="fill:#1f77b4;stroke:#1f77b4;" x="1088.164489" xlink:href="#ma7e0d7f560" y="144.257876"/>
     <use style="fill:#1f77b4;stroke:#1f77b4;" x="1100.9798" xlink:href="#ma7e0d7f560" y="137.190986"/>
     <use style="fill:#1f77b4;stroke:#1f77b4;" x="1113.795111" xlink:href="#ma7e0d7f560" y="130.124096"/>
     <use style="fill:#1f77b4;stroke:#1f77b4;" x="1126.610422" xlink:href="#ma7e0d7f560" y="124.031949"/>
     <use style="fill:#1f77b4;stroke:#1f77b4;" x="1139.425733" xlink:href="#ma7e0d7f560" y="118.183488"/>
     <use style="fill:#1f77b4;stroke:#1f77b4;" x="1152.241044" xlink:href="#ma7e0d7f560" y="111.969499"/>
     <use style="fill:#1f77b4;stroke:#1f77b4;" x="1165.056355" xlink:href="#ma7e0d7f560" y="105.511823"/>
     <use style="fill:#1f77b4;stroke:#1f77b4;" x="1177.871666" xlink:href="#ma7e0d7f560" y="99.297834"/>
     <use style="fill:#1f77b4;stroke:#1f77b4;" x="1190.686977" xlink:href="#ma7e0d7f560" y="92.962001"/>
     <use style="fill:#1f77b4;stroke:#1f77b4;" x="1203.502288" xlink:href="#ma7e0d7f560" y="88.088284"/>
     <use style="fill:#1f77b4;stroke:#1f77b4;" x="1216.317599" xlink:href="#ma7e0d7f560" y="83.701939"/>
     <use style="fill:#1f77b4;stroke:#1f77b4;" x="1229.13291" xlink:href="#ma7e0d7f560" y="81.752452"/>
     <use style="fill:#1f77b4;stroke:#1f77b4;" x="1241.948221" xlink:href="#ma7e0d7f560" y="79.924808"/>
     <use style="fill:#1f77b4;stroke:#1f77b4;" x="1254.763532" xlink:href="#ma7e0d7f560" y="73.954504"/>
     <use style="fill:#1f77b4;stroke:#1f77b4;" x="1267.578843" xlink:href="#ma7e0d7f560" y="68.715258"/>
     <use style="fill:#1f77b4;stroke:#1f77b4;" x="1280.394154" xlink:href="#ma7e0d7f560" y="64.328912"/>
     <use style="fill:#1f77b4;stroke:#1f77b4;" x="1293.209465" xlink:href="#ma7e0d7f560" y="61.404682"/>
     <use style="fill:#1f77b4;stroke:#1f77b4;" x="1306.024776" xlink:href="#ma7e0d7f560" y="57.749394"/>
     <use style="fill:#1f77b4;stroke:#1f77b4;" x="1318.840087" xlink:href="#ma7e0d7f560" y="50.438818"/>
     <use style="fill:#1f77b4;stroke:#1f77b4;" x="1331.655398" xlink:href="#ma7e0d7f560" y="47.027216"/>
    </g>
   </g>
   <g id="matplotlib.axis_1">
    <g id="xtick_1">
     <g id="line2d_1">
      <path clip-path="url(#pd696096354)" d="M 62.939608 565.918125 
L 62.939608 22.318125 
" style="fill:none;stroke:#b0b0b0;stroke-linecap:square;stroke-width:0.8;"/>
     </g>
     <g id="line2d_2">
      <defs>
       <path d="M 0 0 
L 0 3.5 
" id="m4cfcf9d88e" style="stroke:#000000;stroke-width:0.8;"/>
      </defs>
      <g>
       <use style="stroke:#000000;stroke-width:0.8;" x="62.939608" xlink:href="#m4cfcf9d88e" y="565.918125"/>
      </g>
     </g>
     <g id="text_1">
      <!-- 19-02 -->
      <defs>
       <path d="M 12.40625 8.296875 
L 28.515625 8.296875 
L 28.515625 63.921875 
L 10.984375 60.40625 
L 10.984375 69.390625 
L 28.421875 72.90625 
L 38.28125 72.90625 
L 38.28125 8.296875 
L 54.390625 8.296875 
L 54.390625 0 
L 12.40625 0 
z
" id="DejaVuSans-49"/>
       <path d="M 10.984375 1.515625 
L 10.984375 10.5 
Q 14.703125 8.734375 18.5 7.8125 
Q 22.3125 6.890625 25.984375 6.890625 
Q 35.75 6.890625 40.890625 13.453125 
Q 46.046875 20.015625 46.78125 33.40625 
Q 43.953125 29.203125 39.59375 26.953125 
Q 35.25 24.703125 29.984375 24.703125 
Q 19.046875 24.703125 12.671875 31.3125 
Q 6.296875 37.9375 6.296875 49.421875 
Q 6.296875 60.640625 12.9375 67.421875 
Q 19.578125 74.21875 30.609375 74.21875 
Q 43.265625 74.21875 49.921875 64.515625 
Q 56.59375 54.828125 56.59375 36.375 
Q 56.59375 19.140625 48.40625 8.859375 
Q 40.234375 -1.421875 26.421875 -1.421875 
Q 22.703125 -1.421875 18.890625 -0.6875 
Q 15.09375 0.046875 10.984375 1.515625 
z
M 30.609375 32.421875 
Q 37.25 32.421875 41.125 36.953125 
Q 45.015625 41.5 45.015625 49.421875 
Q 45.015625 57.28125 41.125 61.84375 
Q 37.25 66.40625 30.609375 66.40625 
Q 23.96875 66.40625 20.09375 61.84375 
Q 16.21875 57.28125 16.21875 49.421875 
Q 16.21875 41.5 20.09375 36.953125 
Q 23.96875 32.421875 30.609375 32.421875 
z
" id="DejaVuSans-57"/>
       <path d="M 4.890625 31.390625 
L 31.203125 31.390625 
L 31.203125 23.390625 
L 4.890625 23.390625 
z
" id="DejaVuSans-45"/>
       <path d="M 31.78125 66.40625 
Q 24.171875 66.40625 20.328125 58.90625 
Q 16.5 51.421875 16.5 36.375 
Q 16.5 21.390625 20.328125 13.890625 
Q 24.171875 6.390625 31.78125 6.390625 
Q 39.453125 6.390625 43.28125 13.890625 
Q 47.125 21.390625 47.125 36.375 
Q 47.125 51.421875 43.28125 58.90625 
Q 39.453125 66.40625 31.78125 66.40625 
z
M 31.78125 74.21875 
Q 44.046875 74.21875 50.515625 64.515625 
Q 56.984375 54.828125 56.984375 36.375 
Q 56.984375 17.96875 50.515625 8.265625 
Q 44.046875 -1.421875 31.78125 -1.421875 
Q 19.53125 -1.421875 13.0625 8.265625 
Q 6.59375 17.96875 6.59375 36.375 
Q 6.59375 54.828125 13.0625 64.515625 
Q 19.53125 74.21875 31.78125 74.21875 
z
" id="DejaVuSans-48"/>
       <path d="M 19.1875 8.296875 
L 53.609375 8.296875 
L 53.609375 0 
L 7.328125 0 
L 7.328125 8.296875 
Q 12.9375 14.109375 22.625 23.890625 
Q 32.328125 33.6875 34.8125 36.53125 
Q 39.546875 41.84375 41.421875 45.53125 
Q 43.3125 49.21875 43.3125 52.78125 
Q 43.3125 58.59375 39.234375 62.25 
Q 35.15625 65.921875 28.609375 65.921875 
Q 23.96875 65.921875 18.8125 64.3125 
Q 13.671875 62.703125 7.8125 59.421875 
L 7.8125 69.390625 
Q 13.765625 71.78125 18.9375 73 
Q 24.125 74.21875 28.421875 74.21875 
Q 39.75 74.21875 46.484375 68.546875 
Q 53.21875 62.890625 53.21875 53.421875 
Q 53.21875 48.921875 51.53125 44.890625 
Q 49.859375 40.875 45.40625 35.40625 
Q 44.1875 33.984375 37.640625 27.21875 
Q 31.109375 20.453125 19.1875 8.296875 
z
" id="DejaVuSans-50"/>
      </defs>
      <g transform="translate(48.410702 580.516562)scale(0.1 -0.1)">
       <use xlink:href="#DejaVuSans-49"/>
       <use x="63.623047" xlink:href="#DejaVuSans-57"/>
       <use x="127.246094" xlink:href="#DejaVuSans-45"/>
       <use x="163.330078" xlink:href="#DejaVuSans-48"/>
       <use x="226.953125" xlink:href="#DejaVuSans-50"/>
      </g>
     </g>
    </g>
    <g id="xtick_2">
     <g id="line2d_3">
      <path clip-path="url(#pd696096354)" d="M 101.385541 565.918125 
L 101.385541 22.318125 
" style="fill:none;stroke:#b0b0b0;stroke-linecap:square;stroke-width:0.8;"/>
     </g>
     <g id="line2d_4">
      <g>
       <use style="stroke:#000000;stroke-width:0.8;" x="101.385541" xlink:href="#m4cfcf9d88e" y="565.918125"/>
      </g>
     </g>
     <g id="text_2">
      <!-- 22-02 -->
      <g transform="translate(86.856635 580.516562)scale(0.1 -0.1)">
       <use xlink:href="#DejaVuSans-50"/>
       <use x="63.623047" xlink:href="#DejaVuSans-50"/>
       <use x="127.246094" xlink:href="#DejaVuSans-45"/>
       <use x="163.330078" xlink:href="#DejaVuSans-48"/>
       <use x="226.953125" xlink:href="#DejaVuSans-50"/>
      </g>
     </g>
    </g>
    <g id="xtick_3">
     <g id="line2d_5">
      <path clip-path="url(#pd696096354)" d="M 139.831474 565.918125 
L 139.831474 22.318125 
" style="fill:none;stroke:#b0b0b0;stroke-linecap:square;stroke-width:0.8;"/>
     </g>
     <g id="line2d_6">
      <g>
       <use style="stroke:#000000;stroke-width:0.8;" x="139.831474" xlink:href="#m4cfcf9d88e" y="565.918125"/>
      </g>
     </g>
     <g id="text_3">
      <!-- 25-02 -->
      <defs>
       <path d="M 10.796875 72.90625 
L 49.515625 72.90625 
L 49.515625 64.59375 
L 19.828125 64.59375 
L 19.828125 46.734375 
Q 21.96875 47.46875 24.109375 47.828125 
Q 26.265625 48.1875 28.421875 48.1875 
Q 40.625 48.1875 47.75 41.5 
Q 54.890625 34.8125 54.890625 23.390625 
Q 54.890625 11.625 47.5625 5.09375 
Q 40.234375 -1.421875 26.90625 -1.421875 
Q 22.3125 -1.421875 17.546875 -0.640625 
Q 12.796875 0.140625 7.71875 1.703125 
L 7.71875 11.625 
Q 12.109375 9.234375 16.796875 8.0625 
Q 21.484375 6.890625 26.703125 6.890625 
Q 35.15625 6.890625 40.078125 11.328125 
Q 45.015625 15.765625 45.015625 23.390625 
Q 45.015625 31 40.078125 35.4375 
Q 35.15625 39.890625 26.703125 39.890625 
Q 22.75 39.890625 18.8125 39.015625 
Q 14.890625 38.140625 10.796875 36.28125 
z
" id="DejaVuSans-53"/>
      </defs>
      <g transform="translate(125.302568 580.516562)scale(0.1 -0.1)">
       <use xlink:href="#DejaVuSans-50"/>
       <use x="63.623047" xlink:href="#DejaVuSans-53"/>
       <use x="127.246094" xlink:href="#DejaVuSans-45"/>
       <use x="163.330078" xlink:href="#DejaVuSans-48"/>
       <use x="226.953125" xlink:href="#DejaVuSans-50"/>
      </g>
     </g>
    </g>
    <g id="xtick_4">
     <g id="line2d_7">
      <path clip-path="url(#pd696096354)" d="M 178.277407 565.918125 
L 178.277407 22.318125 
" style="fill:none;stroke:#b0b0b0;stroke-linecap:square;stroke-width:0.8;"/>
     </g>
     <g id="line2d_8">
      <g>
       <use style="stroke:#000000;stroke-width:0.8;" x="178.277407" xlink:href="#m4cfcf9d88e" y="565.918125"/>
      </g>
     </g>
     <g id="text_4">
      <!-- 28-02 -->
      <defs>
       <path d="M 31.78125 34.625 
Q 24.75 34.625 20.71875 30.859375 
Q 16.703125 27.09375 16.703125 20.515625 
Q 16.703125 13.921875 20.71875 10.15625 
Q 24.75 6.390625 31.78125 6.390625 
Q 38.8125 6.390625 42.859375 10.171875 
Q 46.921875 13.96875 46.921875 20.515625 
Q 46.921875 27.09375 42.890625 30.859375 
Q 38.875 34.625 31.78125 34.625 
z
M 21.921875 38.8125 
Q 15.578125 40.375 12.03125 44.71875 
Q 8.5 49.078125 8.5 55.328125 
Q 8.5 64.0625 14.71875 69.140625 
Q 20.953125 74.21875 31.78125 74.21875 
Q 42.671875 74.21875 48.875 69.140625 
Q 55.078125 64.0625 55.078125 55.328125 
Q 55.078125 49.078125 51.53125 44.71875 
Q 48 40.375 41.703125 38.8125 
Q 48.828125 37.15625 52.796875 32.3125 
Q 56.78125 27.484375 56.78125 20.515625 
Q 56.78125 9.90625 50.3125 4.234375 
Q 43.84375 -1.421875 31.78125 -1.421875 
Q 19.734375 -1.421875 13.25 4.234375 
Q 6.78125 9.90625 6.78125 20.515625 
Q 6.78125 27.484375 10.78125 32.3125 
Q 14.796875 37.15625 21.921875 38.8125 
z
M 18.3125 54.390625 
Q 18.3125 48.734375 21.84375 45.5625 
Q 25.390625 42.390625 31.78125 42.390625 
Q 38.140625 42.390625 41.71875 45.5625 
Q 45.3125 48.734375 45.3125 54.390625 
Q 45.3125 60.0625 41.71875 63.234375 
Q 38.140625 66.40625 31.78125 66.40625 
Q 25.390625 66.40625 21.84375 63.234375 
Q 18.3125 60.0625 18.3125 54.390625 
z
" id="DejaVuSans-56"/>
      </defs>
      <g transform="translate(163.748501 580.516562)scale(0.1 -0.1)">
       <use xlink:href="#DejaVuSans-50"/>
       <use x="63.623047" xlink:href="#DejaVuSans-56"/>
       <use x="127.246094" xlink:href="#DejaVuSans-45"/>
       <use x="163.330078" xlink:href="#DejaVuSans-48"/>
       <use x="226.953125" xlink:href="#DejaVuSans-50"/>
      </g>
     </g>
    </g>
    <g id="xtick_5">
     <g id="line2d_9">
      <path clip-path="url(#pd696096354)" d="M 216.72334 565.918125 
L 216.72334 22.318125 
" style="fill:none;stroke:#b0b0b0;stroke-linecap:square;stroke-width:0.8;"/>
     </g>
     <g id="line2d_10">
      <g>
       <use style="stroke:#000000;stroke-width:0.8;" x="216.72334" xlink:href="#m4cfcf9d88e" y="565.918125"/>
      </g>
     </g>
     <g id="text_5">
      <!-- 02-03 -->
      <defs>
       <path d="M 40.578125 39.3125 
Q 47.65625 37.796875 51.625 33 
Q 55.609375 28.21875 55.609375 21.1875 
Q 55.609375 10.40625 48.1875 4.484375 
Q 40.765625 -1.421875 27.09375 -1.421875 
Q 22.515625 -1.421875 17.65625 -0.515625 
Q 12.796875 0.390625 7.625 2.203125 
L 7.625 11.71875 
Q 11.71875 9.328125 16.59375 8.109375 
Q 21.484375 6.890625 26.8125 6.890625 
Q 36.078125 6.890625 40.9375 10.546875 
Q 45.796875 14.203125 45.796875 21.1875 
Q 45.796875 27.640625 41.28125 31.265625 
Q 36.765625 34.90625 28.71875 34.90625 
L 20.21875 34.90625 
L 20.21875 43.015625 
L 29.109375 43.015625 
Q 36.375 43.015625 40.234375 45.921875 
Q 44.09375 48.828125 44.09375 54.296875 
Q 44.09375 59.90625 40.109375 62.90625 
Q 36.140625 65.921875 28.71875 65.921875 
Q 24.65625 65.921875 20.015625 65.03125 
Q 15.375 64.15625 9.8125 62.3125 
L 9.8125 71.09375 
Q 15.4375 72.65625 20.34375 73.4375 
Q 25.25 74.21875 29.59375 74.21875 
Q 40.828125 74.21875 47.359375 69.109375 
Q 53.90625 64.015625 53.90625 55.328125 
Q 53.90625 49.265625 50.4375 45.09375 
Q 46.96875 40.921875 40.578125 39.3125 
z
" id="DejaVuSans-51"/>
      </defs>
      <g transform="translate(202.194434 580.516562)scale(0.1 -0.1)">
       <use xlink:href="#DejaVuSans-48"/>
       <use x="63.623047" xlink:href="#DejaVuSans-50"/>
       <use x="127.246094" xlink:href="#DejaVuSans-45"/>
       <use x="163.330078" xlink:href="#DejaVuSans-48"/>
       <use x="226.953125" xlink:href="#DejaVuSans-51"/>
      </g>
     </g>
    </g>
    <g id="xtick_6">
     <g id="line2d_11">
      <path clip-path="url(#pd696096354)" d="M 255.169273 565.918125 
L 255.169273 22.318125 
" style="fill:none;stroke:#b0b0b0;stroke-linecap:square;stroke-width:0.8;"/>
     </g>
     <g id="line2d_12">
      <g>
       <use style="stroke:#000000;stroke-width:0.8;" x="255.169273" xlink:href="#m4cfcf9d88e" y="565.918125"/>
      </g>
     </g>
     <g id="text_6">
      <!-- 05-03 -->
      <g transform="translate(240.640367 580.516562)scale(0.1 -0.1)">
       <use xlink:href="#DejaVuSans-48"/>
       <use x="63.623047" xlink:href="#DejaVuSans-53"/>
       <use x="127.246094" xlink:href="#DejaVuSans-45"/>
       <use x="163.330078" xlink:href="#DejaVuSans-48"/>
       <use x="226.953125" xlink:href="#DejaVuSans-51"/>
      </g>
     </g>
    </g>
    <g id="xtick_7">
     <g id="line2d_13">
      <path clip-path="url(#pd696096354)" d="M 293.615206 565.918125 
L 293.615206 22.318125 
" style="fill:none;stroke:#b0b0b0;stroke-linecap:square;stroke-width:0.8;"/>
     </g>
     <g id="line2d_14">
      <g>
       <use style="stroke:#000000;stroke-width:0.8;" x="293.615206" xlink:href="#m4cfcf9d88e" y="565.918125"/>
      </g>
     </g>
     <g id="text_7">
      <!-- 08-03 -->
      <g transform="translate(279.0863 580.516562)scale(0.1 -0.1)">
       <use xlink:href="#DejaVuSans-48"/>
       <use x="63.623047" xlink:href="#DejaVuSans-56"/>
       <use x="127.246094" xlink:href="#DejaVuSans-45"/>
       <use x="163.330078" xlink:href="#DejaVuSans-48"/>
       <use x="226.953125" xlink:href="#DejaVuSans-51"/>
      </g>
     </g>
    </g>
    <g id="xtick_8">
     <g id="line2d_15">
      <path clip-path="url(#pd696096354)" d="M 332.061139 565.918125 
L 332.061139 22.318125 
" style="fill:none;stroke:#b0b0b0;stroke-linecap:square;stroke-width:0.8;"/>
     </g>
     <g id="line2d_16">
      <g>
       <use style="stroke:#000000;stroke-width:0.8;" x="332.061139" xlink:href="#m4cfcf9d88e" y="565.918125"/>
      </g>
     </g>
     <g id="text_8">
      <!-- 11-03 -->
      <g transform="translate(317.532233 580.516562)scale(0.1 -0.1)">
       <use xlink:href="#DejaVuSans-49"/>
       <use x="63.623047" xlink:href="#DejaVuSans-49"/>
       <use x="127.246094" xlink:href="#DejaVuSans-45"/>
       <use x="163.330078" xlink:href="#DejaVuSans-48"/>
       <use x="226.953125" xlink:href="#DejaVuSans-51"/>
      </g>
     </g>
    </g>
    <g id="xtick_9">
     <g id="line2d_17">
      <path clip-path="url(#pd696096354)" d="M 370.507072 565.918125 
L 370.507072 22.318125 
" style="fill:none;stroke:#b0b0b0;stroke-linecap:square;stroke-width:0.8;"/>
     </g>
     <g id="line2d_18">
      <g>
       <use style="stroke:#000000;stroke-width:0.8;" x="370.507072" xlink:href="#m4cfcf9d88e" y="565.918125"/>
      </g>
     </g>
     <g id="text_9">
      <!-- 14-03 -->
      <defs>
       <path d="M 37.796875 64.3125 
L 12.890625 25.390625 
L 37.796875 25.390625 
z
M 35.203125 72.90625 
L 47.609375 72.90625 
L 47.609375 25.390625 
L 58.015625 25.390625 
L 58.015625 17.1875 
L 47.609375 17.1875 
L 47.609375 0 
L 37.796875 0 
L 37.796875 17.1875 
L 4.890625 17.1875 
L 4.890625 26.703125 
z
" id="DejaVuSans-52"/>
      </defs>
      <g transform="translate(355.978166 580.516562)scale(0.1 -0.1)">
       <use xlink:href="#DejaVuSans-49"/>
       <use x="63.623047" xlink:href="#DejaVuSans-52"/>
       <use x="127.246094" xlink:href="#DejaVuSans-45"/>
       <use x="163.330078" xlink:href="#DejaVuSans-48"/>
       <use x="226.953125" xlink:href="#DejaVuSans-51"/>
      </g>
     </g>
    </g>
    <g id="xtick_10">
     <g id="line2d_19">
      <path clip-path="url(#pd696096354)" d="M 408.953005 565.918125 
L 408.953005 22.318125 
" style="fill:none;stroke:#b0b0b0;stroke-linecap:square;stroke-width:0.8;"/>
     </g>
     <g id="line2d_20">
      <g>
       <use style="stroke:#000000;stroke-width:0.8;" x="408.953005" xlink:href="#m4cfcf9d88e" y="565.918125"/>
      </g>
     </g>
     <g id="text_10">
      <!-- 17-03 -->
      <defs>
       <path d="M 8.203125 72.90625 
L 55.078125 72.90625 
L 55.078125 68.703125 
L 28.609375 0 
L 18.3125 0 
L 43.21875 64.59375 
L 8.203125 64.59375 
z
" id="DejaVuSans-55"/>
      </defs>
      <g transform="translate(394.424099 580.516562)scale(0.1 -0.1)">
       <use xlink:href="#DejaVuSans-49"/>
       <use x="63.623047" xlink:href="#DejaVuSans-55"/>
       <use x="127.246094" xlink:href="#DejaVuSans-45"/>
       <use x="163.330078" xlink:href="#DejaVuSans-48"/>
       <use x="226.953125" xlink:href="#DejaVuSans-51"/>
      </g>
     </g>
    </g>
    <g id="xtick_11">
     <g id="line2d_21">
      <path clip-path="url(#pd696096354)" d="M 447.398938 565.918125 
L 447.398938 22.318125 
" style="fill:none;stroke:#b0b0b0;stroke-linecap:square;stroke-width:0.8;"/>
     </g>
     <g id="line2d_22">
      <g>
       <use style="stroke:#000000;stroke-width:0.8;" x="447.398938" xlink:href="#m4cfcf9d88e" y="565.918125"/>
      </g>
     </g>
     <g id="text_11">
      <!-- 20-03 -->
      <g transform="translate(432.870032 580.516562)scale(0.1 -0.1)">
       <use xlink:href="#DejaVuSans-50"/>
       <use x="63.623047" xlink:href="#DejaVuSans-48"/>
       <use x="127.246094" xlink:href="#DejaVuSans-45"/>
       <use x="163.330078" xlink:href="#DejaVuSans-48"/>
       <use x="226.953125" xlink:href="#DejaVuSans-51"/>
      </g>
     </g>
    </g>
    <g id="xtick_12">
     <g id="line2d_23">
      <path clip-path="url(#pd696096354)" d="M 485.844871 565.918125 
L 485.844871 22.318125 
" style="fill:none;stroke:#b0b0b0;stroke-linecap:square;stroke-width:0.8;"/>
     </g>
     <g id="line2d_24">
      <g>
       <use style="stroke:#000000;stroke-width:0.8;" x="485.844871" xlink:href="#m4cfcf9d88e" y="565.918125"/>
      </g>
     </g>
     <g id="text_12">
      <!-- 23-03 -->
      <g transform="translate(471.315965 580.516562)scale(0.1 -0.1)">
       <use xlink:href="#DejaVuSans-50"/>
       <use x="63.623047" xlink:href="#DejaVuSans-51"/>
       <use x="127.246094" xlink:href="#DejaVuSans-45"/>
       <use x="163.330078" xlink:href="#DejaVuSans-48"/>
       <use x="226.953125" xlink:href="#DejaVuSans-51"/>
      </g>
     </g>
    </g>
    <g id="xtick_13">
     <g id="line2d_25">
      <path clip-path="url(#pd696096354)" d="M 524.290804 565.918125 
L 524.290804 22.318125 
" style="fill:none;stroke:#b0b0b0;stroke-linecap:square;stroke-width:0.8;"/>
     </g>
     <g id="line2d_26">
      <g>
       <use style="stroke:#000000;stroke-width:0.8;" x="524.290804" xlink:href="#m4cfcf9d88e" y="565.918125"/>
      </g>
     </g>
     <g id="text_13">
      <!-- 26-03 -->
      <defs>
       <path d="M 33.015625 40.375 
Q 26.375 40.375 22.484375 35.828125 
Q 18.609375 31.296875 18.609375 23.390625 
Q 18.609375 15.53125 22.484375 10.953125 
Q 26.375 6.390625 33.015625 6.390625 
Q 39.65625 6.390625 43.53125 10.953125 
Q 47.40625 15.53125 47.40625 23.390625 
Q 47.40625 31.296875 43.53125 35.828125 
Q 39.65625 40.375 33.015625 40.375 
z
M 52.59375 71.296875 
L 52.59375 62.3125 
Q 48.875 64.0625 45.09375 64.984375 
Q 41.3125 65.921875 37.59375 65.921875 
Q 27.828125 65.921875 22.671875 59.328125 
Q 17.53125 52.734375 16.796875 39.40625 
Q 19.671875 43.65625 24.015625 45.921875 
Q 28.375 48.1875 33.59375 48.1875 
Q 44.578125 48.1875 50.953125 41.515625 
Q 57.328125 34.859375 57.328125 23.390625 
Q 57.328125 12.15625 50.6875 5.359375 
Q 44.046875 -1.421875 33.015625 -1.421875 
Q 20.359375 -1.421875 13.671875 8.265625 
Q 6.984375 17.96875 6.984375 36.375 
Q 6.984375 53.65625 15.1875 63.9375 
Q 23.390625 74.21875 37.203125 74.21875 
Q 40.921875 74.21875 44.703125 73.484375 
Q 48.484375 72.75 52.59375 71.296875 
z
" id="DejaVuSans-54"/>
      </defs>
      <g transform="translate(509.761898 580.516562)scale(0.1 -0.1)">
       <use xlink:href="#DejaVuSans-50"/>
       <use x="63.623047" xlink:href="#DejaVuSans-54"/>
       <use x="127.246094" xlink:href="#DejaVuSans-45"/>
       <use x="163.330078" xlink:href="#DejaVuSans-48"/>
       <use x="226.953125" xlink:href="#DejaVuSans-51"/>
      </g>
     </g>
    </g>
    <g id="xtick_14">
     <g id="line2d_27">
      <path clip-path="url(#pd696096354)" d="M 562.736737 565.918125 
L 562.736737 22.318125 
" style="fill:none;stroke:#b0b0b0;stroke-linecap:square;stroke-width:0.8;"/>
     </g>
     <g id="line2d_28">
      <g>
       <use style="stroke:#000000;stroke-width:0.8;" x="562.736737" xlink:href="#m4cfcf9d88e" y="565.918125"/>
      </g>
     </g>
     <g id="text_14">
      <!-- 29-03 -->
      <g transform="translate(548.207831 580.516562)scale(0.1 -0.1)">
       <use xlink:href="#DejaVuSans-50"/>
       <use x="63.623047" xlink:href="#DejaVuSans-57"/>
       <use x="127.246094" xlink:href="#DejaVuSans-45"/>
       <use x="163.330078" xlink:href="#DejaVuSans-48"/>
       <use x="226.953125" xlink:href="#DejaVuSans-51"/>
      </g>
     </g>
    </g>
    <g id="xtick_15">
     <g id="line2d_29">
      <path clip-path="url(#pd696096354)" d="M 601.18267 565.918125 
L 601.18267 22.318125 
" style="fill:none;stroke:#b0b0b0;stroke-linecap:square;stroke-width:0.8;"/>
     </g>
     <g id="line2d_30">
      <g>
       <use style="stroke:#000000;stroke-width:0.8;" x="601.18267" xlink:href="#m4cfcf9d88e" y="565.918125"/>
      </g>
     </g>
     <g id="text_15">
      <!-- 01-04 -->
      <g transform="translate(586.653764 580.516562)scale(0.1 -0.1)">
       <use xlink:href="#DejaVuSans-48"/>
       <use x="63.623047" xlink:href="#DejaVuSans-49"/>
       <use x="127.246094" xlink:href="#DejaVuSans-45"/>
       <use x="163.330078" xlink:href="#DejaVuSans-48"/>
       <use x="226.953125" xlink:href="#DejaVuSans-52"/>
      </g>
     </g>
    </g>
    <g id="xtick_16">
     <g id="line2d_31">
      <path clip-path="url(#pd696096354)" d="M 639.628603 565.918125 
L 639.628603 22.318125 
" style="fill:none;stroke:#b0b0b0;stroke-linecap:square;stroke-width:0.8;"/>
     </g>
     <g id="line2d_32">
      <g>
       <use style="stroke:#000000;stroke-width:0.8;" x="639.628603" xlink:href="#m4cfcf9d88e" y="565.918125"/>
      </g>
     </g>
     <g id="text_16">
      <!-- 04-04 -->
      <g transform="translate(625.099697 580.516562)scale(0.1 -0.1)">
       <use xlink:href="#DejaVuSans-48"/>
       <use x="63.623047" xlink:href="#DejaVuSans-52"/>
       <use x="127.246094" xlink:href="#DejaVuSans-45"/>
       <use x="163.330078" xlink:href="#DejaVuSans-48"/>
       <use x="226.953125" xlink:href="#DejaVuSans-52"/>
      </g>
     </g>
    </g>
    <g id="xtick_17">
     <g id="line2d_33">
      <path clip-path="url(#pd696096354)" d="M 678.074536 565.918125 
L 678.074536 22.318125 
" style="fill:none;stroke:#b0b0b0;stroke-linecap:square;stroke-width:0.8;"/>
     </g>
     <g id="line2d_34">
      <g>
       <use style="stroke:#000000;stroke-width:0.8;" x="678.074536" xlink:href="#m4cfcf9d88e" y="565.918125"/>
      </g>
     </g>
     <g id="text_17">
      <!-- 07-04 -->
      <g transform="translate(663.54563 580.516562)scale(0.1 -0.1)">
       <use xlink:href="#DejaVuSans-48"/>
       <use x="63.623047" xlink:href="#DejaVuSans-55"/>
       <use x="127.246094" xlink:href="#DejaVuSans-45"/>
       <use x="163.330078" xlink:href="#DejaVuSans-48"/>
       <use x="226.953125" xlink:href="#DejaVuSans-52"/>
      </g>
     </g>
    </g>
    <g id="xtick_18">
     <g id="line2d_35">
      <path clip-path="url(#pd696096354)" d="M 716.520469 565.918125 
L 716.520469 22.318125 
" style="fill:none;stroke:#b0b0b0;stroke-linecap:square;stroke-width:0.8;"/>
     </g>
     <g id="line2d_36">
      <g>
       <use style="stroke:#000000;stroke-width:0.8;" x="716.520469" xlink:href="#m4cfcf9d88e" y="565.918125"/>
      </g>
     </g>
     <g id="text_18">
      <!-- 10-04 -->
      <g transform="translate(701.991563 580.516562)scale(0.1 -0.1)">
       <use xlink:href="#DejaVuSans-49"/>
       <use x="63.623047" xlink:href="#DejaVuSans-48"/>
       <use x="127.246094" xlink:href="#DejaVuSans-45"/>
       <use x="163.330078" xlink:href="#DejaVuSans-48"/>
       <use x="226.953125" xlink:href="#DejaVuSans-52"/>
      </g>
     </g>
    </g>
    <g id="xtick_19">
     <g id="line2d_37">
      <path clip-path="url(#pd696096354)" d="M 754.966403 565.918125 
L 754.966403 22.318125 
" style="fill:none;stroke:#b0b0b0;stroke-linecap:square;stroke-width:0.8;"/>
     </g>
     <g id="line2d_38">
      <g>
       <use style="stroke:#000000;stroke-width:0.8;" x="754.966403" xlink:href="#m4cfcf9d88e" y="565.918125"/>
      </g>
     </g>
     <g id="text_19">
      <!-- 13-04 -->
      <g transform="translate(740.437496 580.516562)scale(0.1 -0.1)">
       <use xlink:href="#DejaVuSans-49"/>
       <use x="63.623047" xlink:href="#DejaVuSans-51"/>
       <use x="127.246094" xlink:href="#DejaVuSans-45"/>
       <use x="163.330078" xlink:href="#DejaVuSans-48"/>
       <use x="226.953125" xlink:href="#DejaVuSans-52"/>
      </g>
     </g>
    </g>
    <g id="xtick_20">
     <g id="line2d_39">
      <path clip-path="url(#pd696096354)" d="M 793.412336 565.918125 
L 793.412336 22.318125 
" style="fill:none;stroke:#b0b0b0;stroke-linecap:square;stroke-width:0.8;"/>
     </g>
     <g id="line2d_40">
      <g>
       <use style="stroke:#000000;stroke-width:0.8;" x="793.412336" xlink:href="#m4cfcf9d88e" y="565.918125"/>
      </g>
     </g>
     <g id="text_20">
      <!-- 16-04 -->
      <g transform="translate(778.883429 580.516562)scale(0.1 -0.1)">
       <use xlink:href="#DejaVuSans-49"/>
       <use x="63.623047" xlink:href="#DejaVuSans-54"/>
       <use x="127.246094" xlink:href="#DejaVuSans-45"/>
       <use x="163.330078" xlink:href="#DejaVuSans-48"/>
       <use x="226.953125" xlink:href="#DejaVuSans-52"/>
      </g>
     </g>
    </g>
    <g id="xtick_21">
     <g id="line2d_41">
      <path clip-path="url(#pd696096354)" d="M 831.858269 565.918125 
L 831.858269 22.318125 
" style="fill:none;stroke:#b0b0b0;stroke-linecap:square;stroke-width:0.8;"/>
     </g>
     <g id="line2d_42">
      <g>
       <use style="stroke:#000000;stroke-width:0.8;" x="831.858269" xlink:href="#m4cfcf9d88e" y="565.918125"/>
      </g>
     </g>
     <g id="text_21">
      <!-- 19-04 -->
      <g transform="translate(817.329362 580.516562)scale(0.1 -0.1)">
       <use xlink:href="#DejaVuSans-49"/>
       <use x="63.623047" xlink:href="#DejaVuSans-57"/>
       <use x="127.246094" xlink:href="#DejaVuSans-45"/>
       <use x="163.330078" xlink:href="#DejaVuSans-48"/>
       <use x="226.953125" xlink:href="#DejaVuSans-52"/>
      </g>
     </g>
    </g>
    <g id="xtick_22">
     <g id="line2d_43">
      <path clip-path="url(#pd696096354)" d="M 870.304202 565.918125 
L 870.304202 22.318125 
" style="fill:none;stroke:#b0b0b0;stroke-linecap:square;stroke-width:0.8;"/>
     </g>
     <g id="line2d_44">
      <g>
       <use style="stroke:#000000;stroke-width:0.8;" x="870.304202" xlink:href="#m4cfcf9d88e" y="565.918125"/>
      </g>
     </g>
     <g id="text_22">
      <!-- 22-04 -->
      <g transform="translate(855.775295 580.516562)scale(0.1 -0.1)">
       <use xlink:href="#DejaVuSans-50"/>
       <use x="63.623047" xlink:href="#DejaVuSans-50"/>
       <use x="127.246094" xlink:href="#DejaVuSans-45"/>
       <use x="163.330078" xlink:href="#DejaVuSans-48"/>
       <use x="226.953125" xlink:href="#DejaVuSans-52"/>
      </g>
     </g>
    </g>
    <g id="xtick_23">
     <g id="line2d_45">
      <path clip-path="url(#pd696096354)" d="M 908.750135 565.918125 
L 908.750135 22.318125 
" style="fill:none;stroke:#b0b0b0;stroke-linecap:square;stroke-width:0.8;"/>
     </g>
     <g id="line2d_46">
      <g>
       <use style="stroke:#000000;stroke-width:0.8;" x="908.750135" xlink:href="#m4cfcf9d88e" y="565.918125"/>
      </g>
     </g>
     <g id="text_23">
      <!-- 25-04 -->
      <g transform="translate(894.221228 580.516562)scale(0.1 -0.1)">
       <use xlink:href="#DejaVuSans-50"/>
       <use x="63.623047" xlink:href="#DejaVuSans-53"/>
       <use x="127.246094" xlink:href="#DejaVuSans-45"/>
       <use x="163.330078" xlink:href="#DejaVuSans-48"/>
       <use x="226.953125" xlink:href="#DejaVuSans-52"/>
      </g>
     </g>
    </g>
    <g id="xtick_24">
     <g id="line2d_47">
      <path clip-path="url(#pd696096354)" d="M 947.196068 565.918125 
L 947.196068 22.318125 
" style="fill:none;stroke:#b0b0b0;stroke-linecap:square;stroke-width:0.8;"/>
     </g>
     <g id="line2d_48">
      <g>
       <use style="stroke:#000000;stroke-width:0.8;" x="947.196068" xlink:href="#m4cfcf9d88e" y="565.918125"/>
      </g>
     </g>
     <g id="text_24">
      <!-- 28-04 -->
      <g transform="translate(932.667161 580.516562)scale(0.1 -0.1)">
       <use xlink:href="#DejaVuSans-50"/>
       <use x="63.623047" xlink:href="#DejaVuSans-56"/>
       <use x="127.246094" xlink:href="#DejaVuSans-45"/>
       <use x="163.330078" xlink:href="#DejaVuSans-48"/>
       <use x="226.953125" xlink:href="#DejaVuSans-52"/>
      </g>
     </g>
    </g>
    <g id="xtick_25">
     <g id="line2d_49">
      <path clip-path="url(#pd696096354)" d="M 985.642001 565.918125 
L 985.642001 22.318125 
" style="fill:none;stroke:#b0b0b0;stroke-linecap:square;stroke-width:0.8;"/>
     </g>
     <g id="line2d_50">
      <g>
       <use style="stroke:#000000;stroke-width:0.8;" x="985.642001" xlink:href="#m4cfcf9d88e" y="565.918125"/>
      </g>
     </g>
     <g id="text_25">
      <!-- 01-05 -->
      <g transform="translate(971.113094 580.516562)scale(0.1 -0.1)">
       <use xlink:href="#DejaVuSans-48"/>
       <use x="63.623047" xlink:href="#DejaVuSans-49"/>
       <use x="127.246094" xlink:href="#DejaVuSans-45"/>
       <use x="163.330078" xlink:href="#DejaVuSans-48"/>
       <use x="226.953125" xlink:href="#DejaVuSans-53"/>
      </g>
     </g>
    </g>
    <g id="xtick_26">
     <g id="line2d_51">
      <path clip-path="url(#pd696096354)" d="M 1024.087934 565.918125 
L 1024.087934 22.318125 
" style="fill:none;stroke:#b0b0b0;stroke-linecap:square;stroke-width:0.8;"/>
     </g>
     <g id="line2d_52">
      <g>
       <use style="stroke:#000000;stroke-width:0.8;" x="1024.087934" xlink:href="#m4cfcf9d88e" y="565.918125"/>
      </g>
     </g>
     <g id="text_26">
      <!-- 04-05 -->
      <g transform="translate(1009.559027 580.516562)scale(0.1 -0.1)">
       <use xlink:href="#DejaVuSans-48"/>
       <use x="63.623047" xlink:href="#DejaVuSans-52"/>
       <use x="127.246094" xlink:href="#DejaVuSans-45"/>
       <use x="163.330078" xlink:href="#DejaVuSans-48"/>
       <use x="226.953125" xlink:href="#DejaVuSans-53"/>
      </g>
     </g>
    </g>
    <g id="xtick_27">
     <g id="line2d_53">
      <path clip-path="url(#pd696096354)" d="M 1062.533867 565.918125 
L 1062.533867 22.318125 
" style="fill:none;stroke:#b0b0b0;stroke-linecap:square;stroke-width:0.8;"/>
     </g>
     <g id="line2d_54">
      <g>
       <use style="stroke:#000000;stroke-width:0.8;" x="1062.533867" xlink:href="#m4cfcf9d88e" y="565.918125"/>
      </g>
     </g>
     <g id="text_27">
      <!-- 07-05 -->
      <g transform="translate(1048.00496 580.516562)scale(0.1 -0.1)">
       <use xlink:href="#DejaVuSans-48"/>
       <use x="63.623047" xlink:href="#DejaVuSans-55"/>
       <use x="127.246094" xlink:href="#DejaVuSans-45"/>
       <use x="163.330078" xlink:href="#DejaVuSans-48"/>
       <use x="226.953125" xlink:href="#DejaVuSans-53"/>
      </g>
     </g>
    </g>
    <g id="xtick_28">
     <g id="line2d_55">
      <path clip-path="url(#pd696096354)" d="M 1100.9798 565.918125 
L 1100.9798 22.318125 
" style="fill:none;stroke:#b0b0b0;stroke-linecap:square;stroke-width:0.8;"/>
     </g>
     <g id="line2d_56">
      <g>
       <use style="stroke:#000000;stroke-width:0.8;" x="1100.9798" xlink:href="#m4cfcf9d88e" y="565.918125"/>
      </g>
     </g>
     <g id="text_28">
      <!-- 10-05 -->
      <g transform="translate(1086.450893 580.516562)scale(0.1 -0.1)">
       <use xlink:href="#DejaVuSans-49"/>
       <use x="63.623047" xlink:href="#DejaVuSans-48"/>
       <use x="127.246094" xlink:href="#DejaVuSans-45"/>
       <use x="163.330078" xlink:href="#DejaVuSans-48"/>
       <use x="226.953125" xlink:href="#DejaVuSans-53"/>
      </g>
     </g>
    </g>
    <g id="xtick_29">
     <g id="line2d_57">
      <path clip-path="url(#pd696096354)" d="M 1139.425733 565.918125 
L 1139.425733 22.318125 
" style="fill:none;stroke:#b0b0b0;stroke-linecap:square;stroke-width:0.8;"/>
     </g>
     <g id="line2d_58">
      <g>
       <use style="stroke:#000000;stroke-width:0.8;" x="1139.425733" xlink:href="#m4cfcf9d88e" y="565.918125"/>
      </g>
     </g>
     <g id="text_29">
      <!-- 13-05 -->
      <g transform="translate(1124.896826 580.516562)scale(0.1 -0.1)">
       <use xlink:href="#DejaVuSans-49"/>
       <use x="63.623047" xlink:href="#DejaVuSans-51"/>
       <use x="127.246094" xlink:href="#DejaVuSans-45"/>
       <use x="163.330078" xlink:href="#DejaVuSans-48"/>
       <use x="226.953125" xlink:href="#DejaVuSans-53"/>
      </g>
     </g>
    </g>
    <g id="xtick_30">
     <g id="line2d_59">
      <path clip-path="url(#pd696096354)" d="M 1177.871666 565.918125 
L 1177.871666 22.318125 
" style="fill:none;stroke:#b0b0b0;stroke-linecap:square;stroke-width:0.8;"/>
     </g>
     <g id="line2d_60">
      <g>
       <use style="stroke:#000000;stroke-width:0.8;" x="1177.871666" xlink:href="#m4cfcf9d88e" y="565.918125"/>
      </g>
     </g>
     <g id="text_30">
      <!-- 16-05 -->
      <g transform="translate(1163.342759 580.516562)scale(0.1 -0.1)">
       <use xlink:href="#DejaVuSans-49"/>
       <use x="63.623047" xlink:href="#DejaVuSans-54"/>
       <use x="127.246094" xlink:href="#DejaVuSans-45"/>
       <use x="163.330078" xlink:href="#DejaVuSans-48"/>
       <use x="226.953125" xlink:href="#DejaVuSans-53"/>
      </g>
     </g>
    </g>
    <g id="xtick_31">
     <g id="line2d_61">
      <path clip-path="url(#pd696096354)" d="M 1216.317599 565.918125 
L 1216.317599 22.318125 
" style="fill:none;stroke:#b0b0b0;stroke-linecap:square;stroke-width:0.8;"/>
     </g>
     <g id="line2d_62">
      <g>
       <use style="stroke:#000000;stroke-width:0.8;" x="1216.317599" xlink:href="#m4cfcf9d88e" y="565.918125"/>
      </g>
     </g>
     <g id="text_31">
      <!-- 19-05 -->
      <g transform="translate(1201.788692 580.516562)scale(0.1 -0.1)">
       <use xlink:href="#DejaVuSans-49"/>
       <use x="63.623047" xlink:href="#DejaVuSans-57"/>
       <use x="127.246094" xlink:href="#DejaVuSans-45"/>
       <use x="163.330078" xlink:href="#DejaVuSans-48"/>
       <use x="226.953125" xlink:href="#DejaVuSans-53"/>
      </g>
     </g>
    </g>
    <g id="xtick_32">
     <g id="line2d_63">
      <path clip-path="url(#pd696096354)" d="M 1254.763532 565.918125 
L 1254.763532 22.318125 
" style="fill:none;stroke:#b0b0b0;stroke-linecap:square;stroke-width:0.8;"/>
     </g>
     <g id="line2d_64">
      <g>
       <use style="stroke:#000000;stroke-width:0.8;" x="1254.763532" xlink:href="#m4cfcf9d88e" y="565.918125"/>
      </g>
     </g>
     <g id="text_32">
      <!-- 22-05 -->
      <g transform="translate(1240.234625 580.516562)scale(0.1 -0.1)">
       <use xlink:href="#DejaVuSans-50"/>
       <use x="63.623047" xlink:href="#DejaVuSans-50"/>
       <use x="127.246094" xlink:href="#DejaVuSans-45"/>
       <use x="163.330078" xlink:href="#DejaVuSans-48"/>
       <use x="226.953125" xlink:href="#DejaVuSans-53"/>
      </g>
     </g>
    </g>
    <g id="xtick_33">
     <g id="line2d_65">
      <path clip-path="url(#pd696096354)" d="M 1293.209465 565.918125 
L 1293.209465 22.318125 
" style="fill:none;stroke:#b0b0b0;stroke-linecap:square;stroke-width:0.8;"/>
     </g>
     <g id="line2d_66">
      <g>
       <use style="stroke:#000000;stroke-width:0.8;" x="1293.209465" xlink:href="#m4cfcf9d88e" y="565.918125"/>
      </g>
     </g>
     <g id="text_33">
      <!-- 25-05 -->
      <g transform="translate(1278.680558 580.516562)scale(0.1 -0.1)">
       <use xlink:href="#DejaVuSans-50"/>
       <use x="63.623047" xlink:href="#DejaVuSans-53"/>
       <use x="127.246094" xlink:href="#DejaVuSans-45"/>
       <use x="163.330078" xlink:href="#DejaVuSans-48"/>
       <use x="226.953125" xlink:href="#DejaVuSans-53"/>
      </g>
     </g>
    </g>
    <g id="xtick_34">
     <g id="line2d_67">
      <path clip-path="url(#pd696096354)" d="M 1331.655398 565.918125 
L 1331.655398 22.318125 
" style="fill:none;stroke:#b0b0b0;stroke-linecap:square;stroke-width:0.8;"/>
     </g>
     <g id="line2d_68">
      <g>
       <use style="stroke:#000000;stroke-width:0.8;" x="1331.655398" xlink:href="#m4cfcf9d88e" y="565.918125"/>
      </g>
     </g>
     <g id="text_34">
      <!-- 28-05 -->
      <g transform="translate(1317.126491 580.516562)scale(0.1 -0.1)">
       <use xlink:href="#DejaVuSans-50"/>
       <use x="63.623047" xlink:href="#DejaVuSans-56"/>
       <use x="127.246094" xlink:href="#DejaVuSans-45"/>
       <use x="163.330078" xlink:href="#DejaVuSans-48"/>
       <use x="226.953125" xlink:href="#DejaVuSans-53"/>
      </g>
     </g>
    </g>
    <g id="xtick_35">
     <g id="line2d_69">
      <path clip-path="url(#pd696096354)" d="M 1370.101331 565.918125 
L 1370.101331 22.318125 
" style="fill:none;stroke:#b0b0b0;stroke-linecap:square;stroke-width:0.8;"/>
     </g>
     <g id="line2d_70">
      <g>
       <use style="stroke:#000000;stroke-width:0.8;" x="1370.101331" xlink:href="#m4cfcf9d88e" y="565.918125"/>
      </g>
     </g>
     <g id="text_35">
      <!-- 31-05 -->
      <g transform="translate(1355.572424 580.516562)scale(0.1 -0.1)">
       <use xlink:href="#DejaVuSans-51"/>
       <use x="63.623047" xlink:href="#DejaVuSans-49"/>
       <use x="127.246094" xlink:href="#DejaVuSans-45"/>
       <use x="163.330078" xlink:href="#DejaVuSans-48"/>
       <use x="226.953125" xlink:href="#DejaVuSans-53"/>
      </g>
     </g>
    </g>
    <g id="text_36">
     <!-- Date -->
     <defs>
      <path d="M 19.671875 64.796875 
L 19.671875 8.109375 
L 31.59375 8.109375 
Q 46.6875 8.109375 53.6875 14.9375 
Q 60.6875 21.78125 60.6875 36.53125 
Q 60.6875 51.171875 53.6875 57.984375 
Q 46.6875 64.796875 31.59375 64.796875 
z
M 9.8125 72.90625 
L 30.078125 72.90625 
Q 51.265625 72.90625 61.171875 64.09375 
Q 71.09375 55.28125 71.09375 36.53125 
Q 71.09375 17.671875 61.125 8.828125 
Q 51.171875 0 30.078125 0 
L 9.8125 0 
z
" id="DejaVuSans-68"/>
      <path d="M 34.28125 27.484375 
Q 23.390625 27.484375 19.1875 25 
Q 14.984375 22.515625 14.984375 16.5 
Q 14.984375 11.71875 18.140625 8.90625 
Q 21.296875 6.109375 26.703125 6.109375 
Q 34.1875 6.109375 38.703125 11.40625 
Q 43.21875 16.703125 43.21875 25.484375 
L 43.21875 27.484375 
z
M 52.203125 31.203125 
L 52.203125 0 
L 43.21875 0 
L 43.21875 8.296875 
Q 40.140625 3.328125 35.546875 0.953125 
Q 30.953125 -1.421875 24.3125 -1.421875 
Q 15.921875 -1.421875 10.953125 3.296875 
Q 6 8.015625 6 15.921875 
Q 6 25.140625 12.171875 29.828125 
Q 18.359375 34.515625 30.609375 34.515625 
L 43.21875 34.515625 
L 43.21875 35.40625 
Q 43.21875 41.609375 39.140625 45 
Q 35.0625 48.390625 27.6875 48.390625 
Q 23 48.390625 18.546875 47.265625 
Q 14.109375 46.140625 10.015625 43.890625 
L 10.015625 52.203125 
Q 14.9375 54.109375 19.578125 55.046875 
Q 24.21875 56 28.609375 56 
Q 40.484375 56 46.34375 49.84375 
Q 52.203125 43.703125 52.203125 31.203125 
z
" id="DejaVuSans-97"/>
      <path d="M 18.3125 70.21875 
L 18.3125 54.6875 
L 36.8125 54.6875 
L 36.8125 47.703125 
L 18.3125 47.703125 
L 18.3125 18.015625 
Q 18.3125 11.328125 20.140625 9.421875 
Q 21.96875 7.515625 27.59375 7.515625 
L 36.8125 7.515625 
L 36.8125 0 
L 27.59375 0 
Q 17.1875 0 13.234375 3.875 
Q 9.28125 7.765625 9.28125 18.015625 
L 9.28125 47.703125 
L 2.6875 47.703125 
L 2.6875 54.6875 
L 9.28125 54.6875 
L 9.28125 70.21875 
z
" id="DejaVuSans-116"/>
      <path d="M 56.203125 29.59375 
L 56.203125 25.203125 
L 14.890625 25.203125 
Q 15.484375 15.921875 20.484375 11.0625 
Q 25.484375 6.203125 34.421875 6.203125 
Q 39.59375 6.203125 44.453125 7.46875 
Q 49.3125 8.734375 54.109375 11.28125 
L 54.109375 2.78125 
Q 49.265625 0.734375 44.1875 -0.34375 
Q 39.109375 -1.421875 33.890625 -1.421875 
Q 20.796875 -1.421875 13.15625 6.1875 
Q 5.515625 13.8125 5.515625 26.8125 
Q 5.515625 40.234375 12.765625 48.109375 
Q 20.015625 56 32.328125 56 
Q 43.359375 56 49.78125 48.890625 
Q 56.203125 41.796875 56.203125 29.59375 
z
M 47.21875 32.234375 
Q 47.125 39.59375 43.09375 43.984375 
Q 39.0625 48.390625 32.421875 48.390625 
Q 24.90625 48.390625 20.390625 44.140625 
Q 15.875 39.890625 15.1875 32.171875 
z
" id="DejaVuSans-101"/>
     </defs>
     <g transform="translate(710.977344 594.194687)scale(0.1 -0.1)">
      <use xlink:href="#DejaVuSans-68"/>
      <use x="77.001953" xlink:href="#DejaVuSans-97"/>
      <use x="138.28125" xlink:href="#DejaVuSans-116"/>
      <use x="177.490234" xlink:href="#DejaVuSans-101"/>
     </g>
    </g>
   </g>
   <g id="matplotlib.axis_2">
    <g id="ytick_1">
     <g id="line2d_71">
      <path clip-path="url(#pd696096354)" d="M 53.328125 532.571302 
L 1392.528125 532.571302 
" style="fill:none;stroke:#b0b0b0;stroke-linecap:square;stroke-width:0.8;"/>
     </g>
     <g id="line2d_72">
      <defs>
       <path d="M 0 0 
L -3.5 0 
" id="m9f55adad68" style="stroke:#000000;stroke-width:0.8;"/>
      </defs>
      <g>
       <use style="stroke:#000000;stroke-width:0.8;" x="53.328125" xlink:href="#m9f55adad68" y="532.571302"/>
      </g>
     </g>
     <g id="text_37">
      <!-- 0 -->
      <g style="fill:#0000ff;" transform="translate(39.965625 536.37052)scale(0.1 -0.1)">
       <use xlink:href="#DejaVuSans-48"/>
      </g>
     </g>
    </g>
    <g id="ytick_2">
     <g id="line2d_73">
      <path clip-path="url(#pd696096354)" d="M 53.328125 471.649835 
L 1392.528125 471.649835 
" style="fill:none;stroke:#b0b0b0;stroke-linecap:square;stroke-width:0.8;"/>
     </g>
     <g id="line2d_74">
      <g>
       <use style="stroke:#000000;stroke-width:0.8;" x="53.328125" xlink:href="#m9f55adad68" y="471.649835"/>
      </g>
     </g>
     <g id="text_38">
      <!-- 500 -->
      <g style="fill:#0000ff;" transform="translate(27.240625 475.449054)scale(0.1 -0.1)">
       <use xlink:href="#DejaVuSans-53"/>
       <use x="63.623047" xlink:href="#DejaVuSans-48"/>
       <use x="127.246094" xlink:href="#DejaVuSans-48"/>
      </g>
     </g>
    </g>
    <g id="ytick_3">
     <g id="line2d_75">
      <path clip-path="url(#pd696096354)" d="M 53.328125 410.728369 
L 1392.528125 410.728369 
" style="fill:none;stroke:#b0b0b0;stroke-linecap:square;stroke-width:0.8;"/>
     </g>
     <g id="line2d_76">
      <g>
       <use style="stroke:#000000;stroke-width:0.8;" x="53.328125" xlink:href="#m9f55adad68" y="410.728369"/>
      </g>
     </g>
     <g id="text_39">
      <!-- 1000 -->
      <g style="fill:#0000ff;" transform="translate(20.878125 414.527588)scale(0.1 -0.1)">
       <use xlink:href="#DejaVuSans-49"/>
       <use x="63.623047" xlink:href="#DejaVuSans-48"/>
       <use x="127.246094" xlink:href="#DejaVuSans-48"/>
       <use x="190.869141" xlink:href="#DejaVuSans-48"/>
      </g>
     </g>
    </g>
    <g id="ytick_4">
     <g id="line2d_77">
      <path clip-path="url(#pd696096354)" d="M 53.328125 349.806903 
L 1392.528125 349.806903 
" style="fill:none;stroke:#b0b0b0;stroke-linecap:square;stroke-width:0.8;"/>
     </g>
     <g id="line2d_78">
      <g>
       <use style="stroke:#000000;stroke-width:0.8;" x="53.328125" xlink:href="#m9f55adad68" y="349.806903"/>
      </g>
     </g>
     <g id="text_40">
      <!-- 1500 -->
      <g style="fill:#0000ff;" transform="translate(20.878125 353.606122)scale(0.1 -0.1)">
       <use xlink:href="#DejaVuSans-49"/>
       <use x="63.623047" xlink:href="#DejaVuSans-53"/>
       <use x="127.246094" xlink:href="#DejaVuSans-48"/>
       <use x="190.869141" xlink:href="#DejaVuSans-48"/>
      </g>
     </g>
    </g>
    <g id="ytick_5">
     <g id="line2d_79">
      <path clip-path="url(#pd696096354)" d="M 53.328125 288.885437 
L 1392.528125 288.885437 
" style="fill:none;stroke:#b0b0b0;stroke-linecap:square;stroke-width:0.8;"/>
     </g>
     <g id="line2d_80">
      <g>
       <use style="stroke:#000000;stroke-width:0.8;" x="53.328125" xlink:href="#m9f55adad68" y="288.885437"/>
      </g>
     </g>
     <g id="text_41">
      <!-- 2000 -->
      <g style="fill:#0000ff;" transform="translate(20.878125 292.684656)scale(0.1 -0.1)">
       <use xlink:href="#DejaVuSans-50"/>
       <use x="63.623047" xlink:href="#DejaVuSans-48"/>
       <use x="127.246094" xlink:href="#DejaVuSans-48"/>
       <use x="190.869141" xlink:href="#DejaVuSans-48"/>
      </g>
     </g>
    </g>
    <g id="ytick_6">
     <g id="line2d_81">
      <path clip-path="url(#pd696096354)" d="M 53.328125 227.963971 
L 1392.528125 227.963971 
" style="fill:none;stroke:#b0b0b0;stroke-linecap:square;stroke-width:0.8;"/>
     </g>
     <g id="line2d_82">
      <g>
       <use style="stroke:#000000;stroke-width:0.8;" x="53.328125" xlink:href="#m9f55adad68" y="227.963971"/>
      </g>
     </g>
     <g id="text_42">
      <!-- 2500 -->
      <g style="fill:#0000ff;" transform="translate(20.878125 231.763189)scale(0.1 -0.1)">
       <use xlink:href="#DejaVuSans-50"/>
       <use x="63.623047" xlink:href="#DejaVuSans-53"/>
       <use x="127.246094" xlink:href="#DejaVuSans-48"/>
       <use x="190.869141" xlink:href="#DejaVuSans-48"/>
      </g>
     </g>
    </g>
    <g id="ytick_7">
     <g id="line2d_83">
      <path clip-path="url(#pd696096354)" d="M 53.328125 167.042504 
L 1392.528125 167.042504 
" style="fill:none;stroke:#b0b0b0;stroke-linecap:square;stroke-width:0.8;"/>
     </g>
     <g id="line2d_84">
      <g>
       <use style="stroke:#000000;stroke-width:0.8;" x="53.328125" xlink:href="#m9f55adad68" y="167.042504"/>
      </g>
     </g>
     <g id="text_43">
      <!-- 3000 -->
      <g style="fill:#0000ff;" transform="translate(20.878125 170.841723)scale(0.1 -0.1)">
       <use xlink:href="#DejaVuSans-51"/>
       <use x="63.623047" xlink:href="#DejaVuSans-48"/>
       <use x="127.246094" xlink:href="#DejaVuSans-48"/>
       <use x="190.869141" xlink:href="#DejaVuSans-48"/>
      </g>
     </g>
    </g>
    <g id="ytick_8">
     <g id="line2d_85">
      <path clip-path="url(#pd696096354)" d="M 53.328125 106.121038 
L 1392.528125 106.121038 
" style="fill:none;stroke:#b0b0b0;stroke-linecap:square;stroke-width:0.8;"/>
     </g>
     <g id="line2d_86">
      <g>
       <use style="stroke:#000000;stroke-width:0.8;" x="53.328125" xlink:href="#m9f55adad68" y="106.121038"/>
      </g>
     </g>
     <g id="text_44">
      <!-- 3500 -->
      <g style="fill:#0000ff;" transform="translate(20.878125 109.920257)scale(0.1 -0.1)">
       <use xlink:href="#DejaVuSans-51"/>
       <use x="63.623047" xlink:href="#DejaVuSans-53"/>
       <use x="127.246094" xlink:href="#DejaVuSans-48"/>
       <use x="190.869141" xlink:href="#DejaVuSans-48"/>
      </g>
     </g>
    </g>
    <g id="ytick_9">
     <g id="line2d_87">
      <path clip-path="url(#pd696096354)" d="M 53.328125 45.199572 
L 1392.528125 45.199572 
" style="fill:none;stroke:#b0b0b0;stroke-linecap:square;stroke-width:0.8;"/>
     </g>
     <g id="line2d_88">
      <g>
       <use style="stroke:#000000;stroke-width:0.8;" x="53.328125" xlink:href="#m9f55adad68" y="45.199572"/>
      </g>
     </g>
     <g id="text_45">
      <!-- 4000 -->
      <g style="fill:#0000ff;" transform="translate(20.878125 48.998791)scale(0.1 -0.1)">
       <use xlink:href="#DejaVuSans-52"/>
       <use x="63.623047" xlink:href="#DejaVuSans-48"/>
       <use x="127.246094" xlink:href="#DejaVuSans-48"/>
       <use x="190.869141" xlink:href="#DejaVuSans-48"/>
      </g>
     </g>
    </g>
    <g id="text_46">
     <!-- Number of CoV-19 Cases per Million -->
     <defs>
      <path d="M 9.8125 72.90625 
L 23.09375 72.90625 
L 55.421875 11.921875 
L 55.421875 72.90625 
L 64.984375 72.90625 
L 64.984375 0 
L 51.703125 0 
L 19.390625 60.984375 
L 19.390625 0 
L 9.8125 0 
z
" id="DejaVuSans-78"/>
      <path d="M 8.5 21.578125 
L 8.5 54.6875 
L 17.484375 54.6875 
L 17.484375 21.921875 
Q 17.484375 14.15625 20.5 10.265625 
Q 23.53125 6.390625 29.59375 6.390625 
Q 36.859375 6.390625 41.078125 11.03125 
Q 45.3125 15.671875 45.3125 23.6875 
L 45.3125 54.6875 
L 54.296875 54.6875 
L 54.296875 0 
L 45.3125 0 
L 45.3125 8.40625 
Q 42.046875 3.421875 37.71875 1 
Q 33.40625 -1.421875 27.6875 -1.421875 
Q 18.265625 -1.421875 13.375 4.4375 
Q 8.5 10.296875 8.5 21.578125 
z
M 31.109375 56 
z
" id="DejaVuSans-117"/>
      <path d="M 52 44.1875 
Q 55.375 50.25 60.0625 53.125 
Q 64.75 56 71.09375 56 
Q 79.640625 56 84.28125 50.015625 
Q 88.921875 44.046875 88.921875 33.015625 
L 88.921875 0 
L 79.890625 0 
L 79.890625 32.71875 
Q 79.890625 40.578125 77.09375 44.375 
Q 74.3125 48.1875 68.609375 48.1875 
Q 61.625 48.1875 57.5625 43.546875 
Q 53.515625 38.921875 53.515625 30.90625 
L 53.515625 0 
L 44.484375 0 
L 44.484375 32.71875 
Q 44.484375 40.625 41.703125 44.40625 
Q 38.921875 48.1875 33.109375 48.1875 
Q 26.21875 48.1875 22.15625 43.53125 
Q 18.109375 38.875 18.109375 30.90625 
L 18.109375 0 
L 9.078125 0 
L 9.078125 54.6875 
L 18.109375 54.6875 
L 18.109375 46.1875 
Q 21.1875 51.21875 25.484375 53.609375 
Q 29.78125 56 35.6875 56 
Q 41.65625 56 45.828125 52.96875 
Q 50 49.953125 52 44.1875 
z
" id="DejaVuSans-109"/>
      <path d="M 48.6875 27.296875 
Q 48.6875 37.203125 44.609375 42.84375 
Q 40.53125 48.484375 33.40625 48.484375 
Q 26.265625 48.484375 22.1875 42.84375 
Q 18.109375 37.203125 18.109375 27.296875 
Q 18.109375 17.390625 22.1875 11.75 
Q 26.265625 6.109375 33.40625 6.109375 
Q 40.53125 6.109375 44.609375 11.75 
Q 48.6875 17.390625 48.6875 27.296875 
z
M 18.109375 46.390625 
Q 20.953125 51.265625 25.265625 53.625 
Q 29.59375 56 35.59375 56 
Q 45.5625 56 51.78125 48.09375 
Q 58.015625 40.1875 58.015625 27.296875 
Q 58.015625 14.40625 51.78125 6.484375 
Q 45.5625 -1.421875 35.59375 -1.421875 
Q 29.59375 -1.421875 25.265625 0.953125 
Q 20.953125 3.328125 18.109375 8.203125 
L 18.109375 0 
L 9.078125 0 
L 9.078125 75.984375 
L 18.109375 75.984375 
z
" id="DejaVuSans-98"/>
      <path d="M 41.109375 46.296875 
Q 39.59375 47.171875 37.8125 47.578125 
Q 36.03125 48 33.890625 48 
Q 26.265625 48 22.1875 43.046875 
Q 18.109375 38.09375 18.109375 28.8125 
L 18.109375 0 
L 9.078125 0 
L 9.078125 54.6875 
L 18.109375 54.6875 
L 18.109375 46.1875 
Q 20.953125 51.171875 25.484375 53.578125 
Q 30.03125 56 36.53125 56 
Q 37.453125 56 38.578125 55.875 
Q 39.703125 55.765625 41.0625 55.515625 
z
" id="DejaVuSans-114"/>
      <path id="DejaVuSans-32"/>
      <path d="M 30.609375 48.390625 
Q 23.390625 48.390625 19.1875 42.75 
Q 14.984375 37.109375 14.984375 27.296875 
Q 14.984375 17.484375 19.15625 11.84375 
Q 23.34375 6.203125 30.609375 6.203125 
Q 37.796875 6.203125 41.984375 11.859375 
Q 46.1875 17.53125 46.1875 27.296875 
Q 46.1875 37.015625 41.984375 42.703125 
Q 37.796875 48.390625 30.609375 48.390625 
z
M 30.609375 56 
Q 42.328125 56 49.015625 48.375 
Q 55.71875 40.765625 55.71875 27.296875 
Q 55.71875 13.875 49.015625 6.21875 
Q 42.328125 -1.421875 30.609375 -1.421875 
Q 18.84375 -1.421875 12.171875 6.21875 
Q 5.515625 13.875 5.515625 27.296875 
Q 5.515625 40.765625 12.171875 48.375 
Q 18.84375 56 30.609375 56 
z
" id="DejaVuSans-111"/>
      <path d="M 37.109375 75.984375 
L 37.109375 68.5 
L 28.515625 68.5 
Q 23.6875 68.5 21.796875 66.546875 
Q 19.921875 64.59375 19.921875 59.515625 
L 19.921875 54.6875 
L 34.71875 54.6875 
L 34.71875 47.703125 
L 19.921875 47.703125 
L 19.921875 0 
L 10.890625 0 
L 10.890625 47.703125 
L 2.296875 47.703125 
L 2.296875 54.6875 
L 10.890625 54.6875 
L 10.890625 58.5 
Q 10.890625 67.625 15.140625 71.796875 
Q 19.390625 75.984375 28.609375 75.984375 
z
" id="DejaVuSans-102"/>
      <path d="M 64.40625 67.28125 
L 64.40625 56.890625 
Q 59.421875 61.53125 53.78125 63.8125 
Q 48.140625 66.109375 41.796875 66.109375 
Q 29.296875 66.109375 22.65625 58.46875 
Q 16.015625 50.828125 16.015625 36.375 
Q 16.015625 21.96875 22.65625 14.328125 
Q 29.296875 6.6875 41.796875 6.6875 
Q 48.140625 6.6875 53.78125 8.984375 
Q 59.421875 11.28125 64.40625 15.921875 
L 64.40625 5.609375 
Q 59.234375 2.09375 53.4375 0.328125 
Q 47.65625 -1.421875 41.21875 -1.421875 
Q 24.65625 -1.421875 15.125 8.703125 
Q 5.609375 18.84375 5.609375 36.375 
Q 5.609375 53.953125 15.125 64.078125 
Q 24.65625 74.21875 41.21875 74.21875 
Q 47.75 74.21875 53.53125 72.484375 
Q 59.328125 70.75 64.40625 67.28125 
z
" id="DejaVuSans-67"/>
      <path d="M 28.609375 0 
L 0.78125 72.90625 
L 11.078125 72.90625 
L 34.1875 11.53125 
L 57.328125 72.90625 
L 67.578125 72.90625 
L 39.796875 0 
z
" id="DejaVuSans-86"/>
      <path d="M 44.28125 53.078125 
L 44.28125 44.578125 
Q 40.484375 46.53125 36.375 47.5 
Q 32.28125 48.484375 27.875 48.484375 
Q 21.1875 48.484375 17.84375 46.4375 
Q 14.5 44.390625 14.5 40.28125 
Q 14.5 37.15625 16.890625 35.375 
Q 19.28125 33.59375 26.515625 31.984375 
L 29.59375 31.296875 
Q 39.15625 29.25 43.1875 25.515625 
Q 47.21875 21.78125 47.21875 15.09375 
Q 47.21875 7.46875 41.1875 3.015625 
Q 35.15625 -1.421875 24.609375 -1.421875 
Q 20.21875 -1.421875 15.453125 -0.5625 
Q 10.6875 0.296875 5.421875 2 
L 5.421875 11.28125 
Q 10.40625 8.6875 15.234375 7.390625 
Q 20.0625 6.109375 24.8125 6.109375 
Q 31.15625 6.109375 34.5625 8.28125 
Q 37.984375 10.453125 37.984375 14.40625 
Q 37.984375 18.0625 35.515625 20.015625 
Q 33.0625 21.96875 24.703125 23.78125 
L 21.578125 24.515625 
Q 13.234375 26.265625 9.515625 29.90625 
Q 5.8125 33.546875 5.8125 39.890625 
Q 5.8125 47.609375 11.28125 51.796875 
Q 16.75 56 26.8125 56 
Q 31.78125 56 36.171875 55.265625 
Q 40.578125 54.546875 44.28125 53.078125 
z
" id="DejaVuSans-115"/>
      <path d="M 18.109375 8.203125 
L 18.109375 -20.796875 
L 9.078125 -20.796875 
L 9.078125 54.6875 
L 18.109375 54.6875 
L 18.109375 46.390625 
Q 20.953125 51.265625 25.265625 53.625 
Q 29.59375 56 35.59375 56 
Q 45.5625 56 51.78125 48.09375 
Q 58.015625 40.1875 58.015625 27.296875 
Q 58.015625 14.40625 51.78125 6.484375 
Q 45.5625 -1.421875 35.59375 -1.421875 
Q 29.59375 -1.421875 25.265625 0.953125 
Q 20.953125 3.328125 18.109375 8.203125 
z
M 48.6875 27.296875 
Q 48.6875 37.203125 44.609375 42.84375 
Q 40.53125 48.484375 33.40625 48.484375 
Q 26.265625 48.484375 22.1875 42.84375 
Q 18.109375 37.203125 18.109375 27.296875 
Q 18.109375 17.390625 22.1875 11.75 
Q 26.265625 6.109375 33.40625 6.109375 
Q 40.53125 6.109375 44.609375 11.75 
Q 48.6875 17.390625 48.6875 27.296875 
z
" id="DejaVuSans-112"/>
      <path d="M 9.8125 72.90625 
L 24.515625 72.90625 
L 43.109375 23.296875 
L 61.8125 72.90625 
L 76.515625 72.90625 
L 76.515625 0 
L 66.890625 0 
L 66.890625 64.015625 
L 48.09375 14.015625 
L 38.1875 14.015625 
L 19.390625 64.015625 
L 19.390625 0 
L 9.8125 0 
z
" id="DejaVuSans-77"/>
      <path d="M 9.421875 54.6875 
L 18.40625 54.6875 
L 18.40625 0 
L 9.421875 0 
z
M 9.421875 75.984375 
L 18.40625 75.984375 
L 18.40625 64.59375 
L 9.421875 64.59375 
z
" id="DejaVuSans-105"/>
      <path d="M 9.421875 75.984375 
L 18.40625 75.984375 
L 18.40625 0 
L 9.421875 0 
z
" id="DejaVuSans-108"/>
      <path d="M 54.890625 33.015625 
L 54.890625 0 
L 45.90625 0 
L 45.90625 32.71875 
Q 45.90625 40.484375 42.875 44.328125 
Q 39.84375 48.1875 33.796875 48.1875 
Q 26.515625 48.1875 22.3125 43.546875 
Q 18.109375 38.921875 18.109375 30.90625 
L 18.109375 0 
L 9.078125 0 
L 9.078125 54.6875 
L 18.109375 54.6875 
L 18.109375 46.1875 
Q 21.34375 51.125 25.703125 53.5625 
Q 30.078125 56 35.796875 56 
Q 45.21875 56 50.046875 50.171875 
Q 54.890625 44.34375 54.890625 33.015625 
z
" id="DejaVuSans-110"/>
     </defs>
     <g transform="translate(14.798437 384.05875)rotate(-90)scale(0.1 -0.1)">
      <use xlink:href="#DejaVuSans-78"/>
      <use x="74.804688" xlink:href="#DejaVuSans-117"/>
      <use x="138.183594" xlink:href="#DejaVuSans-109"/>
      <use x="235.595703" xlink:href="#DejaVuSans-98"/>
      <use x="299.072266" xlink:href="#DejaVuSans-101"/>
      <use x="360.595703" xlink:href="#DejaVuSans-114"/>
      <use x="401.708984" xlink:href="#DejaVuSans-32"/>
      <use x="433.496094" xlink:href="#DejaVuSans-111"/>
      <use x="494.677734" xlink:href="#DejaVuSans-102"/>
      <use x="529.882812" xlink:href="#DejaVuSans-32"/>
      <use x="561.669922" xlink:href="#DejaVuSans-67"/>
      <use x="631.494141" xlink:href="#DejaVuSans-111"/>
      <use x="692.675781" xlink:href="#DejaVuSans-86"/>
      <use x="755.208984" xlink:href="#DejaVuSans-45"/>
      <use x="791.292969" xlink:href="#DejaVuSans-49"/>
      <use x="854.916016" xlink:href="#DejaVuSans-57"/>
      <use x="918.539062" xlink:href="#DejaVuSans-32"/>
      <use x="950.326172" xlink:href="#DejaVuSans-67"/>
      <use x="1020.150391" xlink:href="#DejaVuSans-97"/>
      <use x="1081.429688" xlink:href="#DejaVuSans-115"/>
      <use x="1133.529297" xlink:href="#DejaVuSans-101"/>
      <use x="1195.052734" xlink:href="#DejaVuSans-115"/>
      <use x="1247.152344" xlink:href="#DejaVuSans-32"/>
      <use x="1278.939453" xlink:href="#DejaVuSans-112"/>
      <use x="1342.416016" xlink:href="#DejaVuSans-101"/>
      <use x="1403.939453" xlink:href="#DejaVuSans-114"/>
      <use x="1445.052734" xlink:href="#DejaVuSans-32"/>
      <use x="1476.839844" xlink:href="#DejaVuSans-77"/>
      <use x="1563.119141" xlink:href="#DejaVuSans-105"/>
      <use x="1590.902344" xlink:href="#DejaVuSans-108"/>
      <use x="1618.685547" xlink:href="#DejaVuSans-108"/>
      <use x="1646.46875" xlink:href="#DejaVuSans-105"/>
      <use x="1674.251953" xlink:href="#DejaVuSans-111"/>
      <use x="1735.433594" xlink:href="#DejaVuSans-110"/>
     </g>
    </g>
   </g>
   <g id="line2d_89">
    <path clip-path="url(#pd696096354)" d="M 114.200852 531.08786 
L 127.016163 531.08786 
L 139.831474 531.08786 
L 152.646785 531.08786 
L 165.462096 531.08786 
L 178.277407 531.08786 
L 191.092718 531.08786 
L 203.908029 530.981918 
L 216.72334 530.4838 
L 229.538651 530.616932 
L 242.353962 530.886509 
L 255.169273 531.438773 
L 267.984584 531.189471 
L 280.799895 531.432576 
L 293.615206 532.445787 
L 306.430517 531.495027 
L 319.245828 531.745126 
L 332.061139 530.925117 
L 344.87645 530.878097 
L 357.691761 530.594736 
L 370.507072 530.491962 
L 383.322383 530.202719 
L 396.137694 529.855471 
L 408.953005 529.193992 
L 421.768316 529.039479 
L 434.583627 528.061828 
L 447.398938 526.820522 
L 460.214249 525.060023 
L 473.02956 522.937399 
L 485.844871 522.230273 
L 498.660182 519.355735 
L 511.475493 515.692562 
L 524.290804 512.71185 
L 537.106115 510.838217 
L 549.921426 505.83032 
L 562.736737 504.54151 
L 575.552048 500.503959 
L 588.367359 494.474444 
L 601.18267 487.47925 
L 613.997981 483.905701 
L 626.813292 471.651033 
L 639.628603 461.498052 
L 652.443914 455.402183 
L 665.259225 453.808869 
L 678.074536 444.761427 
L 690.889847 428.190583 
L 703.705158 414.963606 
L 716.520469 401.135254 
L 729.335781 395.994244 
L 742.151092 376.745736 
L 754.966403 372.615747 
L 767.781714 365.913766 
L 780.597025 357.65434 
L 793.412336 350.187984 
L 806.227647 331.553972 
L 819.042958 323.878915 
L 831.858269 311.089263 
L 844.67358 309.899438 
L 857.488891 298.563805 
L 870.304202 293.98117 
L 883.119513 287.980303 
L 895.934824 276.505494 
L 908.750135 260.477349 
L 921.565446 243.852652 
L 934.380757 240.182217 
L 947.196068 237.466239 
L 960.011379 235.566311 
L 972.82669 230.044058 
L 985.642001 227.187767 
L 998.457312 215.097211 
L 1011.272623 206.055717 
L 1024.087934 192.01467 
L 1036.903245 188.278913 
L 1049.718556 184.269231 
L 1062.533867 167.914458 
L 1075.349178 146.819329 
L 1088.164489 133.328542 
L 1100.9798 130.634523 
L 1113.795111 134.554156 
L 1126.610422 127.94989 
L 1139.425733 110.886562 
L 1152.241044 94.886361 
L 1165.056355 84.819043 
L 1177.871666 85.855427 
L 1190.686977 84.232226 
L 1203.502288 83.142338 
L 1216.317599 78.679797 
L 1229.13291 77.770929 
L 1241.948221 74.479911 
L 1254.763532 67.066986 
L 1267.578843 58.188977 
L 1280.394154 50.72251 
L 1293.209465 50.323043 
L 1306.024776 49.87577 
L 1318.840087 58.958366 
L 1331.655398 66.282376 
" style="fill:none;stroke:#1f77b4;stroke-linecap:square;stroke-width:1.5;"/>
   </g>
   <g id="line2d_90">
    <path clip-path="url(#pd696096354)" d="M 114.200852 532.327228 
L 127.016163 532.327228 
L 139.831474 532.327228 
L 152.646785 532.327228 
L 165.462096 532.327228 
L 178.277407 532.327228 
L 191.092718 532.327228 
L 203.908029 532.12497 
L 216.72334 531.461042 
L 229.538651 531.151475 
L 242.353962 531.066411 
L 255.169273 531.65504 
L 267.984584 532.441966 
L 280.799895 533.262244 
L 293.615206 532.292064 
L 306.430517 532.235322 
L 319.245828 532.192058 
L 332.061139 531.828028 
L 344.87645 530.609504 
L 357.691761 529.249708 
L 370.507072 530.547275 
L 383.322383 530.765741 
L 396.137694 529.950733 
L 408.953005 529.216976 
L 421.768316 528.915573 
L 434.583627 528.980504 
L 447.398938 527.542152 
L 460.214249 526.176918 
L 473.02956 524.789139 
L 485.844871 519.974913 
L 498.660182 518.391618 
L 511.475493 515.403586 
L 524.290804 512.461935 
L 537.106115 511.411108 
L 549.921426 501.757232 
L 562.736737 493.212833 
L 575.552048 496.348097 
L 588.367359 472.76475 
L 601.18267 461.156853 
L 613.997981 468.797023 
L 626.813292 454.96874 
L 639.628603 446.243643 
L 652.443914 440.514684 
L 665.259225 440.726255 
L 678.074536 429.850789 
L 690.889847 418.560409 
L 703.705158 417.472407 
L 716.520469 408.233071 
L 729.335781 397.60231 
L 742.151092 385.592395 
L 754.966403 380.428389 
L 767.781714 368.216333 
L 780.597025 354.912151 
L 793.412336 353.703145 
L 806.227647 339.747918 
L 819.042958 327.789258 
L 831.858269 315.682558 
L 844.67358 311.646275 
L 857.488891 300.142117 
L 870.304202 288.190124 
L 883.119513 285.715289 
L 895.934824 273.789116 
L 908.750135 262.960432 
L 921.565446 257.848606 
L 934.380757 249.030615 
L 947.196068 238.246472 
L 960.011379 228.626607 
L 972.82669 225.78607 
L 985.642001 216.949882 
L 998.457312 207.446024 
L 1011.272623 202.985857 
L 1024.087934 200.067947 
L 1036.903245 182.300704 
L 1049.718556 174.27778 
L 1062.533867 169.525714 
L 1075.349178 160.284845 
L 1088.164489 156.068206 
L 1100.9798 149.148959 
L 1113.795111 143.941047 
L 1126.610422 133.530088 
L 1139.425733 124.181865 
L 1152.241044 119.406024 
L 1165.056355 113.045997 
L 1177.871666 104.172566 
L 1190.686977 96.000304 
L 1203.502288 88.076035 
L 1216.317599 81.739453 
L 1229.13291 73.43324 
L 1241.948221 75.476425 
L 1254.763532 69.035936 
L 1267.578843 62.225432 
L 1280.394154 62.291316 
L 1293.209465 58.042864 
L 1306.024776 53.319014 
L 1318.840087 50.450973 
L 1331.655398 52.18091 
" style="fill:none;stroke:#ff7f0e;stroke-linecap:square;stroke-width:1.5;"/>
   </g>
   <g id="line2d_91">
    <path clip-path="url(#pd696096354)" d="M 114.200852 531.030748 
L 127.016163 531.030748 
L 139.831474 531.030748 
L 152.646785 531.030748 
L 165.462096 531.030748 
L 178.277407 531.030748 
L 191.092718 531.030748 
L 203.908029 531.037424 
L 216.72334 530.625532 
L 229.538651 530.637307 
L 242.353962 531.621433 
L 255.169273 531.923794 
L 267.984584 532.092701 
L 280.799895 532.393353 
L 293.615206 532.990499 
L 306.430517 531.995745 
L 319.245828 531.942896 
L 332.061139 532.052767 
L 344.87645 531.485078 
L 357.691761 531.314012 
L 370.507072 531.040605 
L 383.322383 530.980545 
L 396.137694 530.659342 
L 408.953005 529.936469 
L 421.768316 529.856337 
L 434.583627 529.03784 
L 447.398938 528.082718 
L 460.214249 526.456972 
L 473.02956 524.539532 
L 485.844871 523.427685 
L 498.660182 520.724724 
L 511.475493 517.557828 
L 524.290804 515.544027 
L 537.106115 513.399219 
L 549.921426 507.772421 
L 562.736737 505.435428 
L 575.552048 504.00134 
L 588.367359 498.305662 
L 601.18267 492.614202 
L 613.997981 490.091531 
L 626.813292 479.959433 
L 639.628603 472.086853 
L 652.443914 467.055975 
L 665.259225 462.627963 
L 678.074536 450.126039 
L 690.889847 434.140266 
L 703.705158 421.565072 
L 716.520469 409.846083 
L 729.335781 401.942532 
L 742.151092 390.759896 
L 754.966403 384.536268 
L 767.781714 373.011823 
L 780.597025 357.554377 
L 793.412336 348.12865 
L 806.227647 335.655335 
L 819.042958 327.892062 
L 831.858269 320.304673 
L 844.67358 317.289874 
L 857.488891 306.473038 
L 870.304202 297.928568 
L 883.119513 290.204706 
L 895.934824 278.823343 
L 908.750135 269.508889 
L 921.565446 261.454186 
L 934.380757 256.188629 
L 947.196068 247.375796 
L 960.011379 239.222928 
L 972.82669 233.197373 
L 985.642001 187.643669 
L 998.457312 180.008193 
L 1011.272623 176.466653 
L 1024.087934 207.488392 
L 1036.903245 196.373932 
L 1049.718556 186.174228 
L 1062.533867 176.3093 
L 1075.349178 163.491609 
L 1088.164489 157.106022 
L 1100.9798 155.854997 
L 1113.795111 152.341271 
L 1126.610422 140.251777 
L 1139.425733 124.001952 
L 1152.241044 113.354998 
L 1165.056355 107.730813 
L 1177.871666 106.096672 
L 1190.686977 105.385577 
L 1203.502288 97.807994 
L 1216.317599 88.928969 
L 1229.13291 81.739986 
L 1241.948221 79.702143 
L 1254.763532 73.453459 
L 1267.578843 68.342734 
L 1280.394154 63.800283 
L 1293.209465 60.485219 
L 1306.024776 54.25135 
L 1318.840087 53.633579 
L 1331.655398 57.859555 
" style="fill:none;stroke:#2ca02c;stroke-linecap:square;stroke-width:1.5;"/>
   </g>
   <g id="line2d_92">
    <path clip-path="url(#pd696096354)" d="M 114.200852 533.405459 
L 127.016163 533.405459 
L 139.831474 533.405459 
L 152.646785 533.405459 
L 165.462096 533.405459 
L 178.277407 533.405459 
L 191.092718 533.405459 
L 203.908029 534.817867 
L 216.72334 534.891154 
L 229.538651 536.976794 
L 242.353962 534.3204 
L 255.169273 535.351484 
L 267.984584 533.903329 
L 280.799895 532.451559 
L 293.615206 534.066863 
L 306.430517 535.033359 
L 319.245828 535.08584 
L 332.061139 532.756123 
L 344.87645 536.002543 
L 357.691761 536.370265 
L 370.507072 538.457324 
L 383.322383 539.978516 
L 396.137694 537.952124 
L 408.953005 541.048291 
L 421.768316 539.409567 
L 434.583627 541.209034 
L 447.398938 540.38255 
L 460.214249 538.378399 
L 473.02956 538.004383 
L 485.844871 528.572168 
L 498.660182 525.197281 
L 511.475493 515.379258 
L 524.290804 501.276998 
L 537.106115 509.524742 
L 549.921426 501.732841 
L 562.736737 485.005508 
L 575.552048 495.443752 
L 588.367359 469.945989 
L 601.18267 452.16278 
L 613.997981 457.590389 
L 626.813292 452.487332 
L 639.628603 441.81052 
L 652.443914 432.775512 
L 665.259225 434.822293 
L 678.074536 423.223548 
L 690.889847 413.39157 
L 703.705158 409.863275 
L 716.520469 399.376138 
L 729.335781 389.464852 
L 742.151092 380.598087 
L 754.966403 372.725573 
L 767.781714 363.197417 
L 780.597025 355.820856 
L 793.412336 349.314012 
L 806.227647 342.446361 
L 819.042958 326.54704 
L 831.858269 325.315612 
L 844.67358 320.920672 
L 857.488891 301.917837 
L 870.304202 305.039735 
L 883.119513 296.102375 
L 895.934824 279.182447 
L 908.750135 267.378974 
L 921.565446 261.318336 
L 934.380757 249.054936 
L 947.196068 241.841901 
L 960.011379 235.083575 
L 972.82669 223.711676 
L 985.642001 218.099069 
L 998.457312 203.851296 
L 1011.272623 204.724 
L 1024.087934 188.658738 
L 1036.903245 179.427199 
L 1049.718556 180.922025 
L 1062.533867 168.187616 
L 1075.349178 152.768345 
L 1088.164489 144.541407 
L 1100.9798 146.062073 
L 1113.795111 130.111905 
L 1126.610422 120.021458 
L 1139.425733 129.612506 
L 1152.241044 126.893819 
L 1165.056355 146.391927 
L 1177.871666 118.263656 
L 1190.686977 147.316552 
L 1203.502288 129.561186 
L 1216.317599 87.155993 
L 1229.13291 99.678847 
L 1241.948221 100.436816 
L 1254.763532 102.156322 
L 1267.578843 101.174537 
L 1280.394154 144.420228 
L 1293.209465 125.383632 
L 1306.024776 134.124171 
L 1318.840087 180.384445 
L 1331.655398 160.005045 
" style="fill:none;stroke:#d62728;stroke-linecap:square;stroke-width:1.5;"/>
   </g>
   <g id="patch_3">
    <path d="M 53.328125 565.918125 
L 53.328125 22.318125 
" style="fill:none;stroke:#000000;stroke-linecap:square;stroke-linejoin:miter;stroke-width:0.8;"/>
   </g>
   <g id="patch_4">
    <path d="M 1392.528125 565.918125 
L 1392.528125 22.318125 
" style="fill:none;stroke:#000000;stroke-linecap:square;stroke-linejoin:miter;stroke-width:0.8;"/>
   </g>
   <g id="patch_5">
    <path d="M 53.328125 565.918125 
L 1392.528125 565.918125 
" style="fill:none;stroke:#000000;stroke-linecap:square;stroke-linejoin:miter;stroke-width:0.8;"/>
   </g>
   <g id="patch_6">
    <path d="M 53.328125 22.318125 
L 1392.528125 22.318125 
" style="fill:none;stroke:#000000;stroke-linecap:square;stroke-linejoin:miter;stroke-width:0.8;"/>
   </g>
   <g id="text_47">
    <!-- Evolution of CoV-19 Cases per Million -->
    <defs>
     <path d="M 9.8125 72.90625 
L 55.90625 72.90625 
L 55.90625 64.59375 
L 19.671875 64.59375 
L 19.671875 43.015625 
L 54.390625 43.015625 
L 54.390625 34.71875 
L 19.671875 34.71875 
L 19.671875 8.296875 
L 56.78125 8.296875 
L 56.78125 0 
L 9.8125 0 
z
" id="DejaVuSans-69"/>
     <path d="M 2.984375 54.6875 
L 12.5 54.6875 
L 29.59375 8.796875 
L 46.6875 54.6875 
L 56.203125 54.6875 
L 35.6875 0 
L 23.484375 0 
z
" id="DejaVuSans-118"/>
    </defs>
    <g transform="translate(611.126562 16.318125)scale(0.12 -0.12)">
     <use xlink:href="#DejaVuSans-69"/>
     <use x="63.183594" xlink:href="#DejaVuSans-118"/>
     <use x="122.363281" xlink:href="#DejaVuSans-111"/>
     <use x="183.544922" xlink:href="#DejaVuSans-108"/>
     <use x="211.328125" xlink:href="#DejaVuSans-117"/>
     <use x="274.707031" xlink:href="#DejaVuSans-116"/>
     <use x="313.916016" xlink:href="#DejaVuSans-105"/>
     <use x="341.699219" xlink:href="#DejaVuSans-111"/>
     <use x="402.880859" xlink:href="#DejaVuSans-110"/>
     <use x="466.259766" xlink:href="#DejaVuSans-32"/>
     <use x="498.046875" xlink:href="#DejaVuSans-111"/>
     <use x="559.228516" xlink:href="#DejaVuSans-102"/>
     <use x="594.433594" xlink:href="#DejaVuSans-32"/>
     <use x="626.220703" xlink:href="#DejaVuSans-67"/>
     <use x="696.044922" xlink:href="#DejaVuSans-111"/>
     <use x="757.226562" xlink:href="#DejaVuSans-86"/>
     <use x="819.759766" xlink:href="#DejaVuSans-45"/>
     <use x="855.84375" xlink:href="#DejaVuSans-49"/>
     <use x="919.466797" xlink:href="#DejaVuSans-57"/>
     <use x="983.089844" xlink:href="#DejaVuSans-32"/>
     <use x="1014.876953" xlink:href="#DejaVuSans-67"/>
     <use x="1084.701172" xlink:href="#DejaVuSans-97"/>
     <use x="1145.980469" xlink:href="#DejaVuSans-115"/>
     <use x="1198.080078" xlink:href="#DejaVuSans-101"/>
     <use x="1259.603516" xlink:href="#DejaVuSans-115"/>
     <use x="1311.703125" xlink:href="#DejaVuSans-32"/>
     <use x="1343.490234" xlink:href="#DejaVuSans-112"/>
     <use x="1406.966797" xlink:href="#DejaVuSans-101"/>
     <use x="1468.490234" xlink:href="#DejaVuSans-114"/>
     <use x="1509.603516" xlink:href="#DejaVuSans-32"/>
     <use x="1541.390625" xlink:href="#DejaVuSans-77"/>
     <use x="1627.669922" xlink:href="#DejaVuSans-105"/>
     <use x="1655.453125" xlink:href="#DejaVuSans-108"/>
     <use x="1683.236328" xlink:href="#DejaVuSans-108"/>
     <use x="1711.019531" xlink:href="#DejaVuSans-105"/>
     <use x="1738.802734" xlink:href="#DejaVuSans-111"/>
     <use x="1799.984375" xlink:href="#DejaVuSans-110"/>
    </g>
   </g>
   <g id="legend_1">
    <g id="patch_7">
     <path d="M 60.328125 89.030625 
L 256.19375 89.030625 
Q 258.19375 89.030625 258.19375 87.030625 
L 258.19375 29.318125 
Q 258.19375 27.318125 256.19375 27.318125 
L 60.328125 27.318125 
Q 58.328125 27.318125 58.328125 29.318125 
L 58.328125 87.030625 
Q 58.328125 89.030625 60.328125 89.030625 
z
" style="fill:#ffffff;opacity:0.8;stroke:#cccccc;stroke-linejoin:miter;"/>
    </g>
    <g id="line2d_93">
     <path d="M 62.328125 35.416562 
L 82.328125 35.416562 
" style="fill:none;stroke:#1f77b4;stroke-linecap:square;stroke-width:1.5;"/>
    </g>
    <g id="line2d_94"/>
    <g id="text_48">
     <!-- Linear Regression -->
     <defs>
      <path d="M 9.8125 72.90625 
L 19.671875 72.90625 
L 19.671875 8.296875 
L 55.171875 8.296875 
L 55.171875 0 
L 9.8125 0 
z
" id="DejaVuSans-76"/>
      <path d="M 44.390625 34.1875 
Q 47.5625 33.109375 50.5625 29.59375 
Q 53.5625 26.078125 56.59375 19.921875 
L 66.609375 0 
L 56 0 
L 46.6875 18.703125 
Q 43.0625 26.03125 39.671875 28.421875 
Q 36.28125 30.8125 30.421875 30.8125 
L 19.671875 30.8125 
L 19.671875 0 
L 9.8125 0 
L 9.8125 72.90625 
L 32.078125 72.90625 
Q 44.578125 72.90625 50.734375 67.671875 
Q 56.890625 62.453125 56.890625 51.90625 
Q 56.890625 45.015625 53.6875 40.46875 
Q 50.484375 35.9375 44.390625 34.1875 
z
M 19.671875 64.796875 
L 19.671875 38.921875 
L 32.078125 38.921875 
Q 39.203125 38.921875 42.84375 42.21875 
Q 46.484375 45.515625 46.484375 51.90625 
Q 46.484375 58.296875 42.84375 61.546875 
Q 39.203125 64.796875 32.078125 64.796875 
z
" id="DejaVuSans-82"/>
      <path d="M 45.40625 27.984375 
Q 45.40625 37.75 41.375 43.109375 
Q 37.359375 48.484375 30.078125 48.484375 
Q 22.859375 48.484375 18.828125 43.109375 
Q 14.796875 37.75 14.796875 27.984375 
Q 14.796875 18.265625 18.828125 12.890625 
Q 22.859375 7.515625 30.078125 7.515625 
Q 37.359375 7.515625 41.375 12.890625 
Q 45.40625 18.265625 45.40625 27.984375 
z
M 54.390625 6.78125 
Q 54.390625 -7.171875 48.1875 -13.984375 
Q 42 -20.796875 29.203125 -20.796875 
Q 24.46875 -20.796875 20.265625 -20.09375 
Q 16.0625 -19.390625 12.109375 -17.921875 
L 12.109375 -9.1875 
Q 16.0625 -11.328125 19.921875 -12.34375 
Q 23.78125 -13.375 27.78125 -13.375 
Q 36.625 -13.375 41.015625 -8.765625 
Q 45.40625 -4.15625 45.40625 5.171875 
L 45.40625 9.625 
Q 42.625 4.78125 38.28125 2.390625 
Q 33.9375 0 27.875 0 
Q 17.828125 0 11.671875 7.65625 
Q 5.515625 15.328125 5.515625 27.984375 
Q 5.515625 40.671875 11.671875 48.328125 
Q 17.828125 56 27.875 56 
Q 33.9375 56 38.28125 53.609375 
Q 42.625 51.21875 45.40625 46.390625 
L 45.40625 54.6875 
L 54.390625 54.6875 
z
" id="DejaVuSans-103"/>
     </defs>
     <g transform="translate(90.328125 38.916562)scale(0.1 -0.1)">
      <use xlink:href="#DejaVuSans-76"/>
      <use x="55.712891" xlink:href="#DejaVuSans-105"/>
      <use x="83.496094" xlink:href="#DejaVuSans-110"/>
      <use x="146.875" xlink:href="#DejaVuSans-101"/>
      <use x="208.398438" xlink:href="#DejaVuSans-97"/>
      <use x="269.677734" xlink:href="#DejaVuSans-114"/>
      <use x="310.791016" xlink:href="#DejaVuSans-32"/>
      <use x="342.578125" xlink:href="#DejaVuSans-82"/>
      <use x="407.560547" xlink:href="#DejaVuSans-101"/>
      <use x="469.083984" xlink:href="#DejaVuSans-103"/>
      <use x="532.560547" xlink:href="#DejaVuSans-114"/>
      <use x="571.423828" xlink:href="#DejaVuSans-101"/>
      <use x="632.947266" xlink:href="#DejaVuSans-115"/>
      <use x="685.046875" xlink:href="#DejaVuSans-115"/>
      <use x="737.146484" xlink:href="#DejaVuSans-105"/>
      <use x="764.929688" xlink:href="#DejaVuSans-111"/>
      <use x="826.111328" xlink:href="#DejaVuSans-110"/>
     </g>
    </g>
    <g id="line2d_95">
     <path d="M 62.328125 50.094687 
L 82.328125 50.094687 
" style="fill:none;stroke:#ff7f0e;stroke-linecap:square;stroke-width:1.5;"/>
    </g>
    <g id="line2d_96"/>
    <g id="text_49">
     <!-- SVR Polynomial Kernel -->
     <defs>
      <path d="M 53.515625 70.515625 
L 53.515625 60.890625 
Q 47.90625 63.578125 42.921875 64.890625 
Q 37.9375 66.21875 33.296875 66.21875 
Q 25.25 66.21875 20.875 63.09375 
Q 16.5 59.96875 16.5 54.203125 
Q 16.5 49.359375 19.40625 46.890625 
Q 22.3125 44.4375 30.421875 42.921875 
L 36.375 41.703125 
Q 47.40625 39.59375 52.65625 34.296875 
Q 57.90625 29 57.90625 20.125 
Q 57.90625 9.515625 50.796875 4.046875 
Q 43.703125 -1.421875 29.984375 -1.421875 
Q 24.8125 -1.421875 18.96875 -0.25 
Q 13.140625 0.921875 6.890625 3.21875 
L 6.890625 13.375 
Q 12.890625 10.015625 18.65625 8.296875 
Q 24.421875 6.59375 29.984375 6.59375 
Q 38.421875 6.59375 43.015625 9.90625 
Q 47.609375 13.234375 47.609375 19.390625 
Q 47.609375 24.75 44.3125 27.78125 
Q 41.015625 30.8125 33.5 32.328125 
L 27.484375 33.5 
Q 16.453125 35.6875 11.515625 40.375 
Q 6.59375 45.0625 6.59375 53.421875 
Q 6.59375 63.09375 13.40625 68.65625 
Q 20.21875 74.21875 32.171875 74.21875 
Q 37.3125 74.21875 42.625 73.28125 
Q 47.953125 72.359375 53.515625 70.515625 
z
" id="DejaVuSans-83"/>
      <path d="M 19.671875 64.796875 
L 19.671875 37.40625 
L 32.078125 37.40625 
Q 38.96875 37.40625 42.71875 40.96875 
Q 46.484375 44.53125 46.484375 51.125 
Q 46.484375 57.671875 42.71875 61.234375 
Q 38.96875 64.796875 32.078125 64.796875 
z
M 9.8125 72.90625 
L 32.078125 72.90625 
Q 44.34375 72.90625 50.609375 67.359375 
Q 56.890625 61.8125 56.890625 51.125 
Q 56.890625 40.328125 50.609375 34.8125 
Q 44.34375 29.296875 32.078125 29.296875 
L 19.671875 29.296875 
L 19.671875 0 
L 9.8125 0 
z
" id="DejaVuSans-80"/>
      <path d="M 32.171875 -5.078125 
Q 28.375 -14.84375 24.75 -17.8125 
Q 21.140625 -20.796875 15.09375 -20.796875 
L 7.90625 -20.796875 
L 7.90625 -13.28125 
L 13.1875 -13.28125 
Q 16.890625 -13.28125 18.9375 -11.515625 
Q 21 -9.765625 23.484375 -3.21875 
L 25.09375 0.875 
L 2.984375 54.6875 
L 12.5 54.6875 
L 29.59375 11.921875 
L 46.6875 54.6875 
L 56.203125 54.6875 
z
" id="DejaVuSans-121"/>
      <path d="M 9.8125 72.90625 
L 19.671875 72.90625 
L 19.671875 42.09375 
L 52.390625 72.90625 
L 65.09375 72.90625 
L 28.90625 38.921875 
L 67.671875 0 
L 54.6875 0 
L 19.671875 35.109375 
L 19.671875 0 
L 9.8125 0 
z
" id="DejaVuSans-75"/>
     </defs>
     <g transform="translate(90.328125 53.594687)scale(0.1 -0.1)">
      <use xlink:href="#DejaVuSans-83"/>
      <use x="63.476562" xlink:href="#DejaVuSans-86"/>
      <use x="131.884766" xlink:href="#DejaVuSans-82"/>
      <use x="201.367188" xlink:href="#DejaVuSans-32"/>
      <use x="233.154297" xlink:href="#DejaVuSans-80"/>
      <use x="289.832031" xlink:href="#DejaVuSans-111"/>
      <use x="351.013672" xlink:href="#DejaVuSans-108"/>
      <use x="378.796875" xlink:href="#DejaVuSans-121"/>
      <use x="437.976562" xlink:href="#DejaVuSans-110"/>
      <use x="501.355469" xlink:href="#DejaVuSans-111"/>
      <use x="562.537109" xlink:href="#DejaVuSans-109"/>
      <use x="659.949219" xlink:href="#DejaVuSans-105"/>
      <use x="687.732422" xlink:href="#DejaVuSans-97"/>
      <use x="749.011719" xlink:href="#DejaVuSans-108"/>
      <use x="776.794922" xlink:href="#DejaVuSans-32"/>
      <use x="808.582031" xlink:href="#DejaVuSans-75"/>
      <use x="869.158203" xlink:href="#DejaVuSans-101"/>
      <use x="930.681641" xlink:href="#DejaVuSans-114"/>
      <use x="970.044922" xlink:href="#DejaVuSans-110"/>
      <use x="1033.423828" xlink:href="#DejaVuSans-101"/>
      <use x="1094.947266" xlink:href="#DejaVuSans-108"/>
     </g>
    </g>
    <g id="line2d_97">
     <path d="M 62.328125 64.772812 
L 82.328125 64.772812 
" style="fill:none;stroke:#2ca02c;stroke-linecap:square;stroke-width:1.5;"/>
    </g>
    <g id="line2d_98"/>
    <g id="text_50">
     <!-- SVR Linear Kernel -->
     <g transform="translate(90.328125 68.272812)scale(0.1 -0.1)">
      <use xlink:href="#DejaVuSans-83"/>
      <use x="63.476562" xlink:href="#DejaVuSans-86"/>
      <use x="131.884766" xlink:href="#DejaVuSans-82"/>
      <use x="201.367188" xlink:href="#DejaVuSans-32"/>
      <use x="233.154297" xlink:href="#DejaVuSans-76"/>
      <use x="288.867188" xlink:href="#DejaVuSans-105"/>
      <use x="316.650391" xlink:href="#DejaVuSans-110"/>
      <use x="380.029297" xlink:href="#DejaVuSans-101"/>
      <use x="441.552734" xlink:href="#DejaVuSans-97"/>
      <use x="502.832031" xlink:href="#DejaVuSans-114"/>
      <use x="543.945312" xlink:href="#DejaVuSans-32"/>
      <use x="575.732422" xlink:href="#DejaVuSans-75"/>
      <use x="636.308594" xlink:href="#DejaVuSans-101"/>
      <use x="697.832031" xlink:href="#DejaVuSans-114"/>
      <use x="737.195312" xlink:href="#DejaVuSans-110"/>
      <use x="800.574219" xlink:href="#DejaVuSans-101"/>
      <use x="862.097656" xlink:href="#DejaVuSans-108"/>
     </g>
    </g>
    <g id="line2d_99">
     <path d="M 62.328125 79.450937 
L 82.328125 79.450937 
" style="fill:none;stroke:#d62728;stroke-linecap:square;stroke-width:1.5;"/>
    </g>
    <g id="line2d_100"/>
    <g id="text_51">
     <!-- SVR Radial Basis Function Kernel -->
     <defs>
      <path d="M 45.40625 46.390625 
L 45.40625 75.984375 
L 54.390625 75.984375 
L 54.390625 0 
L 45.40625 0 
L 45.40625 8.203125 
Q 42.578125 3.328125 38.25 0.953125 
Q 33.9375 -1.421875 27.875 -1.421875 
Q 17.96875 -1.421875 11.734375 6.484375 
Q 5.515625 14.40625 5.515625 27.296875 
Q 5.515625 40.1875 11.734375 48.09375 
Q 17.96875 56 27.875 56 
Q 33.9375 56 38.25 53.625 
Q 42.578125 51.265625 45.40625 46.390625 
z
M 14.796875 27.296875 
Q 14.796875 17.390625 18.875 11.75 
Q 22.953125 6.109375 30.078125 6.109375 
Q 37.203125 6.109375 41.296875 11.75 
Q 45.40625 17.390625 45.40625 27.296875 
Q 45.40625 37.203125 41.296875 42.84375 
Q 37.203125 48.484375 30.078125 48.484375 
Q 22.953125 48.484375 18.875 42.84375 
Q 14.796875 37.203125 14.796875 27.296875 
z
" id="DejaVuSans-100"/>
      <path d="M 19.671875 34.8125 
L 19.671875 8.109375 
L 35.5 8.109375 
Q 43.453125 8.109375 47.28125 11.40625 
Q 51.125 14.703125 51.125 21.484375 
Q 51.125 28.328125 47.28125 31.5625 
Q 43.453125 34.8125 35.5 34.8125 
z
M 19.671875 64.796875 
L 19.671875 42.828125 
L 34.28125 42.828125 
Q 41.5 42.828125 45.03125 45.53125 
Q 48.578125 48.25 48.578125 53.8125 
Q 48.578125 59.328125 45.03125 62.0625 
Q 41.5 64.796875 34.28125 64.796875 
z
M 9.8125 72.90625 
L 35.015625 72.90625 
Q 46.296875 72.90625 52.390625 68.21875 
Q 58.5 63.53125 58.5 54.890625 
Q 58.5 48.1875 55.375 44.234375 
Q 52.25 40.28125 46.1875 39.3125 
Q 53.46875 37.75 57.5 32.78125 
Q 61.53125 27.828125 61.53125 20.40625 
Q 61.53125 10.640625 54.890625 5.3125 
Q 48.25 0 35.984375 0 
L 9.8125 0 
z
" id="DejaVuSans-66"/>
      <path d="M 9.8125 72.90625 
L 51.703125 72.90625 
L 51.703125 64.59375 
L 19.671875 64.59375 
L 19.671875 43.109375 
L 48.578125 43.109375 
L 48.578125 34.8125 
L 19.671875 34.8125 
L 19.671875 0 
L 9.8125 0 
z
" id="DejaVuSans-70"/>
      <path d="M 48.78125 52.59375 
L 48.78125 44.1875 
Q 44.96875 46.296875 41.140625 47.34375 
Q 37.3125 48.390625 33.40625 48.390625 
Q 24.65625 48.390625 19.8125 42.84375 
Q 14.984375 37.3125 14.984375 27.296875 
Q 14.984375 17.28125 19.8125 11.734375 
Q 24.65625 6.203125 33.40625 6.203125 
Q 37.3125 6.203125 41.140625 7.25 
Q 44.96875 8.296875 48.78125 10.40625 
L 48.78125 2.09375 
Q 45.015625 0.34375 40.984375 -0.53125 
Q 36.96875 -1.421875 32.421875 -1.421875 
Q 20.0625 -1.421875 12.78125 6.34375 
Q 5.515625 14.109375 5.515625 27.296875 
Q 5.515625 40.671875 12.859375 48.328125 
Q 20.21875 56 33.015625 56 
Q 37.15625 56 41.109375 55.140625 
Q 45.0625 54.296875 48.78125 52.59375 
z
" id="DejaVuSans-99"/>
     </defs>
     <g transform="translate(90.328125 82.950937)scale(0.1 -0.1)">
      <use xlink:href="#DejaVuSans-83"/>
      <use x="63.476562" xlink:href="#DejaVuSans-86"/>
      <use x="131.884766" xlink:href="#DejaVuSans-82"/>
      <use x="201.367188" xlink:href="#DejaVuSans-32"/>
      <use x="233.154297" xlink:href="#DejaVuSans-82"/>
      <use x="300.386719" xlink:href="#DejaVuSans-97"/>
      <use x="361.666016" xlink:href="#DejaVuSans-100"/>
      <use x="425.142578" xlink:href="#DejaVuSans-105"/>
      <use x="452.925781" xlink:href="#DejaVuSans-97"/>
      <use x="514.205078" xlink:href="#DejaVuSans-108"/>
      <use x="541.988281" xlink:href="#DejaVuSans-32"/>
      <use x="573.775391" xlink:href="#DejaVuSans-66"/>
      <use x="642.378906" xlink:href="#DejaVuSans-97"/>
      <use x="703.658203" xlink:href="#DejaVuSans-115"/>
      <use x="755.757812" xlink:href="#DejaVuSans-105"/>
      <use x="783.541016" xlink:href="#DejaVuSans-115"/>
      <use x="835.640625" xlink:href="#DejaVuSans-32"/>
      <use x="867.427734" xlink:href="#DejaVuSans-70"/>
      <use x="919.447266" xlink:href="#DejaVuSans-117"/>
      <use x="982.826172" xlink:href="#DejaVuSans-110"/>
      <use x="1046.205078" xlink:href="#DejaVuSans-99"/>
      <use x="1101.185547" xlink:href="#DejaVuSans-116"/>
      <use x="1140.394531" xlink:href="#DejaVuSans-105"/>
      <use x="1168.177734" xlink:href="#DejaVuSans-111"/>
      <use x="1229.359375" xlink:href="#DejaVuSans-110"/>
      <use x="1292.738281" xlink:href="#DejaVuSans-32"/>
      <use x="1324.525391" xlink:href="#DejaVuSans-75"/>
      <use x="1385.101562" xlink:href="#DejaVuSans-101"/>
      <use x="1446.625" xlink:href="#DejaVuSans-114"/>
      <use x="1485.988281" xlink:href="#DejaVuSans-110"/>
      <use x="1549.367188" xlink:href="#DejaVuSans-101"/>
      <use x="1610.890625" xlink:href="#DejaVuSans-108"/>
     </g>
    </g>
   </g>
  </g>
 </g>
 <defs>
  <clipPath id="pd696096354">
   <rect height="543.6" width="1339.2" x="53.328125" y="22.318125"/>
  </clipPath>
 </defs>
</svg>
