<?xml version="1.0" encoding="utf-8" standalone="no"?>
<!DOCTYPE svg PUBLIC "-//W3C//DTD SVG 1.1//EN"
  "http://www.w3.org/Graphics/SVG/1.1/DTD/svg11.dtd">
<!-- Created with matplotlib (https://matplotlib.org/) -->
<svg height="711.274375pt" version="1.1" viewBox="0 0 1718.695724 711.274375" width="1718.695724pt" xmlns="http://www.w3.org/2000/svg" xmlns:xlink="http://www.w3.org/1999/xlink">
 <defs>
  <style type="text/css">
*{stroke-linecap:butt;stroke-linejoin:round;}
  </style>
 </defs>
 <g id="figure_1">
  <g id="patch_1">
   <path d="M 0 711.274375 
L 1718.695724 711.274375 
L 1718.695724 0 
L 0 0 
z
" style="fill:none;"/>
  </g>
  <g id="axes_1">
   <g id="patch_2">
    <path d="M 53.328125 673.718125 
L 1694.214608 673.718125 
L 1694.214608 22.318125 
L 53.328125 22.318125 
z
" style="fill:#ffffff;"/>
   </g>
   <g id="PathCollection_1">
    <defs>
     <path d="M 0 3 
C 0.795609 3 1.55874 2.683901 2.12132 2.12132 
C 2.683901 1.55874 3 0.795609 3 0 
C 3 -0.795609 2.683901 -1.55874 2.12132 -2.12132 
C 1.55874 -2.683901 0.795609 -3 0 -3 
C -0.795609 -3 -1.55874 -2.683901 -2.12132 -2.12132 
C -2.683901 -1.55874 -3 -0.795609 -3 0 
C -3 0.795609 -2.683901 1.55874 -2.12132 2.12132 
C -1.55874 2.683901 -0.795609 3 0 3 
z
" id="m564bf501c0" style="stroke:#ff8c00;"/>
    </defs>
    <g clip-path="url(#p664cfa9eb9)">
     <use style="fill:#ff8c00;stroke:#ff8c00;" x="127.913874" xlink:href="#m564bf501c0" y="644.109034"/>
     <use style="fill:#ff8c00;stroke:#ff8c00;" x="143.616137" xlink:href="#m564bf501c0" y="644.109034"/>
     <use style="fill:#ff8c00;stroke:#ff8c00;" x="159.3184" xlink:href="#m564bf501c0" y="644.109034"/>
     <use style="fill:#ff8c00;stroke:#ff8c00;" x="175.020663" xlink:href="#m564bf501c0" y="644.109034"/>
     <use style="fill:#ff8c00;stroke:#ff8c00;" x="190.722926" xlink:href="#m564bf501c0" y="644.109034"/>
     <use style="fill:#ff8c00;stroke:#ff8c00;" x="206.425189" xlink:href="#m564bf501c0" y="644.109034"/>
     <use style="fill:#ff8c00;stroke:#ff8c00;" x="222.127452" xlink:href="#m564bf501c0" y="644.109034"/>
     <use style="fill:#ff8c00;stroke:#ff8c00;" x="237.829715" xlink:href="#m564bf501c0" y="644.109034"/>
     <use style="fill:#ff8c00;stroke:#ff8c00;" x="253.531978" xlink:href="#m564bf501c0" y="644.109034"/>
     <use style="fill:#ff8c00;stroke:#ff8c00;" x="269.234241" xlink:href="#m564bf501c0" y="644.109034"/>
     <use style="fill:#ff8c00;stroke:#ff8c00;" x="284.936504" xlink:href="#m564bf501c0" y="643.960431"/>
     <use style="fill:#ff8c00;stroke:#ff8c00;" x="300.638767" xlink:href="#m564bf501c0" y="643.960431"/>
     <use style="fill:#ff8c00;stroke:#ff8c00;" x="316.34103" xlink:href="#m564bf501c0" y="643.811829"/>
     <use style="fill:#ff8c00;stroke:#ff8c00;" x="332.043293" xlink:href="#m564bf501c0" y="643.663226"/>
     <use style="fill:#ff8c00;stroke:#ff8c00;" x="347.745556" xlink:href="#m564bf501c0" y="643.514623"/>
     <use style="fill:#ff8c00;stroke:#ff8c00;" x="363.447819" xlink:href="#m564bf501c0" y="643.514623"/>
     <use style="fill:#ff8c00;stroke:#ff8c00;" x="379.150082" xlink:href="#m564bf501c0" y="643.366021"/>
     <use style="fill:#ff8c00;stroke:#ff8c00;" x="394.852345" xlink:href="#m564bf501c0" y="643.217418"/>
     <use style="fill:#ff8c00;stroke:#ff8c00;" x="410.554608" xlink:href="#m564bf501c0" y="642.920212"/>
     <use style="fill:#ff8c00;stroke:#ff8c00;" x="426.256871" xlink:href="#m564bf501c0" y="642.474404"/>
     <use style="fill:#ff8c00;stroke:#ff8c00;" x="441.959134" xlink:href="#m564bf501c0" y="641.879993"/>
     <use style="fill:#ff8c00;stroke:#ff8c00;" x="457.661397" xlink:href="#m564bf501c0" y="641.13698"/>
     <use style="fill:#ff8c00;stroke:#ff8c00;" x="473.36366" xlink:href="#m564bf501c0" y="640.839774"/>
     <use style="fill:#ff8c00;stroke:#ff8c00;" x="489.065923" xlink:href="#m564bf501c0" y="639.948158"/>
     <use style="fill:#ff8c00;stroke:#ff8c00;" x="504.768186" xlink:href="#m564bf501c0" y="638.462131"/>
     <use style="fill:#ff8c00;stroke:#ff8c00;" x="520.470449" xlink:href="#m564bf501c0" y="636.976104"/>
     <use style="fill:#ff8c00;stroke:#ff8c00;" x="536.172712" xlink:href="#m564bf501c0" y="635.490077"/>
     <use style="fill:#ff8c00;stroke:#ff8c00;" x="551.874975" xlink:href="#m564bf501c0" y="633.112433"/>
     <use style="fill:#ff8c00;stroke:#ff8c00;" x="567.577238" xlink:href="#m564bf501c0" y="631.626406"/>
     <use style="fill:#ff8c00;stroke:#ff8c00;" x="583.279501" xlink:href="#m564bf501c0" y="629.545968"/>
     <use style="fill:#ff8c00;stroke:#ff8c00;" x="598.981764" xlink:href="#m564bf501c0" y="626.425311"/>
     <use style="fill:#ff8c00;stroke:#ff8c00;" x="614.684027" xlink:href="#m564bf501c0" y="623.156051"/>
     <use style="fill:#ff8c00;stroke:#ff8c00;" x="630.38629" xlink:href="#m564bf501c0" y="618.549367"/>
     <use style="fill:#ff8c00;stroke:#ff8c00;" x="646.088553" xlink:href="#m564bf501c0" y="612.15945"/>
     <use style="fill:#ff8c00;stroke:#ff8c00;" x="661.790816" xlink:href="#m564bf501c0" y="606.512547"/>
     <use style="fill:#ff8c00;stroke:#ff8c00;" x="677.493079" xlink:href="#m564bf501c0" y="601.014247"/>
     <use style="fill:#ff8c00;stroke:#ff8c00;" x="693.195342" xlink:href="#m564bf501c0" y="595.218741"/>
     <use style="fill:#ff8c00;stroke:#ff8c00;" x="708.897605" xlink:href="#m564bf501c0" y="588.085811"/>
     <use style="fill:#ff8c00;stroke:#ff8c00;" x="724.599868" xlink:href="#m564bf501c0" y="577.980826"/>
     <use style="fill:#ff8c00;stroke:#ff8c00;" x="740.302131" xlink:href="#m564bf501c0" y="568.024444"/>
     <use style="fill:#ff8c00;stroke:#ff8c00;" x="756.004394" xlink:href="#m564bf501c0" y="557.770857"/>
     <use style="fill:#ff8c00;stroke:#ff8c00;" x="771.706657" xlink:href="#m564bf501c0" y="549.003297"/>
     <use style="fill:#ff8c00;stroke:#ff8c00;" x="787.40892" xlink:href="#m564bf501c0" y="535.331847"/>
     <use style="fill:#ff8c00;stroke:#ff8c00;" x="803.111183" xlink:href="#m564bf501c0" y="526.118479"/>
     <use style="fill:#ff8c00;stroke:#ff8c00;" x="818.813446" xlink:href="#m564bf501c0" y="517.648124"/>
     <use style="fill:#ff8c00;stroke:#ff8c00;" x="834.515709" xlink:href="#m564bf501c0" y="504.719688"/>
     <use style="fill:#ff8c00;stroke:#ff8c00;" x="850.217972" xlink:href="#m564bf501c0" y="494.4661"/>
     <use style="fill:#ff8c00;stroke:#ff8c00;" x="865.920235" xlink:href="#m564bf501c0" y="481.83487"/>
     <use style="fill:#ff8c00;stroke:#ff8c00;" x="881.622498" xlink:href="#m564bf501c0" y="470.392461"/>
     <use style="fill:#ff8c00;stroke:#ff8c00;" x="897.324761" xlink:href="#m564bf501c0" y="458.652846"/>
     <use style="fill:#ff8c00;stroke:#ff8c00;" x="913.027024" xlink:href="#m564bf501c0" y="449.142272"/>
     <use style="fill:#ff8c00;stroke:#ff8c00;" x="928.729287" xlink:href="#m564bf501c0" y="437.551261"/>
     <use style="fill:#ff8c00;stroke:#ff8c00;" x="944.43155" xlink:href="#m564bf501c0" y="427.446276"/>
     <use style="fill:#ff8c00;stroke:#ff8c00;" x="960.133813" xlink:href="#m564bf501c0" y="417.341291"/>
     <use style="fill:#ff8c00;stroke:#ff8c00;" x="975.836076" xlink:href="#m564bf501c0" y="405.007266"/>
     <use style="fill:#ff8c00;stroke:#ff8c00;" x="991.538339" xlink:href="#m564bf501c0" y="392.821843"/>
     <use style="fill:#ff8c00;stroke:#ff8c00;" x="1007.240602" xlink:href="#m564bf501c0" y="380.04201"/>
     <use style="fill:#ff8c00;stroke:#ff8c00;" x="1022.942865" xlink:href="#m564bf501c0" y="369.63982"/>
     <use style="fill:#ff8c00;stroke:#ff8c00;" x="1038.645128" xlink:href="#m564bf501c0" y="360.277849"/>
     <use style="fill:#ff8c00;stroke:#ff8c00;" x="1054.347391" xlink:href="#m564bf501c0" y="350.47007"/>
     <use style="fill:#ff8c00;stroke:#ff8c00;" x="1070.049654" xlink:href="#m564bf501c0" y="340.365085"/>
     <use style="fill:#ff8c00;stroke:#ff8c00;" x="1085.751917" xlink:href="#m564bf501c0" y="328.476868"/>
     <use style="fill:#ff8c00;stroke:#ff8c00;" x="1101.45418" xlink:href="#m564bf501c0" y="317.62887"/>
     <use style="fill:#ff8c00;stroke:#ff8c00;" x="1117.156443" xlink:href="#m564bf501c0" y="307.821091"/>
     <use style="fill:#ff8c00;stroke:#ff8c00;" x="1132.858706" xlink:href="#m564bf501c0" y="298.310517"/>
     <use style="fill:#ff8c00;stroke:#ff8c00;" x="1148.560969" xlink:href="#m564bf501c0" y="289.542957"/>
     <use style="fill:#ff8c00;stroke:#ff8c00;" x="1164.263232" xlink:href="#m564bf501c0" y="280.626794"/>
     <use style="fill:#ff8c00;stroke:#ff8c00;" x="1179.965495" xlink:href="#m564bf501c0" y="267.401152"/>
     <use style="fill:#ff8c00;stroke:#ff8c00;" x="1195.667758" xlink:href="#m564bf501c0" y="253.729703"/>
     <use style="fill:#ff8c00;stroke:#ff8c00;" x="1211.370021" xlink:href="#m564bf501c0" y="243.17891"/>
     <use style="fill:#ff8c00;stroke:#ff8c00;" x="1227.072284" xlink:href="#m564bf501c0" y="233.519733"/>
     <use style="fill:#ff8c00;stroke:#ff8c00;" x="1242.774547" xlink:href="#m564bf501c0" y="224.752173"/>
     <use style="fill:#ff8c00;stroke:#ff8c00;" x="1258.47681" xlink:href="#m564bf501c0" y="215.092997"/>
     <use style="fill:#ff8c00;stroke:#ff8c00;" x="1274.179073" xlink:href="#m564bf501c0" y="201.718752"/>
     <use style="fill:#ff8c00;stroke:#ff8c00;" x="1289.881336" xlink:href="#m564bf501c0" y="189.236124"/>
     <use style="fill:#ff8c00;stroke:#ff8c00;" x="1305.583599" xlink:href="#m564bf501c0" y="179.13114"/>
     <use style="fill:#ff8c00;stroke:#ff8c00;" x="1321.285862" xlink:href="#m564bf501c0" y="170.512182"/>
     <use style="fill:#ff8c00;stroke:#ff8c00;" x="1336.988125" xlink:href="#m564bf501c0" y="161.893225"/>
     <use style="fill:#ff8c00;stroke:#ff8c00;" x="1352.690388" xlink:href="#m564bf501c0" y="153.274267"/>
     <use style="fill:#ff8c00;stroke:#ff8c00;" x="1368.392651" xlink:href="#m564bf501c0" y="145.844132"/>
     <use style="fill:#ff8c00;stroke:#ff8c00;" x="1384.094914" xlink:href="#m564bf501c0" y="138.711201"/>
     <use style="fill:#ff8c00;stroke:#ff8c00;" x="1399.797177" xlink:href="#m564bf501c0" y="131.132463"/>
     <use style="fill:#ff8c00;stroke:#ff8c00;" x="1415.49944" xlink:href="#m564bf501c0" y="123.256519"/>
     <use style="fill:#ff8c00;stroke:#ff8c00;" x="1431.201703" xlink:href="#m564bf501c0" y="115.677781"/>
     <use style="fill:#ff8c00;stroke:#ff8c00;" x="1446.903966" xlink:href="#m564bf501c0" y="107.950439"/>
     <use style="fill:#ff8c00;stroke:#ff8c00;" x="1462.606229" xlink:href="#m564bf501c0" y="102.006331"/>
     <use style="fill:#ff8c00;stroke:#ff8c00;" x="1478.308492" xlink:href="#m564bf501c0" y="96.656633"/>
     <use style="fill:#ff8c00;stroke:#ff8c00;" x="1494.010755" xlink:href="#m564bf501c0" y="94.27899"/>
     <use style="fill:#ff8c00;stroke:#ff8c00;" x="1509.713018" xlink:href="#m564bf501c0" y="92.049949"/>
     <use style="fill:#ff8c00;stroke:#ff8c00;" x="1525.415281" xlink:href="#m564bf501c0" y="84.768416"/>
     <use style="fill:#ff8c00;stroke:#ff8c00;" x="1541.117544" xlink:href="#m564bf501c0" y="78.378499"/>
     <use style="fill:#ff8c00;stroke:#ff8c00;" x="1556.819807" xlink:href="#m564bf501c0" y="73.028801"/>
     <use style="fill:#ff8c00;stroke:#ff8c00;" x="1572.52207" xlink:href="#m564bf501c0" y="69.462336"/>
     <use style="fill:#ff8c00;stroke:#ff8c00;" x="1588.224333" xlink:href="#m564bf501c0" y="65.004255"/>
     <use style="fill:#ff8c00;stroke:#ff8c00;" x="1603.926596" xlink:href="#m564bf501c0" y="56.088092"/>
     <use style="fill:#ff8c00;stroke:#ff8c00;" x="1619.628859" xlink:href="#m564bf501c0" y="51.927216"/>
    </g>
   </g>
   <g id="matplotlib.axis_1">
    <g id="xtick_1">
     <g id="line2d_1">
      <path clip-path="url(#p664cfa9eb9)" d="M 237.829715 673.718125 
L 237.829715 22.318125 
" style="fill:none;stroke:#b0b0b0;stroke-linecap:square;stroke-width:0.8;"/>
     </g>
     <g id="line2d_2">
      <defs>
       <path d="M 0 0 
L 0 3.5 
" id="me8d52b5478" style="stroke:#000000;stroke-width:0.8;"/>
      </defs>
      <g>
       <use style="stroke:#000000;stroke-width:0.8;" x="237.829715" xlink:href="#me8d52b5478" y="673.718125"/>
      </g>
     </g>
     <g id="text_1">
      <!-- 2020-03-01 -->
      <defs>
       <path d="M 19.1875 8.296875 
L 53.609375 8.296875 
L 53.609375 0 
L 7.328125 0 
L 7.328125 8.296875 
Q 12.9375 14.109375 22.625 23.890625 
Q 32.328125 33.6875 34.8125 36.53125 
Q 39.546875 41.84375 41.421875 45.53125 
Q 43.3125 49.21875 43.3125 52.78125 
Q 43.3125 58.59375 39.234375 62.25 
Q 35.15625 65.921875 28.609375 65.921875 
Q 23.96875 65.921875 18.8125 64.3125 
Q 13.671875 62.703125 7.8125 59.421875 
L 7.8125 69.390625 
Q 13.765625 71.78125 18.9375 73 
Q 24.125 74.21875 28.421875 74.21875 
Q 39.75 74.21875 46.484375 68.546875 
Q 53.21875 62.890625 53.21875 53.421875 
Q 53.21875 48.921875 51.53125 44.890625 
Q 49.859375 40.875 45.40625 35.40625 
Q 44.1875 33.984375 37.640625 27.21875 
Q 31.109375 20.453125 19.1875 8.296875 
z
" id="DejaVuSans-50"/>
       <path d="M 31.78125 66.40625 
Q 24.171875 66.40625 20.328125 58.90625 
Q 16.5 51.421875 16.5 36.375 
Q 16.5 21.390625 20.328125 13.890625 
Q 24.171875 6.390625 31.78125 6.390625 
Q 39.453125 6.390625 43.28125 13.890625 
Q 47.125 21.390625 47.125 36.375 
Q 47.125 51.421875 43.28125 58.90625 
Q 39.453125 66.40625 31.78125 66.40625 
z
M 31.78125 74.21875 
Q 44.046875 74.21875 50.515625 64.515625 
Q 56.984375 54.828125 56.984375 36.375 
Q 56.984375 17.96875 50.515625 8.265625 
Q 44.046875 -1.421875 31.78125 -1.421875 
Q 19.53125 -1.421875 13.0625 8.265625 
Q 6.59375 17.96875 6.59375 36.375 
Q 6.59375 54.828125 13.0625 64.515625 
Q 19.53125 74.21875 31.78125 74.21875 
z
" id="DejaVuSans-48"/>
       <path d="M 4.890625 31.390625 
L 31.203125 31.390625 
L 31.203125 23.390625 
L 4.890625 23.390625 
z
" id="DejaVuSans-45"/>
       <path d="M 40.578125 39.3125 
Q 47.65625 37.796875 51.625 33 
Q 55.609375 28.21875 55.609375 21.1875 
Q 55.609375 10.40625 48.1875 4.484375 
Q 40.765625 -1.421875 27.09375 -1.421875 
Q 22.515625 -1.421875 17.65625 -0.515625 
Q 12.796875 0.390625 7.625 2.203125 
L 7.625 11.71875 
Q 11.71875 9.328125 16.59375 8.109375 
Q 21.484375 6.890625 26.8125 6.890625 
Q 36.078125 6.890625 40.9375 10.546875 
Q 45.796875 14.203125 45.796875 21.1875 
Q 45.796875 27.640625 41.28125 31.265625 
Q 36.765625 34.90625 28.71875 34.90625 
L 20.21875 34.90625 
L 20.21875 43.015625 
L 29.109375 43.015625 
Q 36.375 43.015625 40.234375 45.921875 
Q 44.09375 48.828125 44.09375 54.296875 
Q 44.09375 59.90625 40.109375 62.90625 
Q 36.140625 65.921875 28.71875 65.921875 
Q 24.65625 65.921875 20.015625 65.03125 
Q 15.375 64.15625 9.8125 62.3125 
L 9.8125 71.09375 
Q 15.4375 72.65625 20.34375 73.4375 
Q 25.25 74.21875 29.59375 74.21875 
Q 40.828125 74.21875 47.359375 69.109375 
Q 53.90625 64.015625 53.90625 55.328125 
Q 53.90625 49.265625 50.4375 45.09375 
Q 46.96875 40.921875 40.578125 39.3125 
z
" id="DejaVuSans-51"/>
       <path d="M 12.40625 8.296875 
L 28.515625 8.296875 
L 28.515625 63.921875 
L 10.984375 60.40625 
L 10.984375 69.390625 
L 28.421875 72.90625 
L 38.28125 72.90625 
L 38.28125 8.296875 
L 54.390625 8.296875 
L 54.390625 0 
L 12.40625 0 
z
" id="DejaVuSans-49"/>
      </defs>
      <g transform="translate(208.771903 688.316562)scale(0.1 -0.1)">
       <use xlink:href="#DejaVuSans-50"/>
       <use x="63.623047" xlink:href="#DejaVuSans-48"/>
       <use x="127.246094" xlink:href="#DejaVuSans-50"/>
       <use x="190.869141" xlink:href="#DejaVuSans-48"/>
       <use x="254.492188" xlink:href="#DejaVuSans-45"/>
       <use x="290.576172" xlink:href="#DejaVuSans-48"/>
       <use x="354.199219" xlink:href="#DejaVuSans-51"/>
       <use x="417.822266" xlink:href="#DejaVuSans-45"/>
       <use x="453.90625" xlink:href="#DejaVuSans-48"/>
       <use x="517.529297" xlink:href="#DejaVuSans-49"/>
      </g>
     </g>
    </g>
    <g id="xtick_2">
     <g id="line2d_3">
      <path clip-path="url(#p664cfa9eb9)" d="M 457.661397 673.718125 
L 457.661397 22.318125 
" style="fill:none;stroke:#b0b0b0;stroke-linecap:square;stroke-width:0.8;"/>
     </g>
     <g id="line2d_4">
      <g>
       <use style="stroke:#000000;stroke-width:0.8;" x="457.661397" xlink:href="#me8d52b5478" y="673.718125"/>
      </g>
     </g>
     <g id="text_2">
      <!-- 2020-03-15 -->
      <defs>
       <path d="M 10.796875 72.90625 
L 49.515625 72.90625 
L 49.515625 64.59375 
L 19.828125 64.59375 
L 19.828125 46.734375 
Q 21.96875 47.46875 24.109375 47.828125 
Q 26.265625 48.1875 28.421875 48.1875 
Q 40.625 48.1875 47.75 41.5 
Q 54.890625 34.8125 54.890625 23.390625 
Q 54.890625 11.625 47.5625 5.09375 
Q 40.234375 -1.421875 26.90625 -1.421875 
Q 22.3125 -1.421875 17.546875 -0.640625 
Q 12.796875 0.140625 7.71875 1.703125 
L 7.71875 11.625 
Q 12.109375 9.234375 16.796875 8.0625 
Q 21.484375 6.890625 26.703125 6.890625 
Q 35.15625 6.890625 40.078125 11.328125 
Q 45.015625 15.765625 45.015625 23.390625 
Q 45.015625 31 40.078125 35.4375 
Q 35.15625 39.890625 26.703125 39.890625 
Q 22.75 39.890625 18.8125 39.015625 
Q 14.890625 38.140625 10.796875 36.28125 
z
" id="DejaVuSans-53"/>
      </defs>
      <g transform="translate(428.603585 688.316562)scale(0.1 -0.1)">
       <use xlink:href="#DejaVuSans-50"/>
       <use x="63.623047" xlink:href="#DejaVuSans-48"/>
       <use x="127.246094" xlink:href="#DejaVuSans-50"/>
       <use x="190.869141" xlink:href="#DejaVuSans-48"/>
       <use x="254.492188" xlink:href="#DejaVuSans-45"/>
       <use x="290.576172" xlink:href="#DejaVuSans-48"/>
       <use x="354.199219" xlink:href="#DejaVuSans-51"/>
       <use x="417.822266" xlink:href="#DejaVuSans-45"/>
       <use x="453.90625" xlink:href="#DejaVuSans-49"/>
       <use x="517.529297" xlink:href="#DejaVuSans-53"/>
      </g>
     </g>
    </g>
    <g id="xtick_3">
     <g id="line2d_5">
      <path clip-path="url(#p664cfa9eb9)" d="M 724.599868 673.718125 
L 724.599868 22.318125 
" style="fill:none;stroke:#b0b0b0;stroke-linecap:square;stroke-width:0.8;"/>
     </g>
     <g id="line2d_6">
      <g>
       <use style="stroke:#000000;stroke-width:0.8;" x="724.599868" xlink:href="#me8d52b5478" y="673.718125"/>
      </g>
     </g>
     <g id="text_3">
      <!-- 2020-04-01 -->
      <defs>
       <path d="M 37.796875 64.3125 
L 12.890625 25.390625 
L 37.796875 25.390625 
z
M 35.203125 72.90625 
L 47.609375 72.90625 
L 47.609375 25.390625 
L 58.015625 25.390625 
L 58.015625 17.1875 
L 47.609375 17.1875 
L 47.609375 0 
L 37.796875 0 
L 37.796875 17.1875 
L 4.890625 17.1875 
L 4.890625 26.703125 
z
" id="DejaVuSans-52"/>
      </defs>
      <g transform="translate(695.542056 688.316562)scale(0.1 -0.1)">
       <use xlink:href="#DejaVuSans-50"/>
       <use x="63.623047" xlink:href="#DejaVuSans-48"/>
       <use x="127.246094" xlink:href="#DejaVuSans-50"/>
       <use x="190.869141" xlink:href="#DejaVuSans-48"/>
       <use x="254.492188" xlink:href="#DejaVuSans-45"/>
       <use x="290.576172" xlink:href="#DejaVuSans-48"/>
       <use x="354.199219" xlink:href="#DejaVuSans-52"/>
       <use x="417.822266" xlink:href="#DejaVuSans-45"/>
       <use x="453.90625" xlink:href="#DejaVuSans-48"/>
       <use x="517.529297" xlink:href="#DejaVuSans-49"/>
      </g>
     </g>
    </g>
    <g id="xtick_4">
     <g id="line2d_7">
      <path clip-path="url(#p664cfa9eb9)" d="M 944.43155 673.718125 
L 944.43155 22.318125 
" style="fill:none;stroke:#b0b0b0;stroke-linecap:square;stroke-width:0.8;"/>
     </g>
     <g id="line2d_8">
      <g>
       <use style="stroke:#000000;stroke-width:0.8;" x="944.43155" xlink:href="#me8d52b5478" y="673.718125"/>
      </g>
     </g>
     <g id="text_4">
      <!-- 2020-04-15 -->
      <g transform="translate(915.373738 688.316562)scale(0.1 -0.1)">
       <use xlink:href="#DejaVuSans-50"/>
       <use x="63.623047" xlink:href="#DejaVuSans-48"/>
       <use x="127.246094" xlink:href="#DejaVuSans-50"/>
       <use x="190.869141" xlink:href="#DejaVuSans-48"/>
       <use x="254.492188" xlink:href="#DejaVuSans-45"/>
       <use x="290.576172" xlink:href="#DejaVuSans-48"/>
       <use x="354.199219" xlink:href="#DejaVuSans-52"/>
       <use x="417.822266" xlink:href="#DejaVuSans-45"/>
       <use x="453.90625" xlink:href="#DejaVuSans-49"/>
       <use x="517.529297" xlink:href="#DejaVuSans-53"/>
      </g>
     </g>
    </g>
    <g id="xtick_5">
     <g id="line2d_9">
      <path clip-path="url(#p664cfa9eb9)" d="M 1195.667758 673.718125 
L 1195.667758 22.318125 
" style="fill:none;stroke:#b0b0b0;stroke-linecap:square;stroke-width:0.8;"/>
     </g>
     <g id="line2d_10">
      <g>
       <use style="stroke:#000000;stroke-width:0.8;" x="1195.667758" xlink:href="#me8d52b5478" y="673.718125"/>
      </g>
     </g>
     <g id="text_5">
      <!-- 2020-05-01 -->
      <g transform="translate(1166.609946 688.316562)scale(0.1 -0.1)">
       <use xlink:href="#DejaVuSans-50"/>
       <use x="63.623047" xlink:href="#DejaVuSans-48"/>
       <use x="127.246094" xlink:href="#DejaVuSans-50"/>
       <use x="190.869141" xlink:href="#DejaVuSans-48"/>
       <use x="254.492188" xlink:href="#DejaVuSans-45"/>
       <use x="290.576172" xlink:href="#DejaVuSans-48"/>
       <use x="354.199219" xlink:href="#DejaVuSans-53"/>
       <use x="417.822266" xlink:href="#DejaVuSans-45"/>
       <use x="453.90625" xlink:href="#DejaVuSans-48"/>
       <use x="517.529297" xlink:href="#DejaVuSans-49"/>
      </g>
     </g>
    </g>
    <g id="xtick_6">
     <g id="line2d_11">
      <path clip-path="url(#p664cfa9eb9)" d="M 1415.49944 673.718125 
L 1415.49944 22.318125 
" style="fill:none;stroke:#b0b0b0;stroke-linecap:square;stroke-width:0.8;"/>
     </g>
     <g id="line2d_12">
      <g>
       <use style="stroke:#000000;stroke-width:0.8;" x="1415.49944" xlink:href="#me8d52b5478" y="673.718125"/>
      </g>
     </g>
     <g id="text_6">
      <!-- 2020-05-15 -->
      <g transform="translate(1386.441628 688.316562)scale(0.1 -0.1)">
       <use xlink:href="#DejaVuSans-50"/>
       <use x="63.623047" xlink:href="#DejaVuSans-48"/>
       <use x="127.246094" xlink:href="#DejaVuSans-50"/>
       <use x="190.869141" xlink:href="#DejaVuSans-48"/>
       <use x="254.492188" xlink:href="#DejaVuSans-45"/>
       <use x="290.576172" xlink:href="#DejaVuSans-48"/>
       <use x="354.199219" xlink:href="#DejaVuSans-53"/>
       <use x="417.822266" xlink:href="#DejaVuSans-45"/>
       <use x="453.90625" xlink:href="#DejaVuSans-49"/>
       <use x="517.529297" xlink:href="#DejaVuSans-53"/>
      </g>
     </g>
    </g>
    <g id="xtick_7">
     <g id="line2d_13">
      <path clip-path="url(#p664cfa9eb9)" d="M 1682.437911 673.718125 
L 1682.437911 22.318125 
" style="fill:none;stroke:#b0b0b0;stroke-linecap:square;stroke-width:0.8;"/>
     </g>
     <g id="line2d_14">
      <g>
       <use style="stroke:#000000;stroke-width:0.8;" x="1682.437911" xlink:href="#me8d52b5478" y="673.718125"/>
      </g>
     </g>
     <g id="text_7">
      <!-- 2020-06-01 -->
      <defs>
       <path d="M 33.015625 40.375 
Q 26.375 40.375 22.484375 35.828125 
Q 18.609375 31.296875 18.609375 23.390625 
Q 18.609375 15.53125 22.484375 10.953125 
Q 26.375 6.390625 33.015625 6.390625 
Q 39.65625 6.390625 43.53125 10.953125 
Q 47.40625 15.53125 47.40625 23.390625 
Q 47.40625 31.296875 43.53125 35.828125 
Q 39.65625 40.375 33.015625 40.375 
z
M 52.59375 71.296875 
L 52.59375 62.3125 
Q 48.875 64.0625 45.09375 64.984375 
Q 41.3125 65.921875 37.59375 65.921875 
Q 27.828125 65.921875 22.671875 59.328125 
Q 17.53125 52.734375 16.796875 39.40625 
Q 19.671875 43.65625 24.015625 45.921875 
Q 28.375 48.1875 33.59375 48.1875 
Q 44.578125 48.1875 50.953125 41.515625 
Q 57.328125 34.859375 57.328125 23.390625 
Q 57.328125 12.15625 50.6875 5.359375 
Q 44.046875 -1.421875 33.015625 -1.421875 
Q 20.359375 -1.421875 13.671875 8.265625 
Q 6.984375 17.96875 6.984375 36.375 
Q 6.984375 53.65625 15.1875 63.9375 
Q 23.390625 74.21875 37.203125 74.21875 
Q 40.921875 74.21875 44.703125 73.484375 
Q 48.484375 72.75 52.59375 71.296875 
z
" id="DejaVuSans-54"/>
      </defs>
      <g transform="translate(1653.380099 688.316562)scale(0.1 -0.1)">
       <use xlink:href="#DejaVuSans-50"/>
       <use x="63.623047" xlink:href="#DejaVuSans-48"/>
       <use x="127.246094" xlink:href="#DejaVuSans-50"/>
       <use x="190.869141" xlink:href="#DejaVuSans-48"/>
       <use x="254.492188" xlink:href="#DejaVuSans-45"/>
       <use x="290.576172" xlink:href="#DejaVuSans-48"/>
       <use x="354.199219" xlink:href="#DejaVuSans-54"/>
       <use x="417.822266" xlink:href="#DejaVuSans-45"/>
       <use x="453.90625" xlink:href="#DejaVuSans-48"/>
       <use x="517.529297" xlink:href="#DejaVuSans-49"/>
      </g>
     </g>
    </g>
    <g id="text_8">
     <!-- Date -->
     <defs>
      <path d="M 19.671875 64.796875 
L 19.671875 8.109375 
L 31.59375 8.109375 
Q 46.6875 8.109375 53.6875 14.9375 
Q 60.6875 21.78125 60.6875 36.53125 
Q 60.6875 51.171875 53.6875 57.984375 
Q 46.6875 64.796875 31.59375 64.796875 
z
M 9.8125 72.90625 
L 30.078125 72.90625 
Q 51.265625 72.90625 61.171875 64.09375 
Q 71.09375 55.28125 71.09375 36.53125 
Q 71.09375 17.671875 61.125 8.828125 
Q 51.171875 0 30.078125 0 
L 9.8125 0 
z
" id="DejaVuSans-68"/>
      <path d="M 34.28125 27.484375 
Q 23.390625 27.484375 19.1875 25 
Q 14.984375 22.515625 14.984375 16.5 
Q 14.984375 11.71875 18.140625 8.90625 
Q 21.296875 6.109375 26.703125 6.109375 
Q 34.1875 6.109375 38.703125 11.40625 
Q 43.21875 16.703125 43.21875 25.484375 
L 43.21875 27.484375 
z
M 52.203125 31.203125 
L 52.203125 0 
L 43.21875 0 
L 43.21875 8.296875 
Q 40.140625 3.328125 35.546875 0.953125 
Q 30.953125 -1.421875 24.3125 -1.421875 
Q 15.921875 -1.421875 10.953125 3.296875 
Q 6 8.015625 6 15.921875 
Q 6 25.140625 12.171875 29.828125 
Q 18.359375 34.515625 30.609375 34.515625 
L 43.21875 34.515625 
L 43.21875 35.40625 
Q 43.21875 41.609375 39.140625 45 
Q 35.0625 48.390625 27.6875 48.390625 
Q 23 48.390625 18.546875 47.265625 
Q 14.109375 46.140625 10.015625 43.890625 
L 10.015625 52.203125 
Q 14.9375 54.109375 19.578125 55.046875 
Q 24.21875 56 28.609375 56 
Q 40.484375 56 46.34375 49.84375 
Q 52.203125 43.703125 52.203125 31.203125 
z
" id="DejaVuSans-97"/>
      <path d="M 18.3125 70.21875 
L 18.3125 54.6875 
L 36.8125 54.6875 
L 36.8125 47.703125 
L 18.3125 47.703125 
L 18.3125 18.015625 
Q 18.3125 11.328125 20.140625 9.421875 
Q 21.96875 7.515625 27.59375 7.515625 
L 36.8125 7.515625 
L 36.8125 0 
L 27.59375 0 
Q 17.1875 0 13.234375 3.875 
Q 9.28125 7.765625 9.28125 18.015625 
L 9.28125 47.703125 
L 2.6875 47.703125 
L 2.6875 54.6875 
L 9.28125 54.6875 
L 9.28125 70.21875 
z
" id="DejaVuSans-116"/>
      <path d="M 56.203125 29.59375 
L 56.203125 25.203125 
L 14.890625 25.203125 
Q 15.484375 15.921875 20.484375 11.0625 
Q 25.484375 6.203125 34.421875 6.203125 
Q 39.59375 6.203125 44.453125 7.46875 
Q 49.3125 8.734375 54.109375 11.28125 
L 54.109375 2.78125 
Q 49.265625 0.734375 44.1875 -0.34375 
Q 39.109375 -1.421875 33.890625 -1.421875 
Q 20.796875 -1.421875 13.15625 6.1875 
Q 5.515625 13.8125 5.515625 26.8125 
Q 5.515625 40.234375 12.765625 48.109375 
Q 20.015625 56 32.328125 56 
Q 43.359375 56 49.78125 48.890625 
Q 56.203125 41.796875 56.203125 29.59375 
z
M 47.21875 32.234375 
Q 47.125 39.59375 43.09375 43.984375 
Q 39.0625 48.390625 32.421875 48.390625 
Q 24.90625 48.390625 20.390625 44.140625 
Q 15.875 39.890625 15.1875 32.171875 
z
" id="DejaVuSans-101"/>
     </defs>
     <g transform="translate(861.820585 701.994687)scale(0.1 -0.1)">
      <use xlink:href="#DejaVuSans-68"/>
      <use x="77.001953" xlink:href="#DejaVuSans-97"/>
      <use x="138.28125" xlink:href="#DejaVuSans-116"/>
      <use x="177.490234" xlink:href="#DejaVuSans-101"/>
     </g>
    </g>
   </g>
   <g id="matplotlib.axis_2">
    <g id="ytick_1">
     <g id="line2d_15">
      <path clip-path="url(#p664cfa9eb9)" d="M 53.328125 644.109034 
L 1694.214608 644.109034 
" style="fill:none;stroke:#b0b0b0;stroke-linecap:square;stroke-width:0.8;"/>
     </g>
     <g id="line2d_16">
      <defs>
       <path d="M 0 0 
L -3.5 0 
" id="m1526fb277e" style="stroke:#000000;stroke-width:0.8;"/>
      </defs>
      <g>
       <use style="stroke:#000000;stroke-width:0.8;" x="53.328125" xlink:href="#m1526fb277e" y="644.109034"/>
      </g>
     </g>
     <g id="text_9">
      <!-- 0 -->
      <g transform="translate(39.965625 647.908253)scale(0.1 -0.1)">
       <use xlink:href="#DejaVuSans-48"/>
      </g>
     </g>
    </g>
    <g id="ytick_2">
     <g id="line2d_17">
      <path clip-path="url(#p664cfa9eb9)" d="M 53.328125 569.807677 
L 1694.214608 569.807677 
" style="fill:none;stroke:#b0b0b0;stroke-linecap:square;stroke-width:0.8;"/>
     </g>
     <g id="line2d_18">
      <g>
       <use style="stroke:#000000;stroke-width:0.8;" x="53.328125" xlink:href="#m1526fb277e" y="569.807677"/>
      </g>
     </g>
     <g id="text_10">
      <!-- 500 -->
      <g transform="translate(27.240625 573.606895)scale(0.1 -0.1)">
       <use xlink:href="#DejaVuSans-53"/>
       <use x="63.623047" xlink:href="#DejaVuSans-48"/>
       <use x="127.246094" xlink:href="#DejaVuSans-48"/>
      </g>
     </g>
    </g>
    <g id="ytick_3">
     <g id="line2d_19">
      <path clip-path="url(#p664cfa9eb9)" d="M 53.328125 495.506319 
L 1694.214608 495.506319 
" style="fill:none;stroke:#b0b0b0;stroke-linecap:square;stroke-width:0.8;"/>
     </g>
     <g id="line2d_20">
      <g>
       <use style="stroke:#000000;stroke-width:0.8;" x="53.328125" xlink:href="#m1526fb277e" y="495.506319"/>
      </g>
     </g>
     <g id="text_11">
      <!-- 1000 -->
      <g transform="translate(20.878125 499.305538)scale(0.1 -0.1)">
       <use xlink:href="#DejaVuSans-49"/>
       <use x="63.623047" xlink:href="#DejaVuSans-48"/>
       <use x="127.246094" xlink:href="#DejaVuSans-48"/>
       <use x="190.869141" xlink:href="#DejaVuSans-48"/>
      </g>
     </g>
    </g>
    <g id="ytick_4">
     <g id="line2d_21">
      <path clip-path="url(#p664cfa9eb9)" d="M 53.328125 421.204962 
L 1694.214608 421.204962 
" style="fill:none;stroke:#b0b0b0;stroke-linecap:square;stroke-width:0.8;"/>
     </g>
     <g id="line2d_22">
      <g>
       <use style="stroke:#000000;stroke-width:0.8;" x="53.328125" xlink:href="#m1526fb277e" y="421.204962"/>
      </g>
     </g>
     <g id="text_12">
      <!-- 1500 -->
      <g transform="translate(20.878125 425.004181)scale(0.1 -0.1)">
       <use xlink:href="#DejaVuSans-49"/>
       <use x="63.623047" xlink:href="#DejaVuSans-53"/>
       <use x="127.246094" xlink:href="#DejaVuSans-48"/>
       <use x="190.869141" xlink:href="#DejaVuSans-48"/>
      </g>
     </g>
    </g>
    <g id="ytick_5">
     <g id="line2d_23">
      <path clip-path="url(#p664cfa9eb9)" d="M 53.328125 346.903605 
L 1694.214608 346.903605 
" style="fill:none;stroke:#b0b0b0;stroke-linecap:square;stroke-width:0.8;"/>
     </g>
     <g id="line2d_24">
      <g>
       <use style="stroke:#000000;stroke-width:0.8;" x="53.328125" xlink:href="#m1526fb277e" y="346.903605"/>
      </g>
     </g>
     <g id="text_13">
      <!-- 2000 -->
      <g transform="translate(20.878125 350.702823)scale(0.1 -0.1)">
       <use xlink:href="#DejaVuSans-50"/>
       <use x="63.623047" xlink:href="#DejaVuSans-48"/>
       <use x="127.246094" xlink:href="#DejaVuSans-48"/>
       <use x="190.869141" xlink:href="#DejaVuSans-48"/>
      </g>
     </g>
    </g>
    <g id="ytick_6">
     <g id="line2d_25">
      <path clip-path="url(#p664cfa9eb9)" d="M 53.328125 272.602247 
L 1694.214608 272.602247 
" style="fill:none;stroke:#b0b0b0;stroke-linecap:square;stroke-width:0.8;"/>
     </g>
     <g id="line2d_26">
      <g>
       <use style="stroke:#000000;stroke-width:0.8;" x="53.328125" xlink:href="#m1526fb277e" y="272.602247"/>
      </g>
     </g>
     <g id="text_14">
      <!-- 2500 -->
      <g transform="translate(20.878125 276.401466)scale(0.1 -0.1)">
       <use xlink:href="#DejaVuSans-50"/>
       <use x="63.623047" xlink:href="#DejaVuSans-53"/>
       <use x="127.246094" xlink:href="#DejaVuSans-48"/>
       <use x="190.869141" xlink:href="#DejaVuSans-48"/>
      </g>
     </g>
    </g>
    <g id="ytick_7">
     <g id="line2d_27">
      <path clip-path="url(#p664cfa9eb9)" d="M 53.328125 198.30089 
L 1694.214608 198.30089 
" style="fill:none;stroke:#b0b0b0;stroke-linecap:square;stroke-width:0.8;"/>
     </g>
     <g id="line2d_28">
      <g>
       <use style="stroke:#000000;stroke-width:0.8;" x="53.328125" xlink:href="#m1526fb277e" y="198.30089"/>
      </g>
     </g>
     <g id="text_15">
      <!-- 3000 -->
      <g transform="translate(20.878125 202.100109)scale(0.1 -0.1)">
       <use xlink:href="#DejaVuSans-51"/>
       <use x="63.623047" xlink:href="#DejaVuSans-48"/>
       <use x="127.246094" xlink:href="#DejaVuSans-48"/>
       <use x="190.869141" xlink:href="#DejaVuSans-48"/>
      </g>
     </g>
    </g>
    <g id="ytick_8">
     <g id="line2d_29">
      <path clip-path="url(#p664cfa9eb9)" d="M 53.328125 123.999533 
L 1694.214608 123.999533 
" style="fill:none;stroke:#b0b0b0;stroke-linecap:square;stroke-width:0.8;"/>
     </g>
     <g id="line2d_30">
      <g>
       <use style="stroke:#000000;stroke-width:0.8;" x="53.328125" xlink:href="#m1526fb277e" y="123.999533"/>
      </g>
     </g>
     <g id="text_16">
      <!-- 3500 -->
      <g transform="translate(20.878125 127.798751)scale(0.1 -0.1)">
       <use xlink:href="#DejaVuSans-51"/>
       <use x="63.623047" xlink:href="#DejaVuSans-53"/>
       <use x="127.246094" xlink:href="#DejaVuSans-48"/>
       <use x="190.869141" xlink:href="#DejaVuSans-48"/>
      </g>
     </g>
    </g>
    <g id="ytick_9">
     <g id="line2d_31">
      <path clip-path="url(#p664cfa9eb9)" d="M 53.328125 49.698175 
L 1694.214608 49.698175 
" style="fill:none;stroke:#b0b0b0;stroke-linecap:square;stroke-width:0.8;"/>
     </g>
     <g id="line2d_32">
      <g>
       <use style="stroke:#000000;stroke-width:0.8;" x="53.328125" xlink:href="#m1526fb277e" y="49.698175"/>
      </g>
     </g>
     <g id="text_17">
      <!-- 4000 -->
      <g transform="translate(20.878125 53.497394)scale(0.1 -0.1)">
       <use xlink:href="#DejaVuSans-52"/>
       <use x="63.623047" xlink:href="#DejaVuSans-48"/>
       <use x="127.246094" xlink:href="#DejaVuSans-48"/>
       <use x="190.869141" xlink:href="#DejaVuSans-48"/>
      </g>
     </g>
    </g>
    <g id="text_18">
     <!-- Number of CoV-19 Cases per Million -->
     <defs>
      <path d="M 9.8125 72.90625 
L 23.09375 72.90625 
L 55.421875 11.921875 
L 55.421875 72.90625 
L 64.984375 72.90625 
L 64.984375 0 
L 51.703125 0 
L 19.390625 60.984375 
L 19.390625 0 
L 9.8125 0 
z
" id="DejaVuSans-78"/>
      <path d="M 8.5 21.578125 
L 8.5 54.6875 
L 17.484375 54.6875 
L 17.484375 21.921875 
Q 17.484375 14.15625 20.5 10.265625 
Q 23.53125 6.390625 29.59375 6.390625 
Q 36.859375 6.390625 41.078125 11.03125 
Q 45.3125 15.671875 45.3125 23.6875 
L 45.3125 54.6875 
L 54.296875 54.6875 
L 54.296875 0 
L 45.3125 0 
L 45.3125 8.40625 
Q 42.046875 3.421875 37.71875 1 
Q 33.40625 -1.421875 27.6875 -1.421875 
Q 18.265625 -1.421875 13.375 4.4375 
Q 8.5 10.296875 8.5 21.578125 
z
M 31.109375 56 
z
" id="DejaVuSans-117"/>
      <path d="M 52 44.1875 
Q 55.375 50.25 60.0625 53.125 
Q 64.75 56 71.09375 56 
Q 79.640625 56 84.28125 50.015625 
Q 88.921875 44.046875 88.921875 33.015625 
L 88.921875 0 
L 79.890625 0 
L 79.890625 32.71875 
Q 79.890625 40.578125 77.09375 44.375 
Q 74.3125 48.1875 68.609375 48.1875 
Q 61.625 48.1875 57.5625 43.546875 
Q 53.515625 38.921875 53.515625 30.90625 
L 53.515625 0 
L 44.484375 0 
L 44.484375 32.71875 
Q 44.484375 40.625 41.703125 44.40625 
Q 38.921875 48.1875 33.109375 48.1875 
Q 26.21875 48.1875 22.15625 43.53125 
Q 18.109375 38.875 18.109375 30.90625 
L 18.109375 0 
L 9.078125 0 
L 9.078125 54.6875 
L 18.109375 54.6875 
L 18.109375 46.1875 
Q 21.1875 51.21875 25.484375 53.609375 
Q 29.78125 56 35.6875 56 
Q 41.65625 56 45.828125 52.96875 
Q 50 49.953125 52 44.1875 
z
" id="DejaVuSans-109"/>
      <path d="M 48.6875 27.296875 
Q 48.6875 37.203125 44.609375 42.84375 
Q 40.53125 48.484375 33.40625 48.484375 
Q 26.265625 48.484375 22.1875 42.84375 
Q 18.109375 37.203125 18.109375 27.296875 
Q 18.109375 17.390625 22.1875 11.75 
Q 26.265625 6.109375 33.40625 6.109375 
Q 40.53125 6.109375 44.609375 11.75 
Q 48.6875 17.390625 48.6875 27.296875 
z
M 18.109375 46.390625 
Q 20.953125 51.265625 25.265625 53.625 
Q 29.59375 56 35.59375 56 
Q 45.5625 56 51.78125 48.09375 
Q 58.015625 40.1875 58.015625 27.296875 
Q 58.015625 14.40625 51.78125 6.484375 
Q 45.5625 -1.421875 35.59375 -1.421875 
Q 29.59375 -1.421875 25.265625 0.953125 
Q 20.953125 3.328125 18.109375 8.203125 
L 18.109375 0 
L 9.078125 0 
L 9.078125 75.984375 
L 18.109375 75.984375 
z
" id="DejaVuSans-98"/>
      <path d="M 41.109375 46.296875 
Q 39.59375 47.171875 37.8125 47.578125 
Q 36.03125 48 33.890625 48 
Q 26.265625 48 22.1875 43.046875 
Q 18.109375 38.09375 18.109375 28.8125 
L 18.109375 0 
L 9.078125 0 
L 9.078125 54.6875 
L 18.109375 54.6875 
L 18.109375 46.1875 
Q 20.953125 51.171875 25.484375 53.578125 
Q 30.03125 56 36.53125 56 
Q 37.453125 56 38.578125 55.875 
Q 39.703125 55.765625 41.0625 55.515625 
z
" id="DejaVuSans-114"/>
      <path id="DejaVuSans-32"/>
      <path d="M 30.609375 48.390625 
Q 23.390625 48.390625 19.1875 42.75 
Q 14.984375 37.109375 14.984375 27.296875 
Q 14.984375 17.484375 19.15625 11.84375 
Q 23.34375 6.203125 30.609375 6.203125 
Q 37.796875 6.203125 41.984375 11.859375 
Q 46.1875 17.53125 46.1875 27.296875 
Q 46.1875 37.015625 41.984375 42.703125 
Q 37.796875 48.390625 30.609375 48.390625 
z
M 30.609375 56 
Q 42.328125 56 49.015625 48.375 
Q 55.71875 40.765625 55.71875 27.296875 
Q 55.71875 13.875 49.015625 6.21875 
Q 42.328125 -1.421875 30.609375 -1.421875 
Q 18.84375 -1.421875 12.171875 6.21875 
Q 5.515625 13.875 5.515625 27.296875 
Q 5.515625 40.765625 12.171875 48.375 
Q 18.84375 56 30.609375 56 
z
" id="DejaVuSans-111"/>
      <path d="M 37.109375 75.984375 
L 37.109375 68.5 
L 28.515625 68.5 
Q 23.6875 68.5 21.796875 66.546875 
Q 19.921875 64.59375 19.921875 59.515625 
L 19.921875 54.6875 
L 34.71875 54.6875 
L 34.71875 47.703125 
L 19.921875 47.703125 
L 19.921875 0 
L 10.890625 0 
L 10.890625 47.703125 
L 2.296875 47.703125 
L 2.296875 54.6875 
L 10.890625 54.6875 
L 10.890625 58.5 
Q 10.890625 67.625 15.140625 71.796875 
Q 19.390625 75.984375 28.609375 75.984375 
z
" id="DejaVuSans-102"/>
      <path d="M 64.40625 67.28125 
L 64.40625 56.890625 
Q 59.421875 61.53125 53.78125 63.8125 
Q 48.140625 66.109375 41.796875 66.109375 
Q 29.296875 66.109375 22.65625 58.46875 
Q 16.015625 50.828125 16.015625 36.375 
Q 16.015625 21.96875 22.65625 14.328125 
Q 29.296875 6.6875 41.796875 6.6875 
Q 48.140625 6.6875 53.78125 8.984375 
Q 59.421875 11.28125 64.40625 15.921875 
L 64.40625 5.609375 
Q 59.234375 2.09375 53.4375 0.328125 
Q 47.65625 -1.421875 41.21875 -1.421875 
Q 24.65625 -1.421875 15.125 8.703125 
Q 5.609375 18.84375 5.609375 36.375 
Q 5.609375 53.953125 15.125 64.078125 
Q 24.65625 74.21875 41.21875 74.21875 
Q 47.75 74.21875 53.53125 72.484375 
Q 59.328125 70.75 64.40625 67.28125 
z
" id="DejaVuSans-67"/>
      <path d="M 28.609375 0 
L 0.78125 72.90625 
L 11.078125 72.90625 
L 34.1875 11.53125 
L 57.328125 72.90625 
L 67.578125 72.90625 
L 39.796875 0 
z
" id="DejaVuSans-86"/>
      <path d="M 10.984375 1.515625 
L 10.984375 10.5 
Q 14.703125 8.734375 18.5 7.8125 
Q 22.3125 6.890625 25.984375 6.890625 
Q 35.75 6.890625 40.890625 13.453125 
Q 46.046875 20.015625 46.78125 33.40625 
Q 43.953125 29.203125 39.59375 26.953125 
Q 35.25 24.703125 29.984375 24.703125 
Q 19.046875 24.703125 12.671875 31.3125 
Q 6.296875 37.9375 6.296875 49.421875 
Q 6.296875 60.640625 12.9375 67.421875 
Q 19.578125 74.21875 30.609375 74.21875 
Q 43.265625 74.21875 49.921875 64.515625 
Q 56.59375 54.828125 56.59375 36.375 
Q 56.59375 19.140625 48.40625 8.859375 
Q 40.234375 -1.421875 26.421875 -1.421875 
Q 22.703125 -1.421875 18.890625 -0.6875 
Q 15.09375 0.046875 10.984375 1.515625 
z
M 30.609375 32.421875 
Q 37.25 32.421875 41.125 36.953125 
Q 45.015625 41.5 45.015625 49.421875 
Q 45.015625 57.28125 41.125 61.84375 
Q 37.25 66.40625 30.609375 66.40625 
Q 23.96875 66.40625 20.09375 61.84375 
Q 16.21875 57.28125 16.21875 49.421875 
Q 16.21875 41.5 20.09375 36.953125 
Q 23.96875 32.421875 30.609375 32.421875 
z
" id="DejaVuSans-57"/>
      <path d="M 44.28125 53.078125 
L 44.28125 44.578125 
Q 40.484375 46.53125 36.375 47.5 
Q 32.28125 48.484375 27.875 48.484375 
Q 21.1875 48.484375 17.84375 46.4375 
Q 14.5 44.390625 14.5 40.28125 
Q 14.5 37.15625 16.890625 35.375 
Q 19.28125 33.59375 26.515625 31.984375 
L 29.59375 31.296875 
Q 39.15625 29.25 43.1875 25.515625 
Q 47.21875 21.78125 47.21875 15.09375 
Q 47.21875 7.46875 41.1875 3.015625 
Q 35.15625 -1.421875 24.609375 -1.421875 
Q 20.21875 -1.421875 15.453125 -0.5625 
Q 10.6875 0.296875 5.421875 2 
L 5.421875 11.28125 
Q 10.40625 8.6875 15.234375 7.390625 
Q 20.0625 6.109375 24.8125 6.109375 
Q 31.15625 6.109375 34.5625 8.28125 
Q 37.984375 10.453125 37.984375 14.40625 
Q 37.984375 18.0625 35.515625 20.015625 
Q 33.0625 21.96875 24.703125 23.78125 
L 21.578125 24.515625 
Q 13.234375 26.265625 9.515625 29.90625 
Q 5.8125 33.546875 5.8125 39.890625 
Q 5.8125 47.609375 11.28125 51.796875 
Q 16.75 56 26.8125 56 
Q 31.78125 56 36.171875 55.265625 
Q 40.578125 54.546875 44.28125 53.078125 
z
" id="DejaVuSans-115"/>
      <path d="M 18.109375 8.203125 
L 18.109375 -20.796875 
L 9.078125 -20.796875 
L 9.078125 54.6875 
L 18.109375 54.6875 
L 18.109375 46.390625 
Q 20.953125 51.265625 25.265625 53.625 
Q 29.59375 56 35.59375 56 
Q 45.5625 56 51.78125 48.09375 
Q 58.015625 40.1875 58.015625 27.296875 
Q 58.015625 14.40625 51.78125 6.484375 
Q 45.5625 -1.421875 35.59375 -1.421875 
Q 29.59375 -1.421875 25.265625 0.953125 
Q 20.953125 3.328125 18.109375 8.203125 
z
M 48.6875 27.296875 
Q 48.6875 37.203125 44.609375 42.84375 
Q 40.53125 48.484375 33.40625 48.484375 
Q 26.265625 48.484375 22.1875 42.84375 
Q 18.109375 37.203125 18.109375 27.296875 
Q 18.109375 17.390625 22.1875 11.75 
Q 26.265625 6.109375 33.40625 6.109375 
Q 40.53125 6.109375 44.609375 11.75 
Q 48.6875 17.390625 48.6875 27.296875 
z
" id="DejaVuSans-112"/>
      <path d="M 9.8125 72.90625 
L 24.515625 72.90625 
L 43.109375 23.296875 
L 61.8125 72.90625 
L 76.515625 72.90625 
L 76.515625 0 
L 66.890625 0 
L 66.890625 64.015625 
L 48.09375 14.015625 
L 38.1875 14.015625 
L 19.390625 64.015625 
L 19.390625 0 
L 9.8125 0 
z
" id="DejaVuSans-77"/>
      <path d="M 9.421875 54.6875 
L 18.40625 54.6875 
L 18.40625 0 
L 9.421875 0 
z
M 9.421875 75.984375 
L 18.40625 75.984375 
L 18.40625 64.59375 
L 9.421875 64.59375 
z
" id="DejaVuSans-105"/>
      <path d="M 9.421875 75.984375 
L 18.40625 75.984375 
L 18.40625 0 
L 9.421875 0 
z
" id="DejaVuSans-108"/>
      <path d="M 54.890625 33.015625 
L 54.890625 0 
L 45.90625 0 
L 45.90625 32.71875 
Q 45.90625 40.484375 42.875 44.328125 
Q 39.84375 48.1875 33.796875 48.1875 
Q 26.515625 48.1875 22.3125 43.546875 
Q 18.109375 38.921875 18.109375 30.90625 
L 18.109375 0 
L 9.078125 0 
L 9.078125 54.6875 
L 18.109375 54.6875 
L 18.109375 46.1875 
Q 21.34375 51.125 25.703125 53.5625 
Q 30.078125 56 35.796875 56 
Q 45.21875 56 50.046875 50.171875 
Q 54.890625 44.34375 54.890625 33.015625 
z
" id="DejaVuSans-110"/>
     </defs>
     <g transform="translate(14.798437 437.95875)rotate(-90)scale(0.1 -0.1)">
      <use xlink:href="#DejaVuSans-78"/>
      <use x="74.804688" xlink:href="#DejaVuSans-117"/>
      <use x="138.183594" xlink:href="#DejaVuSans-109"/>
      <use x="235.595703" xlink:href="#DejaVuSans-98"/>
      <use x="299.072266" xlink:href="#DejaVuSans-101"/>
      <use x="360.595703" xlink:href="#DejaVuSans-114"/>
      <use x="401.708984" xlink:href="#DejaVuSans-32"/>
      <use x="433.496094" xlink:href="#DejaVuSans-111"/>
      <use x="494.677734" xlink:href="#DejaVuSans-102"/>
      <use x="529.882812" xlink:href="#DejaVuSans-32"/>
      <use x="561.669922" xlink:href="#DejaVuSans-67"/>
      <use x="631.494141" xlink:href="#DejaVuSans-111"/>
      <use x="692.675781" xlink:href="#DejaVuSans-86"/>
      <use x="755.208984" xlink:href="#DejaVuSans-45"/>
      <use x="791.292969" xlink:href="#DejaVuSans-49"/>
      <use x="854.916016" xlink:href="#DejaVuSans-57"/>
      <use x="918.539062" xlink:href="#DejaVuSans-32"/>
      <use x="950.326172" xlink:href="#DejaVuSans-67"/>
      <use x="1020.150391" xlink:href="#DejaVuSans-97"/>
      <use x="1081.429688" xlink:href="#DejaVuSans-115"/>
      <use x="1133.529297" xlink:href="#DejaVuSans-101"/>
      <use x="1195.052734" xlink:href="#DejaVuSans-115"/>
      <use x="1247.152344" xlink:href="#DejaVuSans-32"/>
      <use x="1278.939453" xlink:href="#DejaVuSans-112"/>
      <use x="1342.416016" xlink:href="#DejaVuSans-101"/>
      <use x="1403.939453" xlink:href="#DejaVuSans-114"/>
      <use x="1445.052734" xlink:href="#DejaVuSans-32"/>
      <use x="1476.839844" xlink:href="#DejaVuSans-77"/>
      <use x="1563.119141" xlink:href="#DejaVuSans-105"/>
      <use x="1590.902344" xlink:href="#DejaVuSans-108"/>
      <use x="1618.685547" xlink:href="#DejaVuSans-108"/>
      <use x="1646.46875" xlink:href="#DejaVuSans-105"/>
      <use x="1674.251953" xlink:href="#DejaVuSans-111"/>
      <use x="1735.433594" xlink:href="#DejaVuSans-110"/>
     </g>
    </g>
   </g>
   <g id="line2d_33">
    <path clip-path="url(#p664cfa9eb9)" d="M 127.913874 644.109034 
L 143.616137 644.109034 
L 159.3184 644.109034 
L 175.020663 644.109034 
L 190.722926 644.109034 
L 206.425189 644.109034 
L 222.127452 644.109034 
L 237.829715 644.109034 
L 253.531978 643.960431 
L 269.234241 644.109034 
L 284.936504 643.118349 
L 300.638767 643.118349 
L 316.34103 643.861363 
L 332.043293 643.861363 
L 347.745556 642.623007 
L 363.447819 643.118349 
L 379.150082 643.118349 
L 394.852345 642.672541 
L 410.554608 642.672541 
L 426.256871 642.623007 
L 441.959134 641.582788 
L 457.661397 642.623007 
L 473.36366 641.236048 
L 489.065923 639.601418 
L 504.768186 641.236048 
L 520.470449 637.471446 
L 536.172712 635.192871 
L 551.874975 635.192871 
L 567.577238 635.192871 
L 583.279501 630.487119 
L 598.981764 626.375777 
L 614.684027 622.710243 
L 630.38629 617.954956 
L 646.088553 612.407122 
L 661.790816 606.562082 
L 677.493079 606.562082 
L 693.195342 610.921094 
L 708.897605 585.361428 
L 724.599868 585.361428 
L 740.302131 567.925376 
L 756.004394 526.118479 
L 771.706657 539.740394 
L 787.40892 510.614262 
L 803.111183 526.118479 
L 818.813446 508.434756 
L 834.515709 475.544021 
L 850.217972 489.90895 
L 865.920235 489.90895 
L 881.622498 471.333611 
L 897.324761 437.452192 
L 913.027024 471.333611 
L 928.729287 438.046603 
L 944.43155 408.425129 
L 960.133813 426.505125 
L 975.836076 405.0568 
L 991.538339 393.614391 
L 1007.240602 339.423935 
L 1022.942865 358.643219 
L 1038.645128 362.457355 
L 1054.347391 333.430292 
L 1070.049654 298.062846 
L 1085.751917 314.805418 
L 1101.45418 317.97561 
L 1117.156443 286.323231 
L 1132.858706 285.084875 
L 1148.560969 316.043774 
L 1164.263232 305.740653 
L 1179.965495 263.487947 
L 1195.667758 245.110745 
L 1211.370021 233.816939 
L 1227.072284 261.506578 
L 1242.774547 189.087522 
L 1258.47681 202.015958 
L 1274.179073 202.015958 
L 1289.881336 197.706479 
L 1305.583599 173.88051 
L 1321.285862 173.88051 
L 1336.988125 188.641713 
L 1352.690388 154.512623 
L 1368.392651 129.547367 
L 1384.094914 109.882275 
L 1399.797177 102.650276 
L 1415.49944 123.058382 
L 1431.201703 105.96907 
L 1446.903966 86.601183 
L 1462.606229 105.96907 
L 1478.308492 109.882275 
L 1494.010755 109.882275 
L 1509.713018 82.093567 
L 1525.415281 82.093567 
L 1541.117544 83.282389 
L 1556.819807 75.753185 
L 1572.52207 68.719323 
L 1588.224333 63.518228 
L 1603.926596 57.673188 
L 1619.628859 56.236695 
" style="fill:none;stroke:#000080;stroke-linecap:square;stroke-width:1.5;"/>
   </g>
   <g id="line2d_34">
    <path clip-path="url(#p664cfa9eb9)" d="M 127.913874 644.109034 
L 143.616137 644.109034 
L 159.3184 644.109034 
L 175.020663 644.109034 
L 190.722926 644.109034 
L 206.425189 644.109034 
L 222.127452 644.109034 
L 237.829715 644.109034 
L 253.531978 643.988508 
L 269.234241 644.109034 
L 284.936504 643.237323 
L 300.638767 643.960431 
L 316.34103 643.811829 
L 332.043293 643.663226 
L 347.745556 643.514623 
L 363.447819 643.514623 
L 379.150082 643.374461 
L 394.852345 643.217418 
L 410.554608 642.920212 
L 426.256871 642.474404 
L 441.959134 641.879993 
L 457.661397 642.590486 
L 473.36366 640.839774 
L 489.065923 639.948158 
L 504.768186 641.08896 
L 520.470449 636.976104 
L 536.172712 635.490077 
L 551.874975 633.112433 
L 567.577238 634.738058 
L 583.279501 629.545968 
L 598.981764 626.425311 
L 614.684027 623.156051 
L 630.38629 618.549367 
L 646.088553 612.15945 
L 661.790816 606.512547 
L 677.493079 601.014247 
L 693.195342 612.056559 
L 708.897605 582.762492 
L 724.599868 577.980826 
L 740.302131 568.024444 
L 756.004394 557.770857 
L 771.706657 538.200826 
L 787.40892 535.331847 
L 803.111183 526.118479 
L 818.813446 506.877824 
L 834.515709 504.719688 
L 850.217972 494.4661 
L 865.920235 486.507546 
L 881.622498 470.392461 
L 897.324761 447.667442 
L 913.027024 449.142272 
L 928.729287 437.551261 
L 944.43155 427.446276 
L 960.133813 430.497083 
L 975.836076 406.452614 
L 991.538339 392.821843 
L 1007.240602 341.406714 
L 1022.942865 357.299505 
L 1038.645128 360.277849 
L 1054.347391 350.47007 
L 1070.049654 300.410387 
L 1085.751917 328.476868 
L 1101.45418 317.62887 
L 1117.156443 307.821091 
L 1132.858706 298.310517 
L 1148.560969 289.542957 
L 1164.263232 302.246784 
L 1179.965495 267.401152 
L 1195.667758 247.13185 
L 1211.370021 243.17891 
L 1227.072284 233.519733 
L 1242.774547 224.752173 
L 1258.47681 215.092997 
L 1274.179073 201.718752 
L 1289.881336 189.236124 
L 1305.583599 179.13114 
L 1321.285862 172.632005 
L 1336.988125 187.122145 
L 1352.690388 153.274267 
L 1368.392651 129.747691 
L 1384.094914 138.711201 
L 1399.797177 131.132463 
L 1415.49944 124.305901 
L 1431.201703 105.629535 
L 1446.903966 87.067319 
L 1462.606229 102.006331 
L 1478.308492 96.656633 
L 1494.010755 94.27899 
L 1509.713018 92.049949 
L 1525.415281 84.768416 
L 1541.117544 82.033213 
L 1556.819807 73.028801 
L 1572.52207 69.462336 
L 1588.224333 65.004255 
L 1603.926596 56.088092 
L 1619.628859 51.927216 
" style="fill:none;stroke:#006400;stroke-linecap:square;stroke-width:1.5;"/>
   </g>
   <g id="patch_3">
    <path d="M 53.328125 673.718125 
L 53.328125 22.318125 
" style="fill:none;stroke:#000000;stroke-linecap:square;stroke-linejoin:miter;stroke-width:0.8;"/>
   </g>
   <g id="patch_4">
    <path d="M 1694.214608 673.718125 
L 1694.214608 22.318125 
" style="fill:none;stroke:#000000;stroke-linecap:square;stroke-linejoin:miter;stroke-width:0.8;"/>
   </g>
   <g id="patch_5">
    <path d="M 53.328125 673.718125 
L 1694.214608 673.718125 
" style="fill:none;stroke:#000000;stroke-linecap:square;stroke-linejoin:miter;stroke-width:0.8;"/>
   </g>
   <g id="patch_6">
    <path d="M 53.328125 22.318125 
L 1694.214608 22.318125 
" style="fill:none;stroke:#000000;stroke-linecap:square;stroke-linejoin:miter;stroke-width:0.8;"/>
   </g>
   <g id="text_19">
    <!-- Evolution of CoV-19 Cases per Million: K-Nearest Neighbor -->
    <defs>
     <path d="M 9.8125 72.90625 
L 55.90625 72.90625 
L 55.90625 64.59375 
L 19.671875 64.59375 
L 19.671875 43.015625 
L 54.390625 43.015625 
L 54.390625 34.71875 
L 19.671875 34.71875 
L 19.671875 8.296875 
L 56.78125 8.296875 
L 56.78125 0 
L 9.8125 0 
z
" id="DejaVuSans-69"/>
     <path d="M 2.984375 54.6875 
L 12.5 54.6875 
L 29.59375 8.796875 
L 46.6875 54.6875 
L 56.203125 54.6875 
L 35.6875 0 
L 23.484375 0 
z
" id="DejaVuSans-118"/>
     <path d="M 11.71875 12.40625 
L 22.015625 12.40625 
L 22.015625 0 
L 11.71875 0 
z
M 11.71875 51.703125 
L 22.015625 51.703125 
L 22.015625 39.3125 
L 11.71875 39.3125 
z
" id="DejaVuSans-58"/>
     <path d="M 9.8125 72.90625 
L 19.671875 72.90625 
L 19.671875 42.09375 
L 52.390625 72.90625 
L 65.09375 72.90625 
L 28.90625 38.921875 
L 67.671875 0 
L 54.6875 0 
L 19.671875 35.109375 
L 19.671875 0 
L 9.8125 0 
z
" id="DejaVuSans-75"/>
     <path d="M 45.40625 27.984375 
Q 45.40625 37.75 41.375 43.109375 
Q 37.359375 48.484375 30.078125 48.484375 
Q 22.859375 48.484375 18.828125 43.109375 
Q 14.796875 37.75 14.796875 27.984375 
Q 14.796875 18.265625 18.828125 12.890625 
Q 22.859375 7.515625 30.078125 7.515625 
Q 37.359375 7.515625 41.375 12.890625 
Q 45.40625 18.265625 45.40625 27.984375 
z
M 54.390625 6.78125 
Q 54.390625 -7.171875 48.1875 -13.984375 
Q 42 -20.796875 29.203125 -20.796875 
Q 24.46875 -20.796875 20.265625 -20.09375 
Q 16.0625 -19.390625 12.109375 -17.921875 
L 12.109375 -9.1875 
Q 16.0625 -11.328125 19.921875 -12.34375 
Q 23.78125 -13.375 27.78125 -13.375 
Q 36.625 -13.375 41.015625 -8.765625 
Q 45.40625 -4.15625 45.40625 5.171875 
L 45.40625 9.625 
Q 42.625 4.78125 38.28125 2.390625 
Q 33.9375 0 27.875 0 
Q 17.828125 0 11.671875 7.65625 
Q 5.515625 15.328125 5.515625 27.984375 
Q 5.515625 40.671875 11.671875 48.328125 
Q 17.828125 56 27.875 56 
Q 33.9375 56 38.28125 53.609375 
Q 42.625 51.21875 45.40625 46.390625 
L 45.40625 54.6875 
L 54.390625 54.6875 
z
" id="DejaVuSans-103"/>
     <path d="M 54.890625 33.015625 
L 54.890625 0 
L 45.90625 0 
L 45.90625 32.71875 
Q 45.90625 40.484375 42.875 44.328125 
Q 39.84375 48.1875 33.796875 48.1875 
Q 26.515625 48.1875 22.3125 43.546875 
Q 18.109375 38.921875 18.109375 30.90625 
L 18.109375 0 
L 9.078125 0 
L 9.078125 75.984375 
L 18.109375 75.984375 
L 18.109375 46.1875 
Q 21.34375 51.125 25.703125 53.5625 
Q 30.078125 56 35.796875 56 
Q 45.21875 56 50.046875 50.171875 
Q 54.890625 44.34375 54.890625 33.015625 
z
" id="DejaVuSans-104"/>
    </defs>
    <g transform="translate(699.900742 16.318125)scale(0.12 -0.12)">
     <use xlink:href="#DejaVuSans-69"/>
     <use x="63.183594" xlink:href="#DejaVuSans-118"/>
     <use x="122.363281" xlink:href="#DejaVuSans-111"/>
     <use x="183.544922" xlink:href="#DejaVuSans-108"/>
     <use x="211.328125" xlink:href="#DejaVuSans-117"/>
     <use x="274.707031" xlink:href="#DejaVuSans-116"/>
     <use x="313.916016" xlink:href="#DejaVuSans-105"/>
     <use x="341.699219" xlink:href="#DejaVuSans-111"/>
     <use x="402.880859" xlink:href="#DejaVuSans-110"/>
     <use x="466.259766" xlink:href="#DejaVuSans-32"/>
     <use x="498.046875" xlink:href="#DejaVuSans-111"/>
     <use x="559.228516" xlink:href="#DejaVuSans-102"/>
     <use x="594.433594" xlink:href="#DejaVuSans-32"/>
     <use x="626.220703" xlink:href="#DejaVuSans-67"/>
     <use x="696.044922" xlink:href="#DejaVuSans-111"/>
     <use x="757.226562" xlink:href="#DejaVuSans-86"/>
     <use x="819.759766" xlink:href="#DejaVuSans-45"/>
     <use x="855.84375" xlink:href="#DejaVuSans-49"/>
     <use x="919.466797" xlink:href="#DejaVuSans-57"/>
     <use x="983.089844" xlink:href="#DejaVuSans-32"/>
     <use x="1014.876953" xlink:href="#DejaVuSans-67"/>
     <use x="1084.701172" xlink:href="#DejaVuSans-97"/>
     <use x="1145.980469" xlink:href="#DejaVuSans-115"/>
     <use x="1198.080078" xlink:href="#DejaVuSans-101"/>
     <use x="1259.603516" xlink:href="#DejaVuSans-115"/>
     <use x="1311.703125" xlink:href="#DejaVuSans-32"/>
     <use x="1343.490234" xlink:href="#DejaVuSans-112"/>
     <use x="1406.966797" xlink:href="#DejaVuSans-101"/>
     <use x="1468.490234" xlink:href="#DejaVuSans-114"/>
     <use x="1509.603516" xlink:href="#DejaVuSans-32"/>
     <use x="1541.390625" xlink:href="#DejaVuSans-77"/>
     <use x="1627.669922" xlink:href="#DejaVuSans-105"/>
     <use x="1655.453125" xlink:href="#DejaVuSans-108"/>
     <use x="1683.236328" xlink:href="#DejaVuSans-108"/>
     <use x="1711.019531" xlink:href="#DejaVuSans-105"/>
     <use x="1738.802734" xlink:href="#DejaVuSans-111"/>
     <use x="1799.984375" xlink:href="#DejaVuSans-110"/>
     <use x="1863.363281" xlink:href="#DejaVuSans-58"/>
     <use x="1897.054688" xlink:href="#DejaVuSans-32"/>
     <use x="1928.841797" xlink:href="#DejaVuSans-75"/>
     <use x="1983.917969" xlink:href="#DejaVuSans-45"/>
     <use x="2020.001953" xlink:href="#DejaVuSans-78"/>
     <use x="2094.806641" xlink:href="#DejaVuSans-101"/>
     <use x="2156.330078" xlink:href="#DejaVuSans-97"/>
     <use x="2217.609375" xlink:href="#DejaVuSans-114"/>
     <use x="2256.472656" xlink:href="#DejaVuSans-101"/>
     <use x="2317.996094" xlink:href="#DejaVuSans-115"/>
     <use x="2370.095703" xlink:href="#DejaVuSans-116"/>
     <use x="2409.304688" xlink:href="#DejaVuSans-32"/>
     <use x="2441.091797" xlink:href="#DejaVuSans-78"/>
     <use x="2515.896484" xlink:href="#DejaVuSans-101"/>
     <use x="2577.419922" xlink:href="#DejaVuSans-105"/>
     <use x="2605.203125" xlink:href="#DejaVuSans-103"/>
     <use x="2668.679688" xlink:href="#DejaVuSans-104"/>
     <use x="2732.058594" xlink:href="#DejaVuSans-98"/>
     <use x="2795.535156" xlink:href="#DejaVuSans-111"/>
     <use x="2856.716797" xlink:href="#DejaVuSans-114"/>
    </g>
   </g>
   <g id="legend_1">
    <g id="patch_7">
     <path d="M 60.328125 74.3525 
L 158.864063 74.3525 
Q 160.864063 74.3525 160.864063 72.3525 
L 160.864063 29.318125 
Q 160.864063 27.318125 158.864063 27.318125 
L 60.328125 27.318125 
Q 58.328125 27.318125 58.328125 29.318125 
L 58.328125 72.3525 
Q 58.328125 74.3525 60.328125 74.3525 
z
" style="fill:#ffffff;opacity:0.8;stroke:#cccccc;stroke-linejoin:miter;"/>
    </g>
    <g id="line2d_35">
     <path d="M 62.328125 35.416562 
L 82.328125 35.416562 
" style="fill:none;stroke:#000080;stroke-linecap:square;stroke-width:1.5;"/>
    </g>
    <g id="line2d_36"/>
    <g id="text_20">
     <!-- Uniform -->
     <defs>
      <path d="M 8.6875 72.90625 
L 18.609375 72.90625 
L 18.609375 28.609375 
Q 18.609375 16.890625 22.84375 11.734375 
Q 27.09375 6.59375 36.625 6.59375 
Q 46.09375 6.59375 50.34375 11.734375 
Q 54.59375 16.890625 54.59375 28.609375 
L 54.59375 72.90625 
L 64.5 72.90625 
L 64.5 27.390625 
Q 64.5 13.140625 57.4375 5.859375 
Q 50.390625 -1.421875 36.625 -1.421875 
Q 22.796875 -1.421875 15.734375 5.859375 
Q 8.6875 13.140625 8.6875 27.390625 
z
" id="DejaVuSans-85"/>
     </defs>
     <g transform="translate(90.328125 38.916562)scale(0.1 -0.1)">
      <use xlink:href="#DejaVuSans-85"/>
      <use x="73.193359" xlink:href="#DejaVuSans-110"/>
      <use x="136.572266" xlink:href="#DejaVuSans-105"/>
      <use x="164.355469" xlink:href="#DejaVuSans-102"/>
      <use x="199.560547" xlink:href="#DejaVuSans-111"/>
      <use x="260.742188" xlink:href="#DejaVuSans-114"/>
      <use x="300.105469" xlink:href="#DejaVuSans-109"/>
     </g>
    </g>
    <g id="line2d_37">
     <path d="M 62.328125 50.094687 
L 82.328125 50.094687 
" style="fill:none;stroke:#006400;stroke-linecap:square;stroke-width:1.5;"/>
    </g>
    <g id="line2d_38"/>
    <g id="text_21">
     <!-- Distance -->
     <defs>
      <path d="M 48.78125 52.59375 
L 48.78125 44.1875 
Q 44.96875 46.296875 41.140625 47.34375 
Q 37.3125 48.390625 33.40625 48.390625 
Q 24.65625 48.390625 19.8125 42.84375 
Q 14.984375 37.3125 14.984375 27.296875 
Q 14.984375 17.28125 19.8125 11.734375 
Q 24.65625 6.203125 33.40625 6.203125 
Q 37.3125 6.203125 41.140625 7.25 
Q 44.96875 8.296875 48.78125 10.40625 
L 48.78125 2.09375 
Q 45.015625 0.34375 40.984375 -0.53125 
Q 36.96875 -1.421875 32.421875 -1.421875 
Q 20.0625 -1.421875 12.78125 6.34375 
Q 5.515625 14.109375 5.515625 27.296875 
Q 5.515625 40.671875 12.859375 48.328125 
Q 20.21875 56 33.015625 56 
Q 37.15625 56 41.109375 55.140625 
Q 45.0625 54.296875 48.78125 52.59375 
z
" id="DejaVuSans-99"/>
     </defs>
     <g transform="translate(90.328125 53.594687)scale(0.1 -0.1)">
      <use xlink:href="#DejaVuSans-68"/>
      <use x="77.001953" xlink:href="#DejaVuSans-105"/>
      <use x="104.785156" xlink:href="#DejaVuSans-115"/>
      <use x="156.884766" xlink:href="#DejaVuSans-116"/>
      <use x="196.09375" xlink:href="#DejaVuSans-97"/>
      <use x="257.373047" xlink:href="#DejaVuSans-110"/>
      <use x="320.751953" xlink:href="#DejaVuSans-99"/>
      <use x="375.732422" xlink:href="#DejaVuSans-101"/>
     </g>
    </g>
    <g id="PathCollection_2">
     <g>
      <use style="fill:#ff8c00;stroke:#ff8c00;" x="72.328125" xlink:href="#m564bf501c0" y="65.647812"/>
     </g>
    </g>
    <g id="text_22">
     <!-- Labeled Data -->
     <defs>
      <path d="M 9.8125 72.90625 
L 19.671875 72.90625 
L 19.671875 8.296875 
L 55.171875 8.296875 
L 55.171875 0 
L 9.8125 0 
z
" id="DejaVuSans-76"/>
      <path d="M 45.40625 46.390625 
L 45.40625 75.984375 
L 54.390625 75.984375 
L 54.390625 0 
L 45.40625 0 
L 45.40625 8.203125 
Q 42.578125 3.328125 38.25 0.953125 
Q 33.9375 -1.421875 27.875 -1.421875 
Q 17.96875 -1.421875 11.734375 6.484375 
Q 5.515625 14.40625 5.515625 27.296875 
Q 5.515625 40.1875 11.734375 48.09375 
Q 17.96875 56 27.875 56 
Q 33.9375 56 38.25 53.625 
Q 42.578125 51.265625 45.40625 46.390625 
z
M 14.796875 27.296875 
Q 14.796875 17.390625 18.875 11.75 
Q 22.953125 6.109375 30.078125 6.109375 
Q 37.203125 6.109375 41.296875 11.75 
Q 45.40625 17.390625 45.40625 27.296875 
Q 45.40625 37.203125 41.296875 42.84375 
Q 37.203125 48.484375 30.078125 48.484375 
Q 22.953125 48.484375 18.875 42.84375 
Q 14.796875 37.203125 14.796875 27.296875 
z
" id="DejaVuSans-100"/>
     </defs>
     <g transform="translate(90.328125 68.272812)scale(0.1 -0.1)">
      <use xlink:href="#DejaVuSans-76"/>
      <use x="55.712891" xlink:href="#DejaVuSans-97"/>
      <use x="116.992188" xlink:href="#DejaVuSans-98"/>
      <use x="180.46875" xlink:href="#DejaVuSans-101"/>
      <use x="241.992188" xlink:href="#DejaVuSans-108"/>
      <use x="269.775391" xlink:href="#DejaVuSans-101"/>
      <use x="331.298828" xlink:href="#DejaVuSans-100"/>
      <use x="394.775391" xlink:href="#DejaVuSans-32"/>
      <use x="426.5625" xlink:href="#DejaVuSans-68"/>
      <use x="503.564453" xlink:href="#DejaVuSans-97"/>
      <use x="564.84375" xlink:href="#DejaVuSans-116"/>
      <use x="604.052734" xlink:href="#DejaVuSans-97"/>
     </g>
    </g>
   </g>
  </g>
 </g>
 <defs>
  <clipPath id="p664cfa9eb9">
   <rect height="651.4" width="1640.886483" x="53.328125" y="22.318125"/>
  </clipPath>
 </defs>
</svg>
